<svg xmlns="http://www.w3.org/2000/svg"  viewBox="0 0 64 64" width="64px" height="64px"><path fill="#d6d6ea" d="M48.22,54.06c-.9-4.19-5.93-9.46-10.23-11.75a17.365,17.365,0,0,0-1.78-3.37s-2.09,4-6.11,4.19a2.264,2.264,0,0,1-2.465-1.448A6.946,6.946,0,0,0,26.21,44.42a2.641,2.641,0,0,0-.3.051C22.429,45.565,16.42,49.76,14.02,54.81c-.73,1.54-.7,2.91.66,3.9,1.42,1.03,3.71,1.95,7.47,2.43a58.064,58.064,0,0,0,6.01.31c9.53-.04,15.55-2.78,17.37-3.93C46.73,56.74,48.58,55.73,48.22,54.06Z"/><path fill="#2f5893" d="M31.81,45.13a13.652,13.652,0,0,1-1.278,2.744A4.741,4.741,0,0,1,28.5,47.69a15.372,15.372,0,0,1-.44-2.52l-.02-.01c.29-.4.58-.77.87-1.1a1.573,1.573,0,0,1,2.21.05,4.943,4.943,0,0,1,.7,1.02Z"/><path fill="#2f5893" d="M30.57,47.69s-2.06,9.81-2.41,13.76h-.2a29.845,29.845,0,0,1-5.81-.31c1.49-4.93,3.36-9.64,6.35-13.45A11.011,11.011,0,0,0,30.57,47.69Z"/><path fill="#bc6e4b" d="M46.17,17.25a27.63,27.63,0,0,1-.49,4.95,7.461,7.461,0,0,1-1.22,2.95,2.716,2.716,0,0,0-1.85-1.43,3.509,3.509,0,0,0-2.75.74,4.789,4.789,0,0,0-.95,1.13s-2.28-1.21-2.16-5.34c.12-3.94-1.75-7.56-6.57-6.94-3.61.47-7.43,2.48-12.88,1.18-1.12-.21-2.59-1.07-3.76-3.32C11.43,7.09,15.61.58,22.03,3c3.58,1.35,7.08-.36,13.99,1.06C42.99,5.5,46.3,11.92,46.17,17.25Z"/><path fill="#ffbf94" d="M16.66,25.22c-.12-3.27-.89-7.47.64-10.73,5.45,1.3,9.27-.71,12.88-1.18,4.82-.62,6.69,3,6.57,6.94-.12,4.13,2.16,5.34,2.16,5.34a4.789,4.789,0,0,1,.95-1.13,3.509,3.509,0,0,1,2.75-.74,2.716,2.716,0,0,1,1.85,1.43,5.038,5.038,0,0,1,.37,3.4c-.46,2.01-2.16,3.91-4.17,3.45a3.133,3.133,0,0,1-1.32-.71,13.047,13.047,0,0,1-3.64,5.29,9.572,9.572,0,0,1-1.33.99,19.044,19.044,0,0,1-6.4,2.15c-.28.04-.52.06-.71.07a1.028,1.028,0,0,1-.17.01,9.5,9.5,0,0,1-7.2-2.83C17.73,34.58,16.85,30.7,16.66,25.22Z"/><path fill="#ffbf94" d="M44.374,25.244a2.716,2.716,0,0,0-1.85-1.43,3.509,3.509,0,0,0-2.75.74,4.789,4.789,0,0,0-.95,1.13s-2.28-1.21-2.16-5.34c.12-3.94-1.75-7.56-6.57-6.94-3.61.47-7.43,2.48-12.88,1.18-1.53,3.26-.76,7.46-.64,10.73.19,5.48,1.07,9.36,3.23,11.75a9.5,9.5,0,0,0,7.2,2.83,1.028,1.028,0,0,0,.17-.01c.14.45.36,1.43.49,1.9a2.12,2.12,0,0,0,2.35,1.44c4.02-.19,6.108-4.128,6.108-4.128-.15-.66-.508-2.422-.508-2.422a13.047,13.047,0,0,0,3.64-5.29,3.133,3.133,0,0,0,1.32.71c2.01.46,3.71-1.44,4.17-3.45A5.038,5.038,0,0,0,44.374,25.244Z"/><path fill="#ffa07b" d="M27.882,39.812a19.044,19.044,0,0,0,6.4-2.15,9.572,9.572,0,0,0,1.33-.99s.629,2.918.779,3.578a8.983,8.983,0,0,1-6.344,3.384c-1.09.05-2.135.09-2.412-1.952-.13-.47-.323-1.35-.463-1.8C27.362,39.872,27.6,39.852,27.882,39.812Z"/><path fill="#f77261" d="M24.847,33.309a2.579,2.579,0,0,1-1.892-.661.5.5,0,1,1,.77-.636,1.678,1.678,0,0,0,1.121.3h0a2.356,2.356,0,0,0,1.753-.626.5.5,0,1,1,.772.634,3.263,3.263,0,0,1-2.523.992Z"/><path fill="#f77261" d="M24.53,29.965a1.354,1.354,0,0,1-.924-.373,1.008,1.008,0,0,1-.343-1.011.5.5,0,0,1,.973.217.392.392,0,0,0,.159.136.3.3,0,0,0,.244.01.5.5,0,1,1,.361.932A1.281,1.281,0,0,1,24.53,29.965Z"/><path fill="#bc6e4b" d="M33.439,20.75a.505.505,0,0,1-.242-.063c-1.589-.883-5.357-.776-5.913-.184a.5.5,0,1,1-.728-.686c1.058-1.124,5.393-.969,7.127,0a.5.5,0,0,1-.244.937Z"/><path fill="#bc6e4b" d="M21.319,20.75a.5.5,0,0,1-.266-.077,5.863,5.863,0,0,0-4.449-.195.5.5,0,0,1-.448-.9,6.808,6.808,0,0,1,5.431.244.5.5,0,0,1-.268.923Z"/><path fill="#f77261" d="M40.73,28.22a.541.541,0,0,1-.1-.011.5.5,0,0,1-.385-.593,2.181,2.181,0,0,1,2.347-1.581.5.5,0,1,1-.136.99,1.185,1.185,0,0,0-1.233.8A.5.5,0,0,1,40.73,28.22Z"/><path fill="#bc6e4b" d="M29.99,24.77v-.83a.928.928,0,0,1,.93-.93h.28a.928.928,0,0,1,.93.93v.83a.935.935,0,0,1-.93.93h-.28A.935.935,0,0,1,29.99,24.77Z"/><path fill="#bc6e4b" d="M20.95,23.95v.83a.935.935,0,0,1-.93.93h-.28a.935.935,0,0,1-.93-.93v-.83a.928.928,0,0,1,.93-.93h.28A.928.928,0,0,1,20.95,23.95Z"/><path fill="#7f3c3c" d="M28.93,23.522a.519.519,0,0,1-.49-.532,1.006,1.006,0,0,1,.684-.912,3.441,3.441,0,0,1,3.229.549.5.5,0,1,1-.686.727,2.4,2.4,0,0,0-1.618-.461,1.075,1.075,0,0,0-.63.163A.463.463,0,0,1,28.93,23.522Z"/><path fill="#7f3c3c" d="M17.75,23.533A.52.52,0,0,1,17.26,23a1,1,0,0,1,.684-.912,3.441,3.441,0,0,1,3.229.549.5.5,0,1,1-.686.726,2.4,2.4,0,0,0-1.616-.46,1.1,1.1,0,0,0-.632.162A.464.464,0,0,1,17.75,23.533Z"/><path fill="#efefef" d="M25.13,49.17c-.46-.12.62-3.42.89-4.16.05-.18.12-.38.19-.59a6.946,6.946,0,0,1,1.425-2.738A2.264,2.264,0,0,0,30.1,43.13c4.02-.19,6.11-4.19,6.11-4.19a17.365,17.365,0,0,1,1.78,3.37c-.44,1.18-2.19,5.29-3.65,6.71a.609.609,0,0,1-1-.2,39.223,39.223,0,0,0-1.52-3.69,4.943,4.943,0,0,0-.7-1.02,1.573,1.573,0,0,0-2.21-.05c-.29.33-.58.7-.87,1.1C26.72,47,25.52,49.27,25.13,49.17Z"/></svg>