<svg xmlns="http://www.w3.org/2000/svg"  viewBox="0 0 64 64" width="64px" height="64px"><path fill="#db356c" d="M13.243,44.25c.412-1.47.7-6.63,6.711-6.33-2.074.8-1.531,6.44-.054,8.12C16.327,46.91,12.83,45.74,13.243,44.25Z"/><path fill="#ffbf94" d="M42.328,24.719c-1.152-.65-2.851-1.648-2.935-3.674a11.65,11.65,0,0,0-11.2-11.06c-6.521-.179-12.53,5-12.53,11.483,0,.406-.478,1.2-.474,1.595.062,7.4,1.928,10.644,2.006,10.9a11.282,11.282,0,0,0,2.308,4.06h.01a9.513,9.513,0,0,0,6.211,3.891c1.89.12,6.191-1,9.621-3.292a7.04,7.04,0,0,0,3.1-5.569c.135.09.265.182.394.279a2.008,2.008,0,0,0,1,.409,4.142,4.142,0,0,0,1.623-.148,4.485,4.485,0,0,0,2.851-3.3C44.773,28.2,44.158,25.751,42.328,24.719Z"/><path fill="#ffb640" d="M49.78,53.14c-.09-.33-.17-.66-.26-.97a23.932,23.932,0,0,0-2.79-6.74,16.763,16.763,0,0,0-4.2-4.46c-8.53-1.157-17.217.78-23.16,5.07a18.126,18.126,0,0,0-1.45,1.78,27.865,27.865,0,0,0-3.47,6.14c-.66,1.75-.63,3.31.6,4.43,1.84,1.68,6.57,4.13,13.76,4.13,9.87.01,16.19-3.2,18.44-5.12C49.14,55.77,50.15,54.57,49.78,53.14Z"/><path fill="#edeae8" d="M48.56,24.62a7.366,7.366,0,0,0-.768,3.062c-.125,3.443-3.63,5.506-6.193,5.867a4.535,4.535,0,0,0,2.423-3.333c.46-2.09-.294-4.5-2.344-4.961a3.529,3.529,0,0,0-3.478,1.78c-.812-2.08-3.387-6.66-3.387-6.66-2.344,1.9-6.282.094-6.093-1.745a3.865,3.865,0,0,1-3.53,3.07c-2.4.29-4.41-.28-5.21-1.69l-.433-.916a5.809,5.809,0,0,1-3.578,3.369,35.742,35.742,0,0,0,.783,9.878c.168.744.319,1.208.442,1.625-2.616.2-5.724-2.186-4.754-5.566a2.564,2.564,0,0,0-.52-2.29c-3.83-3.02-2.57-7.68-.11-9.11a.313.313,0,0,0,.11-.09c.55-.45.66-1.64.46-2.72-.06-.35-.11-.68-.14-1a6.713,6.713,0,0,1,.24-2.53,2.016,2.016,0,0,1,.15-.41,5.464,5.464,0,0,1,4.49-3.33,2.824,2.824,0,0,0,2.12-1.88c.81-2.95,6.21-4.93,9.34-2.18a1.843,1.843,0,0,0,2.22.22,6.632,6.632,0,0,1,2.82-1.16c3.71-.59,5.82,1.46,6.82,4.58a1.791,1.791,0,0,0,1.75,1.28,5.584,5.584,0,0,1,4.43,2.29,5.391,5.391,0,0,1,.58,5.07c-.22.79-.44,1.87.26,2.3,1.03.62,1.7,1.52,2,3.52A4.949,4.949,0,0,1,48.56,24.62Z"/><path fill="#fff0c0" d="M46.73,45.43a23.932,23.932,0,0,1,2.79,6.74,1.242,1.242,0,0,1-1.99-.56,3.5,3.5,0,0,1,.26-2.01,3.824,3.824,0,0,1-1.54.92c-.77.29-1.69.14-1.91-.46s.04-1.29.95-1.62a4.144,4.144,0,0,1,2.13.1c-.47-.37-1.23-.64-1.48-1.33C45.6,46.29,46.13,45.43,46.73,45.43Z"/><path fill="#fff0c0" d="M35.5,54.69a2.987,2.987,0,0,1,.58,1.62c0,.91-.48,1.65-1.08,1.65s-1.09-.74-1.09-1.65a2.894,2.894,0,0,1,.65-1.62,2.377,2.377,0,0,1-1.6.62c-.91,0-1.65-.49-1.65-1.09s.74-1.09,1.65-1.09a3.235,3.235,0,0,1,1.6.58,2.412,2.412,0,0,1-.62-1.61c0-.91.49-1.64,1.09-1.64s1.09.73,1.09,1.64a2.766,2.766,0,0,1-.58,1.61,2.671,2.671,0,0,1,1.56-.58c.91,0,1.65.49,1.65,1.09s-.74,1.09-1.65,1.09A2.45,2.45,0,0,1,35.5,54.69Z"/><path fill="#fff0c0" d="M24.28,54.32a2.76,2.76,0,0,1-.58,1.6,2.671,2.671,0,0,1,1.56-.58c.91,0,1.65.49,1.65,1.09s-.74,1.09-1.65,1.09a2.4,2.4,0,0,1-1.6-.62,3.073,3.073,0,0,1,.58,1.63c0,.91-.49,1.64-1.09,1.64s-1.08-.73-1.08-1.64a2.9,2.9,0,0,1,.65-1.63,2.383,2.383,0,0,1-1.61.62c-.9,0-1.64-.49-1.64-1.09s.74-1.09,1.64-1.09a3.272,3.272,0,0,1,1.61.58,2.4,2.4,0,0,1-.62-1.6c0-.91.49-1.65,1.09-1.65S24.28,53.41,24.28,54.32Z"/><path fill="#fff0c0" d="M18.91,50.44a1.1,1.1,0,0,1,.98,1.44c-.2.53-.84.78-1.73.66a2.709,2.709,0,0,1-1.56-.98,2.783,2.783,0,0,1,.05,1.71,1.52,1.52,0,0,1-2.2.69,27.865,27.865,0,0,1,3.47-6.14c.58.09.7.78.39,1.58-.22.57-.86.81-1.23,1.06A5.869,5.869,0,0,1,18.91,50.44Z"/><path fill="#f74670" d="M19.439,37.965A9.724,9.724,0,0,0,25.49,40.96a17.37,17.37,0,0,0,9.72-3.13c3.15-2.11,3.232-4.774,3.232-4.774a9.809,9.809,0,0,1,.789.654c2.27,1.86,4.089,4.75,3.3,7.26C39.69,50,23.99,51.75,19.37,46.04c-1.36-1.68-1.892-7.332.018-8.132Z"/><path fill="#fff" d="M39.91,33.62a.958.958,0,0,1-.22-.6.91.91,0,1,1,1.82,0,.947.947,0,0,1-.13.47,1,1,0,0,1-.4.36.929.929,0,0,1-1.07-.23Z"/><path fill="#fff" d="M39.91,33.62a.958.958,0,0,1-.22-.6.91.91,0,1,1,1.82,0,.947.947,0,0,1-.13.47,1,1,0,0,1-.4.36.929.929,0,0,1-1.07-.23Z"/><path fill="#593a4f" d="M28.39,25.283a.52.52,0,0,1-.49-.533,1,1,0,0,1,.684-.911,3.446,3.446,0,0,1,3.239.548.5.5,0,1,1-.686.726,2.322,2.322,0,0,0-1.621-.46,1.1,1.1,0,0,0-.637.163A.463.463,0,0,1,28.39,25.283Z"/><path fill="#f77261" d="M25.5,35.059a2.58,2.58,0,0,1-1.892-.661.5.5,0,1,1,.77-.636,1.678,1.678,0,0,0,1.121.3h0a2.359,2.359,0,0,0,1.754-.626.5.5,0,1,1,.772.634,3.263,3.263,0,0,1-2.525.992Z"/><path fill="#f77261" d="M25.18,31.715a1.354,1.354,0,0,1-.924-.373,1.006,1.006,0,0,1-.343-1.011.5.5,0,0,1,.973.217.392.392,0,0,0,.159.136.308.308,0,0,0,.245.01.5.5,0,1,1,.361.932A1.29,1.29,0,0,1,25.18,31.715Z"/><path fill="#edeae8" d="M32.62,23.27a.505.505,0,0,1-.242-.063c-1.647-.912-4.849-.9-5.374-.345a.5.5,0,1,1-.728-.685c1.023-1.088,4.8-.835,6.586.155a.5.5,0,0,1-.242.938Z"/><path fill="#edeae8" d="M16.661,23.34a.5.5,0,0,1-.244-.938c1.231-.682,4.305-1.176,5.628-.473a.5.5,0,0,1-.47.883c-.908-.482-3.6-.129-4.672.465A.505.505,0,0,1,16.661,23.34Z"/><path fill="#593a4f" d="M18.22,25.293a.52.52,0,0,1-.49-.533,1,1,0,0,1,.684-.912,3.439,3.439,0,0,1,3.229.548.5.5,0,1,1-.686.727,2.421,2.421,0,0,0-1.616-.46,1.1,1.1,0,0,0-.632.162A.464.464,0,0,1,18.22,25.293Z"/><path fill="#f77261" d="M39.69,30.15a.62.62,0,0,1-.1-.01.5.5,0,0,1-.385-.594,2.22,2.22,0,0,1,2.368-1.632.5.5,0,0,1,.437.556.491.491,0,0,1-.555.436,1.244,1.244,0,0,0-1.272.849A.5.5,0,0,1,39.69,30.15Z"/><path fill="#f77261" d="M28.379,34.84a.5.5,0,0,1-.23-.057,1.791,1.791,0,0,1-.973-2.007.5.5,0,0,1,.97.243.785.785,0,0,0,.465.877.5.5,0,0,1-.232.944Z"/><path fill="#db356c" d="M27.473,45.419a5.725,5.725,0,0,1-4.148-1.367.5.5,0,0,1,.73-.684A5.379,5.379,0,0,0,28.1,44.4c1.856-.124,3.47-.787,4.112-1.687a.5.5,0,1,1,.814.58c-.981,1.378-3.153,1.991-4.86,2.106C27.932,45.411,27.7,45.419,27.473,45.419Z"/><circle cx="28.728" cy="27.682" r="2.505" fill="#ffe8d2"/><circle cx="20.684" cy="27.682" r="2.505" fill="#ffe8d2"/><path fill="#f74670" d="M26.223,28.183a.5.5,0,0,1-.235-.059,2.548,2.548,0,0,0-2.563,0,.5.5,0,0,1-.471-.883,3.538,3.538,0,0,1,3.5,0,.5.5,0,0,1-.235.942Z"/><path fill="#593a4f" d="M31.31,25.7v.83a.937.937,0,0,1-.94.93H30.1a.928.928,0,0,1-.93-.93V25.7a.922.922,0,0,1,.93-.93h.27A.93.93,0,0,1,31.31,25.7Z"/><path fill="#593a4f" d="M21.13,25.71v.83a.935.935,0,0,1-.93.93h-.28a.935.935,0,0,1-.93-.93v-.83a.928.928,0,0,1,.93-.93h.28A.928.928,0,0,1,21.13,25.71Z"/><path fill="#f74670" d="M28.729,30.688a3.006,3.006,0,1,1,3-3A3.009,3.009,0,0,1,28.729,30.688Zm0-5.011a2.006,2.006,0,1,0,2,2.006A2.008,2.008,0,0,0,28.729,25.677Z"/><path fill="#f74670" d="M20.684,30.688a3.006,3.006,0,1,1,3-3A3.008,3.008,0,0,1,20.684,30.688Zm0-5.011a2.006,2.006,0,1,0,2,2.006A2.007,2.007,0,0,0,20.684,25.677Z"/></svg>