<svg xmlns="http://www.w3.org/2000/svg"  viewBox="0 0 64 64" width="64px" height="64px"><path fill="#ffd2c0" d="M45.63,26.1s.01,0,0-.01a16.742,16.742,0,0,0-1.062-8.708c-3.536-7.994-8.342-9.7-15.361-9.7A12.845,12.845,0,0,0,16.347,20.4a7.254,7.254,0,0,0,.173,1.36c.057.214.62,3.64.64,4.11.19,5.48,1.21,9.39,3.37,11.78a9.5,9.5,0,0,0,7.2,2.83h.07c.42,1.4.89,2.66.63,3.54a6.755,6.755,0,0,1,1.05,1.62l-.05.07a2.731,2.731,0,0,1,.81,1.06,6.728,6.728,0,0,1,.47-.65c.27-.34.97-.73,1.39-.52a10.465,10.465,0,0,0,4.92-4.4l-.01-.01a16.709,16.709,0,0,1-.97-3.59,13.822,13.822,0,0,0,4.3-5.72,3.133,3.133,0,0,0,1.32.71c2.01.45,3.71-1.44,4.17-3.46A5.185,5.185,0,0,0,45.63,26.1Z"/><path fill="#fc6c3f" d="M18.32,17.93c-.84,1.8-1.3,3.02-1.8,3.83a3.463,3.463,0,0,1-.58.74,2.164,2.164,0,0,1-3.56-1.06c-.33-1.88.06-3.28,1.98-7.81,2.12-5.01,9.58-12.55,19-10.88,9.69.56,13.76,10.51,14,14.25.32,4.7-.36,6.94-1.73,9.09a2.842,2.842,0,0,0-2.02-1.78,3.333,3.333,0,0,0-1.92.24,3.4,3.4,0,0,0-.83.5c-1.33.53-3.17.83-3.92-.43-.54-.89.15-3.06,1.5-5.84-1.43,2.31-3.44,4.89-5.96,3.82-1.58-.68-.95-3.62-.72-4.16-2.54,4.78-5.68,4.92-7.05,4.06-1.05-.66-.48-3.32-.12-4.06-.93,1.77-2.44,4.1-5.15,4.06C17.09,22.46,17.92,19,18.32,17.93Z"/><path fill="#f9b295" d="M36.84,40.7a15.705,15.705,0,0,1-.8-3.1,8.973,8.973,0,0,1-.81.56,19.973,19.973,0,0,1-6.62,2.24c-.33.04-.62.07-.81.08a12.733,12.733,0,0,1,.7,2.9,1.936,1.936,0,0,1-.28,1c-.147.256-.7.928-.7.928s.134,2.027,3.056,2.354,6.545-1.959,7.462-3.875Z"/><path fill="#d6d6ea" d="M48.64,54.43c-.89-4.02-5.09-7.82-9.39-10.01a20.431,20.431,0,0,0-1.88-3.84s-.12.24-.35.62a10.465,10.465,0,0,1-4.92,4.4c-.42-.21-1.12.18-1.39.52a6.728,6.728,0,0,0-.47.65,2.731,2.731,0,0,0-.81-1.06l-.063-.3a4.916,4.916,0,0,0-.937-1.393,4.789,4.789,0,0,0-1-.8,7.194,7.194,0,0,0-1.48,2.57h-.01c-3.29,1.51-9.09,4.51-11.49,9.36-.74,1.47-.7,2.8.65,3.75,1.74,1.21,4.77,2.26,10.18,2.56.96.04,1.99.07,3.11.07,9.63,0,15.74-2.67,17.56-3.78C47.16,57.01,49,56.03,48.64,54.43Z"/><path fill="#edeae8" d="M28.59,45.6c-1.64,1.84-3.17,5.44-3.66,5.31-.46-.11.5-3.63.77-4.36.07-.23.15-.48.25-.76a7.194,7.194,0,0,1,1.48-2.57,4.789,4.789,0,0,1,1,.8,3.226,3.226,0,0,1,.92,1.36c.029.08.08.33.08.33C29.07,45.44,28.75,45.43,28.59,45.6Z"/><path fill="#edeae8" d="M39.25,44.42a23.923,23.923,0,0,1-3.76,6.24.616.616,0,0,1-1-.21,22.044,22.044,0,0,0-2.22-4.71.457.457,0,0,0-.17-.14,10.465,10.465,0,0,0,4.92-4.4c.23-.38.35-.62.35-.62A20.431,20.431,0,0,1,39.25,44.42Z"/><circle cx="32.114" cy="29.56" r=".29" fill="#f9b295"/><circle cx="30.87" cy="31.52" r=".29" fill="#f9b295"/><circle cx="33.88" cy="27.52" r=".29" fill="#f9b295"/><path fill="#f9b295" d="M33.88,31.1a.29.29,0,1,1-.29-.29A.293.293,0,0,1,33.88,31.1Z"/><circle cx="30.05" cy="28.98" r=".29" fill="#f9b295"/><path fill="#f9b295" d="M23.07,28.73a.29.29,0,0,1-.29.29.29.29,0,1,1,0-.58A.29.29,0,0,1,23.07,28.73Z"/><circle cx="21.96" cy="31.27" r=".29" fill="#f9b295"/><path fill="#f9b295" d="M20.71,29.02a.29.29,0,1,1-.29.29A.293.293,0,0,1,20.71,29.02Z"/><path fill="#f9b295" d="M19.53,30.85a.3.3,0,1,1-.59,0,.3.3,0,0,1,.59,0Z"/><circle cx="18.75" cy="27.67" r=".29" fill="#f9b295"/><path fill="#2ab7b7" d="M32.484,24.62v.83a.935.935,0,0,1-.93.93h-.28a.935.935,0,0,1-.93-.93v-.83a.928.928,0,0,1,.93-.93h.28A.928.928,0,0,1,32.484,24.62Z"/><path fill="#2ab7b7" d="M21.3,24.63v.83a.935.935,0,0,1-.93.93h-.28a.935.935,0,0,1-.93-.93v-.83a.928.928,0,0,1,.93-.93h.28A.928.928,0,0,1,21.3,24.63Z"/><path fill="#f77261" d="M25.568,34.539a1.771,1.771,0,0,1-1.548-.715.5.5,0,1,1,.848-.529.856.856,0,0,0,.7.244h0a1.364,1.364,0,0,0,1.164-.57.5.5,0,0,1,.853.523,2.355,2.355,0,0,1-2.014,1.047Z"/><path fill="#f77261" d="M25.354,30.635a1.354,1.354,0,0,1-.924-.373,1.006,1.006,0,0,1-.343-1.011.5.5,0,0,1,.973.217.392.392,0,0,0,.159.136.3.3,0,0,0,.244.01.5.5,0,1,1,.361.932A1.306,1.306,0,0,1,25.354,30.635Z"/><path fill="#f77261" d="M41.726,28.812a.488.488,0,0,1-.107-.012.5.5,0,0,1-.382-.6,2.185,2.185,0,0,1,2.346-1.587.5.5,0,1,1-.123.992,1.2,1.2,0,0,0-1.246.808A.5.5,0,0,1,41.726,28.812Z"/><path fill="#fff" d="M29.55,51.26a.7.7,0,1,1-.69.69A.691.691,0,0,1,29.55,51.26Z"/><path fill="#fff" d="M28.5,57.13a.7.7,0,1,1-.7-.7A.7.7,0,0,1,28.5,57.13Z"/><path fill="#7f3c3c" d="M29.573,24.2a.521.521,0,0,1-.49-.533,1,1,0,0,1,.685-.912A3.442,3.442,0,0,1,33,23.307a.5.5,0,1,1-.686.726,2.4,2.4,0,0,0-1.617-.46,1.1,1.1,0,0,0-.631.162A.465.465,0,0,1,29.573,24.2Z"/><path fill="#7f3c3c" d="M18.394,24.213a.52.52,0,0,1-.49-.533,1,1,0,0,1,.684-.912,3.439,3.439,0,0,1,3.229.548.5.5,0,0,1-.687.727,2.4,2.4,0,0,0-1.615-.46,1.1,1.1,0,0,0-.632.162A.465.465,0,0,1,18.394,24.213Z"/></svg>