<svg xmlns="http://www.w3.org/2000/svg"  viewBox="0 0 64 64" width="64px" height="64px"><path fill="#fff1b8" d="M47.84,53.92c.33,1.47-1.36,2.36-2.46,3.04-1.67,1.02-9.42,3.46-16.07,3.46-6.78,0-10.29-1.11-12.16-2.41-1.24-.87-1.27-2.08-.6-3.43a16.564,16.564,0,0,1,6.82-6.68v.01c2.26,1.94,10.17,2.77,15.15,1.9,2.76-.48,4.61-1.48,4.09-3.1A12.518,12.518,0,0,1,47.84,53.92Z"/><path fill="#f94926" d="M24.042,37.6l-.7,1.726c-5.43-.4-8.28-.86-11.59-3.05a6.285,6.285,0,0,1-2.79-6.06c.22-2.54,2.87-5.43,4.24-8.07.925-2.087,5.374-3.517,5.654-3.587.02,1.32.356,10.187.356,10.187C19.32,31.12,21.512,36.544,24.042,37.6Z"/><path fill="#fccaae" d="M39.76,31.61c2.05.47,3.78-1.49,4.24-3.58s.5-6.676-.875-9.03C38.68,11.375,34.1,9.063,27.813,9.063S15.005,13.012,15.625,19.281c.091.917.877,3.976.877,3.976.068.419.112.817.149,1.221.24,2.89.167,6.525,1.029,9.112a10.633,10.633,0,0,0,5.66,5.73,6.782,6.782,0,0,0,2.22.56,12.474,12.474,0,0,0,3.18-.22,10.828,10.828,0,0,1,.82,2.96c.13,1.09.02,2.08-.54,2.49-.69.51-3.07,1.31-5.65,2.79v.01c2.26,1.94,10.17,2.77,15.15,1.9,2.76-.48,4.61-1.48,4.09-3.1-.43-.31-.87-.61-1.33-.88a18.237,18.237,0,0,0-2.32-1.22c-1.19-.69-1.86-2.45-2.24-4.23-.09-.45-.17-.91-.23-1.35a27.228,27.228,0,0,1-.26-3.55,8.147,8.147,0,0,0,2.19-4.61A3.327,3.327,0,0,0,39.76,31.61Z"/><path fill="#ff5e33" d="M53.49,29.52c-1.07,4.31-6.27,8.92-16.95,9.5l-.05.01a27.228,27.228,0,0,1-.26-3.55,8.147,8.147,0,0,0,2.19-4.61,3.327,3.327,0,0,0,1.34.74c2.05.47,3.78-1.49,4.24-3.58s-.2-4.53-2.25-4.99a3.464,3.464,0,0,0-2.79.76c-.03.03-.06.05-.09.08a3.3,3.3,0,0,0-.69.89c-2.59-.36-4.99-5.83-4.99-5.83a4.146,4.146,0,0,1-4.05,3.25,3.166,3.166,0,0,1-3.17-2.94,4.1,4.1,0,0,1-3.59,3.05,2.91,2.91,0,0,1-3.13-2.68,4.485,4.485,0,0,1-2.78,3.25,4.423,4.423,0,0,1-1.29.19,2.354,2.354,0,0,1-1.98-.91v-.01a5.9,5.9,0,0,1-.66-4.19c.66-5.49,5.45-13.6,15-14.38,9.48-.78,14.03,3.31,17.8,9.12C47.45,15.94,55.36,21.96,53.49,29.52Z"/><path fill="#ffab8d" d="M42.61,46.71a19.262,19.262,0,0,0-3.65-2.1c-1.19-.69-1.86-2.45-2.24-4.23-.09-.45-.17-.91-.23-1.35a27.228,27.228,0,0,1-.26-3.55,5.876,5.876,0,0,1-.64.58,19.32,19.32,0,0,1-6.85,3.6,10.828,10.828,0,0,1,.82,2.96c.13,1.09.02,2.08-.54,2.49-.69.51-3.07,1.31-5.65,2.79v.01C26.88,50.93,44.08,51.25,42.61,46.71Z"/><path fill="#f94926" d="M38.2,37.35a13.332,13.332,0,0,1-1.87.18c-.08-.93-.09-1.7-.1-2.05a8.147,8.147,0,0,0,2.19-4.61,3.327,3.327,0,0,0,1.34.74c2.05.47,3.78-1.49,4.24-3.58s-.2-4.53-2.25-4.99a3.464,3.464,0,0,0-2.79.76,3.173,3.173,0,0,0-.78.97c-1.44-.2-2.9-1.935-3.733-3.532-.306-.587.533-1.518,2.153.212,1.5,1.6,3.32-.9,5.89-.36,3.54.75,4.54,4.34,4.62,5.5C47.54,32.63,43.99,36.01,38.2,37.35Z"/><circle cx="29.91" cy="26.58" r="4.176" fill="#ffe8d2"/><circle cx="18.479" cy="26.58" r="4.176" fill="#ffe8d2"/><path fill="#f4a790" d="M17.06,30.51a4.176,4.176,0,0,1-2.76-3.93,4.22,4.22,0,0,1,2.17-3.68C16.81,25.02,16.76,27.91,17.06,30.51Z"/><rect width="1.97" height="2.78" x="29.69" y="23.78" fill="#48ccb2" rx=".78" ry=".78"/><path fill="#48ccb2" d="M21.19,24.59v1.22a.773.773,0,0,1-.78.77h-.42a.773.773,0,0,1-.78-.77V24.59a.781.781,0,0,1,.78-.78h.42A.781.781,0,0,1,21.19,24.59Z"/><path fill="#fff1b8" d="M38.52,50.31a.5.5,0,0,1-.474-.34,3.3,3.3,0,0,1,.495-2.242,4.83,4.83,0,0,1,2.576-2.373.5.5,0,0,1,.682.465.5.5,0,0,1-.285.451.481.481,0,0,1-.116.045,3.821,3.821,0,0,0-1.982,1.894,2.376,2.376,0,0,0-.422,1.44.5.5,0,0,1-.474.66Z"/><path fill="#562b48" d="M30.231,43.139c-.231,0-.465-.006-.7-.02a.5.5,0,0,1,.056-1,9.686,9.686,0,0,0,6.8-2.116.5.5,0,1,1,.663.749A10.294,10.294,0,0,1,30.231,43.139Z"/><path fill="#f77261" d="M26.328,31.977a2.092,2.092,0,0,1-1.585.645,1.33,1.33,0,0,1-1.007-.427.5.5,0,0,0-.792.61,2.3,2.3,0,0,0,1.762.817l.114,0a3.042,3.042,0,0,0,2.253-.98.5.5,0,1,0-.745-.667Z"/><path fill="#f77261" d="M23.764,30.553a1.15,1.15,0,0,0,.486-.109.5.5,0,1,0-.42-.907.141.141,0,0,1-.139,0,.367.367,0,0,1-.159-.184.5.5,0,0,0-.975-.216A1.162,1.162,0,0,0,23,30.264,1.187,1.187,0,0,0,23.764,30.553Z"/><path fill="#f77261" d="M39.646,28.059a.533.533,0,0,0,.1.011.5.5,0,0,0,.489-.4,1.239,1.239,0,0,1,1.272-.847.5.5,0,0,0,.118-.994,2.221,2.221,0,0,0-2.368,1.633A.5.5,0,0,0,39.646,28.059Z"/><path fill="#562b48" d="M20.919,24.25a.5.5,0,0,1-.311-.109,1.714,1.714,0,0,0-2.147,0,.5.5,0,0,1-.625-.782,2.722,2.722,0,0,1,3.4,0,.5.5,0,0,1-.313.891Z"/><path fill="#562b48" d="M31.609,24.28a.5.5,0,0,1-.311-.11,1.727,1.727,0,0,0-2.158,0,.5.5,0,0,1-.622-.783,2.733,2.733,0,0,1,3.4,0,.5.5,0,0,1-.313.891Z"/><path fill="#fff" d="M38.648,24.851a.5.5,0,0,0-.645-.29l-3.487,1.321a4.652,4.652,0,0,0-9.231.2h-2.18a4.676,4.676,0,1,0,0,1h2.18a4.651,4.651,0,0,0,9.265-.141L38.357,25.5A.5.5,0,0,0,38.648,24.851ZM18.479,30.256a3.676,3.676,0,1,1,3.676-3.676A3.68,3.68,0,0,1,18.479,30.256Zm11.431,0a3.676,3.676,0,1,1,3.676-3.676A3.68,3.68,0,0,1,29.91,30.256Z"/></svg>