<svg xmlns="http://www.w3.org/2000/svg"  viewBox="0 0 64 64" width="64px" height="64px"><path fill="#7f3c3c" d="M33.32,38.875c-.45.09-2.365.217-2.365.217a2.153,2.153,0,0,1,.192.75v.01c0,3.34-7.26,4.3-9.24,3.54-5.27-2.01-10.27,1.84-9.46,6.67.643,3.881,4.388,4.936,6.692,4.755a5.251,5.251,0,0,0,2.168-.235c1.53-3.09,4.277-4.8,6.787-6.24a23.314,23.314,0,0,0,5.932-3.5C35.219,42.844,33.32,38.875,33.32,38.875Z"/><path fill="#ffc9b6" d="M47.747,25.472v.01a5.628,5.628,0,0,1,.01,2.55c-.38,1.71-1.51,3.32-3.07,3.59a16.656,16.656,0,0,1-.83-4.61c-.08-1.06-.11-2.29-.1-3.72v-.17a3.666,3.666,0,0,1,1.75-.08A3.057,3.057,0,0,1,47.747,25.472Z"/><path fill="#7f3c3c" d="M21.7,22.073c.18.91,1.692,8.986.849,13.989a6.554,6.554,0,0,1-2.29,4.44,2.827,2.827,0,0,1-4.44-2.19c0-2.5,2.65-3.12,2.82-6.31a80.421,80.421,0,0,0,.09-8.95,1.477,1.477,0,0,0,.21.01A6.228,6.228,0,0,0,21.7,22.073Z"/><path fill="#ffc9b6" d="M42.717,44.612c-2.6-1.52-2.71-8.16-2.71-9.1a26.682,26.682,0,0,0,1.868-2.3c-.346-2.675-.46-10.214-.46-11.872,0-5.259-4.776-9.521-10.667-9.521s-10.667,4.262-10.667,9.521c0,.533.15,1.565.146,1.566.45,3.11.37,7.38.98,10.49a6.356,6.356,0,0,0,1.34,2.67,10.356,10.356,0,0,0,6.76,3.82,10.366,10.366,0,0,0,1.84-.04,10.433,10.433,0,0,0,1.32-.18s2.267,3.423.43,5.34a3.308,3.308,0,0,1-1.75.93v.01c-1.65,3.52,7.83,4.5,11.63-1.3Z"/><path fill="#f7b09a" d="M42.72,44.59c-2.6-1.52-2.71-8.16-2.71-9.1-.21.18-.6.576-.782.716A18.3,18.3,0,0,1,36.29,38.06a21.072,21.072,0,0,1-3.82,1.6c0,.01.49,1.35.49,1.36.43,1.51.6,3.289-.136,3.933a4.933,4.933,0,0,1-1.4.837c-.08.04-.889.409-.889.409-1.35,2.86,5.539,4.761,9.779,1.921a10.207,10.207,0,0,0,3.159-3.082C43.449,45.028,42.74,44.6,42.72,44.59Z"/><path fill="#f96e58" d="M49.14,56.96a23.027,23.027,0,0,1-6.06,2.29c-.11.03-.77.19-.98.23a42.018,42.018,0,0,1-9.03.94c-4.98,0-8.19-.6-10.29-1.43-.15-.06-1.61-.8-1.87-.98-1.24-.87-1.27-2.08-.6-3.43a14.106,14.106,0,0,1,3.95-4.73l.01-.01a20.069,20.069,0,0,1,2.56-1.75c.08-.05.15-.09.22-.13,1.1-.64,2.17-1.16,3.09-1.58.12-.06.87-.4,1.04-.48l-.03.04c-1.65,3.52,7.83,4.5,11.63-1.3.1.04.91.43,1,.48a19.046,19.046,0,0,1,3.69,2.44c.28.23.543.475.86.78a11.163,11.163,0,0,1,3.27,5.58C51.93,55.39,50.24,56.28,49.14,56.96Z"/><path fill="#ffd2c0" d="M26.533,48.264c-1.77,1.31-3.6,4.778-4.206,10.528a8.08,8.08,0,0,1-1.42-.78c-1.24-.87-1.27-2.08-.6-3.43A14.455,14.455,0,0,1,26.533,48.264Z"/><path fill="#ffd2c0" d="M49.137,56.962a23.659,23.659,0,0,1-6.41,2.38l-.01-.21c-.26-1.44,1.113-10.567,5.373-11.017A11.293,11.293,0,0,1,51.6,53.922C51.927,55.392,50.237,56.282,49.137,56.962Z"/><path fill="#f77261" d="M43.86,27.49a.5.5,0,0,1-.384-.82,2.312,2.312,0,0,1,1.913-.857.5.5,0,0,1,.438.555.5.5,0,0,1-.556.439,1.36,1.36,0,0,0-1.026.5A.5.5,0,0,1,43.86,27.49Z"/><path fill="#934747" d="M20.227,22.9a4.324,4.324,0,0,1-1.5.15c-2.019-.13-2.79-2.1-2.43-5.1.66-5.49,4.25-14.33,16.71-14.33,7.2,0,12.32,3.46,14.42,9.55,1.01,2.95,1.91,8.7.32,12.3a3.057,3.057,0,0,0-2.24-2.43,3.666,3.666,0,0,0-1.75.08c0,.06.02,2.83.1,3.89a16.656,16.656,0,0,0,.83,4.61c.88,2.4,2.23,2.7,3.21,4.44,1.44,2.56-1.48,4.79-4.34,3.02-1.16-.72-1.97-2.56-2.51-4.78a39.975,39.975,0,0,1-.95-8.68,4.08,4.08,0,0,0-1.55-3.54,9.292,9.292,0,0,1-2.79-2.75c-.62,2.19-1.42,2.87-3.17,2.84a2.778,2.778,0,0,1-2.86-2.92,4.1,4.1,0,0,1-3.59,3.05,3.35,3.35,0,0,1-3.59-2.03A2.98,2.98,0,0,1,20.227,22.9Z"/><path fill="#7f3c3c" d="M45.5,23.033a3.666,3.666,0,0,0-1.75.08c.02-1.91.281-6.932-1.406-10.276A12.217,12.217,0,0,1,45.5,23.033Z"/><path fill="#f77261" d="M28.579,33.6l-.113,0a2.3,2.3,0,0,1-1.763-.817.5.5,0,0,1,.793-.61A1.327,1.327,0,0,0,28.5,32.6a2.1,2.1,0,0,0,1.584-.645.5.5,0,0,1,.746.666A3.041,3.041,0,0,1,28.579,33.6Z"/><path fill="#f77261" d="M27.523,30.533a1.189,1.189,0,0,1-.764-.288,1.167,1.167,0,0,1-.443-1.133.5.5,0,0,1,.976.216.367.367,0,0,0,.159.184.139.139,0,0,0,.138,0,.5.5,0,1,1,.422.906A1.148,1.148,0,0,1,27.523,30.533Z"/><rect width="1.97" height="2.78" x="33.447" y="23.782" fill="#cc685a" rx=".78" ry=".78"/><path fill="#cc685a" d="M22.967,25.812v-1.22a.781.781,0,0,1,.78-.78h.42a.781.781,0,0,1,.78.78v1.22a.773.773,0,0,1-.78.77h-.42A.773.773,0,0,1,22.967,25.812Z"/><path fill="#7f3c3c" d="M24.68,24.23a.505.505,0,0,1-.313-.109,1.719,1.719,0,0,0-2.143,0,.5.5,0,0,1-.627-.78,2.718,2.718,0,0,1,3.395,0,.5.5,0,0,1-.312.891Z"/><path fill="#7f3c3c" d="M35.37,24.26a.5.5,0,0,1-.312-.11,1.735,1.735,0,0,0-2.159,0,.5.5,0,0,1-.621-.783,2.733,2.733,0,0,1,3.405,0,.5.5,0,0,1-.313.891Z"/><path fill="#fff" d="M26.83,48.09a.351.351,0,0,1-.05.08c-2.46,2.6-3.81,6.21-3.99,10.76a.127.127,0,0,1-.01.06c-.15-.06-.31-.13-.45-.19v-.01c-.18-.08-.36-.16-.52-.25a18.324,18.324,0,0,1,2.45-8.69l.01-.01a13.332,13.332,0,0,1,1.79-2.36.5.5,0,0,1,.71-.01A.464.464,0,0,1,26.83,48.09Z"/><path fill="#fff" d="M48.26,48.28a.567.567,0,0,1-.13.08c-4.68,1.95-5.22,8.5-5.05,10.89-.11.03-.23.06-.35.09-.21.05-.42.1-.63.14-.22-2.43.31-9.56,5.37-11.92a2.394,2.394,0,0,1,.28-.13.509.509,0,0,1,.65.27A.522.522,0,0,1,48.26,48.28Z"/><path fill="#fff" d="M34.718,49.082a5.534,5.534,0,0,1-3.163-.864,2.2,2.2,0,0,1-.921-2.8.5.5,0,1,1,.908.42,1.275,1.275,0,0,0,.59,1.564c1.6,1.128,5.812,1.284,10.3-3.116a.5.5,0,0,1,.7.714C40.013,48.055,37,49.081,34.718,49.082Z"/></svg>