<svg fill="#000000" xmlns="http://www.w3.org/2000/svg"  viewBox="0 0 50 50" width="50px" height="50px"><path d="M 24.984375 1.9863281 A 1.0001 1.0001 0 0 0 24 3 L 24 9.8320312 L 19.916016 5.9433594 A 1.0001 1.0001 0 0 0 19.197266 5.6425781 A 1.0001 1.0001 0 0 0 18.537109 7.390625 L 24 12.595703 L 24 13.570312 L 20.273438 17.121094 L 15.138672 18.433594 L 14.183594 17.908203 L 12.183594 10.798828 A 1.0001 1.0001 0 0 0 11.228516 10.054688 A 1.0001 1.0001 0 0 0 10.257812 11.339844 L 11.724609 16.556641 L 5.4824219 13.123047 A 1.0001 1.0001 0 0 0 5.0058594 12.994141 A 1.0001 1.0001 0 0 0 4.5195312 14.876953 L 10.632812 18.240234 L 5.1992188 19.626953 A 1.0001 1.0001 0 1 0 5.6933594 21.564453 L 13.199219 19.650391 L 14.152344 20.175781 L 15.509766 25 L 14.152344 29.824219 L 13.197266 30.349609 L 5.6953125 28.433594 A 1.0001 1.0001 0 0 0 5.3964844 28.400391 A 1.0001 1.0001 0 0 0 5.1992188 30.371094 L 10.632812 31.759766 L 4.5195312 35.123047 A 1.000418 1.000418 0 0 0 5.4824219 36.876953 L 11.724609 33.443359 L 10.257812 38.660156 A 1.0001668 1.0001668 0 0 0 12.183594 39.201172 L 14.183594 32.091797 L 15.138672 31.566406 L 20.273438 32.878906 L 24 36.429688 L 24 37.404297 L 18.537109 42.609375 A 1.0001 1.0001 0 1 0 19.916016 44.056641 L 24 40.167969 L 24 47 A 1.0001 1.0001 0 1 0 26 47 L 26 40.167969 L 30.083984 44.056641 A 1.0001 1.0001 0 1 0 31.462891 42.609375 L 26 37.404297 L 26 36.429688 L 29.726562 32.878906 L 34.863281 31.566406 L 35.818359 32.09375 L 37.816406 39.201172 A 1.0001668 1.0001668 0 0 0 39.742188 38.660156 L 38.275391 33.443359 L 44.517578 36.876953 A 1.0008884 1.0008884 0 1 0 45.482422 35.123047 L 39.367188 31.759766 L 44.800781 30.371094 A 1.0001 1.0001 0 0 0 44.574219 28.400391 A 1.0001 1.0001 0 0 0 44.306641 28.433594 L 36.802734 30.349609 L 35.849609 29.824219 L 34.492188 25 L 35.849609 20.175781 L 36.804688 19.650391 L 44.306641 21.564453 A 1.0001 1.0001 0 1 0 44.800781 19.626953 L 39.367188 18.240234 L 45.482422 14.876953 A 1.0001 1.0001 0 0 0 44.964844 12.994141 A 1.0001 1.0001 0 0 0 44.517578 13.123047 L 38.275391 16.556641 L 39.742188 11.339844 A 1.0001 1.0001 0 0 0 38.742188 10.056641 A 1.0001 1.0001 0 0 0 37.816406 10.798828 L 35.818359 17.908203 L 34.863281 18.433594 L 29.726562 17.121094 L 26 13.570312 L 26 12.595703 L 31.462891 7.390625 A 1.0001 1.0001 0 0 0 30.777344 5.65625 A 1.0001 1.0001 0 0 0 30.083984 5.9433594 L 26 9.8320312 L 26 3 A 1.0001 1.0001 0 0 0 24.984375 1.9863281 z M 24 16.333984 L 24 23.306641 L 17.699219 19.841797 L 21.021484 18.994141 A 1.0001 1.0001 0 0 0 21.462891 18.75 L 24 16.333984 z M 26 16.333984 L 28.537109 18.75 A 1.0001 1.0001 0 0 0 28.980469 18.994141 L 32.300781 19.841797 L 26 23.306641 L 26 16.333984 z M 16.609375 21.527344 L 22.923828 25 L 16.609375 28.472656 L 17.509766 25.271484 A 1.0001 1.0001 0 0 0 17.509766 24.728516 L 16.609375 21.527344 z M 33.390625 21.527344 L 32.490234 24.728516 A 1.0001 1.0001 0 0 0 32.490234 25.271484 L 33.390625 28.472656 L 27.076172 25 L 33.390625 21.527344 z M 24 26.693359 L 24 33.666016 L 21.462891 31.25 A 1.0001 1.0001 0 0 0 21.021484 31.005859 L 17.699219 30.158203 L 24 26.693359 z M 26 26.693359 L 32.300781 30.158203 L 28.978516 31.005859 A 1.0001 1.0001 0 0 0 28.537109 31.25 L 26 33.666016 L 26 26.693359 z"/></svg>