<svg xmlns="http://www.w3.org/2000/svg"  viewBox="0 0 64 64" width="64px" height="64px"><path fill="#593b51" d="M47.51,54.43c-.86-3.88-4.03-7.19-8.11-9.39-.14-.08-.29-.16-.43-.23-.38-.2-.77-.38-1.16-.56-1.18,2.04-5.63,4.57-8.74,4.66-2.53.07-5.18-.95-5.01-2.72-.45.21-.94.43-1.45.69-3.18,1.58-7.22,4.09-9.29,8.27-.74,1.47-.7,2.8.65,3.75,2.05,1.42,5.88,2.63,13.29,2.63,9.63,0,15.74-2.67,17.56-3.78C46.03,57.01,47.87,56.03,47.51,54.43Z"/><path fill="#ffb192" d="M43.83,28.13a4.5,4.5,0,0,1-2.96,3.46,2.744,2.744,0,0,1-1.21,0,3.133,3.133,0,0,1-1.32-.71,13.226,13.226,0,0,1-3.55,5.22c.25,1.89,1.2,6.92,3.02,8.15.39.18.78.36,1.16.56.14.07.29.15.43.23a13.906,13.906,0,0,1-9.95,5.54c-3.72.15-6.97-1.06-6.83-3.67l-.01-.03c.51-.26,1-.48,1.45-.69a22.633,22.633,0,0,0,2.88-1.39c.93-.68.23-2.65-.3-4.42-.55.064-.82.1-1.02.1a9.5,9.5,0,0,1-7.2-2.83c-2.11-2.33-3.04-6.11-3.35-11.37-.01-.13-.01-.27-.02-.41a18.309,18.309,0,0,0-.69-3.58l-.01-.01c-.77-.59-.79-2.75-.79-3.28,0-6.47,5.43-11.12,13.06-11.12,7.57,0,14.771,2.953,15.19,15.41a2.747,2.747,0,0,1,1.36,1.03A4.88,4.88,0,0,1,43.83,28.13Z"/><path fill="#593b51" d="M46.31,18.4c-.03,2.61-2.06,5.36-4.5,4.89a1.568,1.568,0,0,1-.29-.08,1.837,1.837,0,0,1-.25.3c-1.107,1.181-4.11,1.75-5.22-.03a3.647,3.647,0,0,1-.39-2.43v-.02c-1.89,1.15-3.27,1.34-4.27,1.04a3.756,3.756,0,0,1-1.19-.7,5.678,5.678,0,0,1-1.43-3.09v-.01c-.02-.12-.03-.19-.03-.19a9.764,9.764,0,0,1-1.36,3.42c-2.75,4.1-7.79,2.46-7.3-1.44-.26,2.98-5.64,4.44-5.08.81a4.992,4.992,0,0,1-.65,1.41,2.535,2.535,0,0,1-4.76-1.21c0-2.33,1.13-2.6,2.42-6.32s2.53-6.7,4.68-8.81a11.438,11.438,0,0,1,9.83-3.29A12.66,12.66,0,0,1,40.73,9.29c1.2,2.46,3.83,3.05,5.36,7.63A4.32,4.32,0,0,1,46.31,18.4Z"/><path fill="#fc8d70" d="M38.97,44.81c-.38-.2-.77-.38-1.16-.56-1.82-1.23-2.77-6.26-3.02-8.15a14.677,14.677,0,0,1-1.446,1.244,18.17,18.17,0,0,1-6.7,3.026c.53,1.77,1.23,3.75.3,4.43a22.633,22.633,0,0,1-2.88,1.39c-.45.21-.94.43-1.45.69,0,0,1.484,3.712,6.609,3.4,3.72-.15,8.381-2.441,10.181-5.241C39.26,44.96,39.11,44.88,38.97,44.81Z"/><path fill="#fff" d="M38.97,44.81c.14.07.29.15.43.23a13.906,13.906,0,0,1-9.95,5.54c-3.72.15-6.97-1.06-6.83-3.67l-.01-.03c.51-.26,1-.48,1.45-.69-.17,1.77,2.48,2.79,5.01,2.72,3.11-.09,7.56-2.62,8.74-4.66C38.2,44.43,38.59,44.61,38.97,44.81Z"/><path fill="#593b51" d="M30.45,24.79v.66a.93.93,0,0,1-1.86,0v-.66a.917.917,0,0,1,.87-.93.375.375,0,0,1,.11.01.433.433,0,0,1,.05.01,2.358,2.358,0,0,1,.46.17A.887.887,0,0,1,30.45,24.79Z"/><path fill="#4f2f43" d="M29.96,23.97a.834.834,0,0,1,.12.08,2.358,2.358,0,0,0-.46-.17,1,1,0,0,1,.24.04C29.89,23.94,29.93,23.95,29.96,23.97Z"/><path fill="#593b51" d="M19.32,24.79v.66a.93.93,0,1,1-1.86,0v-.66a.95.95,0,0,1,.6-.88.5.5,0,0,1,.13-.04,1.231,1.231,0,0,1,.2-.02A.93.93,0,0,1,19.32,24.79Z"/><path fill="#4f2f43" d="M27.291,24.9a.5.5,0,0,1-.325-.879,3.262,3.262,0,0,1,2.71-.638l.037.008.036.008a2.851,2.851,0,0,1,.554.205,1.664,1.664,0,0,1,.287.161.5.5,0,1,1-.581.814.691.691,0,0,0-.128-.069,2.039,2.039,0,0,0-.378-.142H29.5l-.048-.01a2.263,2.263,0,0,0-1.836.428A.506.506,0,0,1,27.291,24.9Z"/><path fill="#4f2f43" d="M16.107,24.9a.5.5,0,0,1-.325-.879,3.222,3.222,0,0,1,2.717-.636,3.082,3.082,0,0,1,.868.352.5.5,0,1,1-.5.866,2.079,2.079,0,0,0-.6-.244,2.208,2.208,0,0,0-1.838.42A.5.5,0,0,1,16.107,24.9Z"/><path fill="#f77261" d="M23.3,33.979a2.579,2.579,0,0,1-1.892-.661.5.5,0,1,1,.772-.636,1.669,1.669,0,0,0,1.12.3h0a2.359,2.359,0,0,0,1.754-.626.5.5,0,1,1,.772.634,3.264,3.264,0,0,1-2.525.992Z"/><path fill="#f77261" d="M22.98,30.634a1.351,1.351,0,0,1-.924-.372,1.006,1.006,0,0,1-.343-1.011.5.5,0,0,1,.973.217.386.386,0,0,0,.158.135.3.3,0,0,0,.246.011.5.5,0,0,1,.36.932A1.3,1.3,0,0,1,22.98,30.634Z"/><path fill="#4f2f43" d="M40.37,32.17a.4.4,0,0,1-.446-.394c0-.218.271-.239.424-.419.24-.282.03-.691-.081-.826-.144-.175-.292-.372-.142-.56a.581.581,0,0,1,.7-.115,1.288,1.288,0,0,1,.554,1.325.525.525,0,0,1-.013.061h0A1,1,0,0,1,40.37,32.17Z"/><path fill="#f77261" d="M39.73,27.81a.449.449,0,0,1-.1-.011.5.5,0,0,1-.387-.591,2.174,2.174,0,0,1,2.339-1.595.5.5,0,1,1-.12.993,1.2,1.2,0,0,0-1.241.806A.5.5,0,0,1,39.73,27.81Z"/><path fill="#593b51" d="M26.452,22.277a.491.491,0,0,1-.393-.186.485.485,0,0,1,.059-.679c.738-.622,4.923-1.022,5.724-.378a.5.5,0,1,1-.625.78,10.15,10.15,0,0,0-4.459.366A.527.527,0,0,1,26.452,22.277Z"/></svg>