<svg xmlns="http://www.w3.org/2000/svg"  viewBox="0 0 64 64" width="64px" height="64px"><path fill="#dfdff2" d="M28.1,41.26c-3.35,1.32-6.99,3.68-7.46,5.45-3.17,2.14-6.58,5.12-8.25,8.63-.8,1.67-.76,3.17.72,4.25,1.78,1.29,4.81,2.43,10.08,2.83.45.04.91.07,1.39.09v-.03c-.44-6.68-.08-9.62.52-12.35a26.828,26.828,0,0,1,1.35-3.73c.85-2.04,1.75-4.11,1.69-4.8C28.13,41.49,28.12,41.38,28.1,41.26Z"/><path fill="#dfdff2" d="M49.68,54.52c-.97-4.56-6.53-10.12-11.21-12.61a20.8,20.8,0,0,0-2.64-2.41c.06.27.13.53.2.75.34,1.23.3,3-.81,6.11-.33.93-.76,1.98-1.3,3.17-1.69,3.72-5.9,13.05-5.9,13.05.56-.01,1.1-.02,1.63-.04,9.32-.35,15.24-3.06,17.1-4.25C48.06,57.45,50.08,56.34,49.68,54.52Z"/><path fill="#f9f4ef" d="M23.39,49.21s-2.52-.99-2.75-1.79a1.225,1.225,0,0,1,0-.71c.47-1.77,4.11-4.13,7.46-5.45.02.12.03.23.04.34.06.69-.84,2.76-1.69,4.8a26.828,26.828,0,0,0-1.35,3.73c-.6,2.73-.96,5.67-.52,12.35v.03c-.48-.02-.94-.05-1.39-.09-.92-1.45-2.98-8.27-2.82-11.59C20.42,49.79,23.39,49.21,23.39,49.21Z"/><path fill="#934747" d="M46.439,19.574c-.99-2.2-2.6-6.89-4.44-9.68-3.33-5.08-9.43-6.46-14.22-5.55-6.1-.91-12.34,5.12-13.78,13.86-.75,4.61-1.37,6.34-2.68,8.39a8.763,8.763,0,0,0,.03,8.5c2.039,3.088,7.424,4.117,10.993,4.4A101.94,101.94,0,0,0,35.71,38.9c6.5-.673,12.041-3.139,13.639-4.828C54.769,28.344,47.709,22.384,46.439,19.574Z"/><path fill="#f9f4ef" d="M38.47,41.91a9.6,9.6,0,0,1,2.15,3.98c.02.93-.69,1.57-1.87,2.07-1.35.57-3.38,1.2-3.38,1.2s2.37.17,2.19,1.18c-.6,3.23-6.43,10.32-7.91,12.2-.53.02-1.07.03-1.63.04,0,0,4.21-9.33,5.9-13.05.54-1.19.97-2.24,1.3-3.17,1.11-3.11,1.15-4.88.81-6.11-.07-.22-.14-.48-.2-.75A20.8,20.8,0,0,1,38.47,41.91Z"/><path fill="#ffb497" d="M35.83,39.5c-.06-.2-.1-.41-.14-.61a12.312,12.312,0,0,1-.24-1.83l-.01-.01c2.37-3.24,2.87-8.59-.35-13.67-1.21-1.92-1.62-3.61-2.99-7.21-1.28-3.36-4.45-3.84-6.96-2.92a4.88,4.88,0,0,1-2.32-.24c-3.09-.43-4.61,3.13-5.38,7.65a46.086,46.086,0,0,0-.3,7.22c.24,5.18.74,7.35,2.72,9.77a6.251,6.251,0,0,0,2.3,1.76,11.081,11.081,0,0,0,5.65.69.2.2,0,0,0,.07-.01s.18.88.22,1.17c.265,1-.8,3.1-1.65,5.14,0,2.35,6.05,3.36,8.71-.06l.06.02c1.11-3.11,1.15-4.88.81-6.11C35.96,40.03,35.89,39.77,35.83,39.5Z"/><path fill="#33a5cc" d="M26.45,46.4c0,2.35,6.05,3.36,8.71-.06l.06.02c-.33.93-.76,1.98-1.3,3.17-1.69,3.72-5.9,13.05-5.9,13.05H27.6c-1.08,0-2.08-.02-3.02-.07v-.03c-.44-6.68-.08-9.62.52-12.35A26.828,26.828,0,0,1,26.45,46.4Z"/><path fill="#ff9a7b" d="M27.88,40.09a13.171,13.171,0,0,0,5.361-1.607,9.137,9.137,0,0,0,2.2-1.433s.33,2.25.39,2.45c.06.27.13.53.2.75.34,1.23.3,3-.81,6.11l-.06-.02c-2.66,3.42-8.71,2.41-8.71.06.85-2.04,1.75-4.11,1.69-4.8-.01-.11-.02-.22-.04-.34C28.06,40.97,27.88,40.09,27.88,40.09Z"/><path fill="#e0604f" d="M25.474,33.979a2.575,2.575,0,0,1-1.891-.661.5.5,0,1,1,.771-.636,1.669,1.669,0,0,0,1.12.3h0a2.354,2.354,0,0,0,1.755-.626.5.5,0,1,1,.774.634,3.268,3.268,0,0,1-2.528.992Z"/><path fill="#e0604f" d="M25.158,30.635a1.355,1.355,0,0,1-.923-.372,1.007,1.007,0,0,1-.344-1.011.5.5,0,0,1,.972.216.41.41,0,0,0,.16.136.3.3,0,0,0,.245.01.5.5,0,0,1,.361.932A1.311,1.311,0,0,1,25.158,30.635Z"/><path fill="#934747" d="M33.061,21.547a.5.5,0,0,1-.244-.064,5.491,5.491,0,0,0-4.93-.014.5.5,0,1,1-.537-.844A6.516,6.516,0,0,1,33.3,20.61a.5.5,0,0,1-.243.937Z"/><path fill="#934747" d="M22.018,21.754a.5.5,0,0,1-.243-.064,5.493,5.493,0,0,0-4.931-.014.5.5,0,0,1-.537-.844,6.516,6.516,0,0,1,5.954-.015.5.5,0,0,1-.243.937Z"/><path fill="#f9f4ef" d="M30.329,49.238a7.983,7.983,0,0,1-2.5-.383c-1.553-.517-2.443-1.454-2.443-2.572a.575.575,0,0,1,1.15,0c0,.6.622,1.169,1.666,1.517a6.951,6.951,0,0,0,7.31-1.932.583.583,0,0,1,.806-.1.546.546,0,0,1,.1.782A7.772,7.772,0,0,1,30.329,49.238Z"/><path fill="#cc6060" d="M32.1,24.62v.83a.935.935,0,0,1-.93.93h-.28a.935.935,0,0,1-.93-.93v-.83a.928.928,0,0,1,.93-.93h.28A.928.928,0,0,1,32.1,24.62Z"/><path fill="#cc6060" d="M21.156,24.63v.83a.935.935,0,0,1-.93.93h-.28a.935.935,0,0,1-.93-.93v-.83a.928.928,0,0,1,.93-.93h.28A.928.928,0,0,1,21.156,24.63Z"/><path fill="#7f3c3c" d="M29.19,24.2a.521.521,0,0,1-.489-.533,1,1,0,0,1,.684-.912,3.439,3.439,0,0,1,3.228.549.5.5,0,1,1-.685.726,2.355,2.355,0,0,0-1.616-.46,1.1,1.1,0,0,0-.631.162A.465.465,0,0,1,29.19,24.2Z"/><path fill="#7f3c3c" d="M18.075,24.213a.521.521,0,0,1-.489-.533,1,1,0,0,1,.684-.912,3.442,3.442,0,0,1,3.229.547.5.5,0,1,1-.686.729,2.425,2.425,0,0,0-1.617-.461,1.1,1.1,0,0,0-.631.162A.465.465,0,0,1,18.075,24.213Z"/></svg>