<svg xmlns="http://www.w3.org/2000/svg"  viewBox="0 0 64 64" width="64px" height="64px"><path fill="#f7a081" d="M37.5,44.375a8.279,8.279,0,0,1-5.125,4.235c-4.333.515-4.359-.5-4.516-.813,0,0-.339-2.869-.339-3.867l-.061-.6a13.207,13.207,0,0,0,7.055-2.888c.53-.4,1.02-.77,1.47-1.12C36.124,40.325,37.5,44.375,37.5,44.375Z"/><path fill="#634f5c" d="M48.11,20.39A16.7,16.7,0,0,0,43.82,8.05c-2.57-2.97-7.91-5.29-13.07-5.5-4.2-.17-9.32,1.42-12.3,4.07-2.13,1.9-4.52,6.87-4.6,9.8a3.5,3.5,0,0,0-.36.76c-.65,1.97-.91,9.76,2.3,9.76A4.044,4.044,0,0,1,17,22.62c1.48-1.27,5.07-2.08,9.11-2.23a27.6,27.6,0,0,1,9.57,1.43,26.422,26.422,0,0,1,3.82,1.6,23.591,23.591,0,0,1,2.34,1.37,13.146,13.146,0,0,1,4.2,4.47C48.35,26.11,48.66,21.79,48.11,20.39Z"/><path fill="#5b4755" d="M47.28,27.05c-.01.03-.03.06-.04.09-.04.08-.07.17-.11.25-.05.1-.09.2-.14.3a11.081,11.081,0,0,1-.6,1.06c-.1.16-.22.33-.35.51a13.146,13.146,0,0,0-4.2-4.47,23.591,23.591,0,0,0-2.34-1.37,26.422,26.422,0,0,0-3.82-1.6,27.6,27.6,0,0,0-9.57-1.43c-4.04.15-7.63.96-9.11,2.23a4.044,4.044,0,0,0-1.21,4.32,2.1,2.1,0,0,1-1.86-1.35c-1.19-2.32-.92-6.95-.44-8.41a3.5,3.5,0,0,1,.36-.76c1.63-2.75,6.96-4.93,13.57-4.92,10.6.01,19.26,5.21,20.69,8.89C48.54,21.48,48.44,24.35,47.28,27.05Z"/><path fill="#ffbf94" d="M46.04,29.26c-.14.36-.32.77-.53,1.2-.79,1.57-2.04,3.32-3.85,3.13a2.843,2.843,0,0,1-1.4-.74,6.075,6.075,0,0,0-.677-1.975c-.3-.788-1.2-.42-1.646.5-.8,1.63-2.607,2.6-4.157,3.429a5.388,5.388,0,0,1-3.24.53c-1.86-.38-6.09-1.22-9.87.1a3.257,3.257,0,0,1-2.5-.71c-.5-.48-1.154-1.568-1.3-4.374,0,0-.57-1.56-.89-2.66a6.323,6.323,0,0,1-.19-.75A4.044,4.044,0,0,1,17,22.62c1.48-1.27,5.07-2.08,9.11-2.23a27.6,27.6,0,0,1,9.57,1.43,21.619,21.619,0,0,1,6.15,2.98l.01-.01A13.146,13.146,0,0,1,46.04,29.26Z"/><path fill="#edeae8" d="M34.69,41a13.624,13.624,0,0,1-7.17,2.93c-.24.02-.48.03-.71.03a8.1,8.1,0,0,1-2.4-.35,6.532,6.532,0,0,1-3.05-1.99c-1.28-1.5-5.51-4.44-4.49-11.27a31.341,31.341,0,0,0,1.58,2.82,3.257,3.257,0,0,0,2.5.71c3.78-1.32,8.01-.48,9.87-.1a5.388,5.388,0,0,0,3.24-.53,8.377,8.377,0,0,0,3.76-3.57c.45-.92,1.61-1.05,1.81-.23a33.487,33.487,0,0,1,.63,3.4,8.6,8.6,0,0,1,.08.94c0,2.42-1.25,3.78-3.82,5.81C36.4,39.69,35.22,40.6,34.69,41Z"/><path fill="#edeae8" d="M20.835,49.565S17.88,55.79,17.94,61.25A10.611,10.611,0,0,1,15.1,59.9c-1.35-.95-1.39-2.28-.65-3.75A13.854,13.854,0,0,1,20.835,49.565Z"/><path fill="#edeae8" d="M48.64,55.43c-.56-2.51-2.4-4.93-4.76-6.94h-.01c-.391-.332-.8-.65-1.214-.958C38.1,50.3,36.87,56.418,37,61.757c.57-.106,1.123-.218,1.644-.337a26.156,26.156,0,0,0,7.31-2.67C47.16,58.01,49,57.03,48.64,55.43Z"/><path fill="#594352" d="M38.64,61.42a45.946,45.946,0,0,1-10.25,1.11c-1.12,0-2.15-.03-3.11-.07a28.463,28.463,0,0,1-7.333-1.189c-.36-.12-.7-.253-1.009-.383a22.307,22.307,0,0,1,3.3-10.977c.71-.49,1.429-.9,2.129-1.3,1.31-.76,2.56-1.36,3.57-1.82h.01c.909-.477,2.952-.625,3.43-.147a4.132,4.132,0,0,1,.86,1.127,6.728,6.728,0,0,1,.47-.65c.27-.34.97-.73,1.39-.52a13.4,13.4,0,0,1,7.15-1.18,24.089,24.089,0,0,1,4.62,3.07C40.06,50.21,38.39,59.98,38.64,61.42Z"/><path fill="#634f5c" d="M39.25,45.42a24.089,24.089,0,0,1,4.62,3.07c-3.81,1.72-5.48,11.49-5.23,12.93a45.946,45.946,0,0,1-10.25,1.11c-1.12,0-2.15-.03-3.11-.07l.01-.19c.42-5.81,3.52-12.27,4.95-14.5a6.728,6.728,0,0,1,.47-.65c.27-.34.97-.73,1.39-.52a.457.457,0,0,1,.17.14,22.044,22.044,0,0,1,2.22,4.71.616.616,0,0,0,1,.21A23.923,23.923,0,0,0,39.25,45.42Z"/><path fill="#ede6e2" d="M39.25,45.42a23.923,23.923,0,0,1-3.76,6.24.616.616,0,0,1-1-.21,22.044,22.044,0,0,0-2.22-4.71.97.97,0,0,0-.27-.177c1.92-.7,4.185-3.185,5.02-4.227a.412.412,0,0,1,.674.049A18.114,18.114,0,0,1,39.25,45.42Z"/><path fill="#ede6e2" d="M29.43,46.71c-.36-.27-.68-.28-.84-.11-1.64,1.84-3.17,5.44-3.66,5.31-.46-.11.5-3.63.77-4.36.06-.21.15-.47.25-.76a8.117,8.117,0,0,1,1.57-2.83A12.549,12.549,0,0,1,29.43,46.71Z"/><path fill="#f7a081" d="M45.81,26.308a2.232,2.232,0,0,1,.245,2.932l-.015.02c-.14.36-.32.77-.53,1.2a12.068,12.068,0,0,0-3.67-3.67c-.34-.23-.71-.46-1.12-.7-.37-.22-.78-.44-1.22-.67a26.846,26.846,0,0,0-2.79-1.24H36.7q-.5-.18-1.02-.36a27.6,27.6,0,0,0-9.57-1.43c-4.04.15-7.17.38-8.65,1.65a3.671,3.671,0,0,0-1.67,2.9,1.533,1.533,0,0,1-.99-.4,2.126,2.126,0,0,1-.564-2.258,7.228,7.228,0,0,1,2.477-2.845c1.69-1.231,4.621-1.84,9.131-2a30.389,30.389,0,0,1,10.437,1.531A26.782,26.782,0,0,1,45.81,26.308Z"/><path fill="#543f4e" d="M47.13,27.39c-.05.1-.09.2-.14.3a6.89,6.89,0,0,1-.6,1.06c-.1.16-.22.33-.35.51a13.146,13.146,0,0,0-4.2-4.47,23.591,23.591,0,0,0-2.34-1.37,26.422,26.422,0,0,0-3.82-1.6,27.6,27.6,0,0,0-9.57-1.43c-4.04.15-7.63.96-9.11,2.23a4.044,4.044,0,0,0-1.21,4.32,1.835,1.835,0,0,1-1.455-.724,1.709,1.709,0,0,1-.347-1.323A5.652,5.652,0,0,1,16.29,21c1.69-1.23,4.99-2.12,9.5-2.28a31.883,31.883,0,0,1,10.69,1.43C41.99,21.96,46.47,25.73,47.13,27.39Z"/><path fill="#edeae8" d="M41.84,24.79l-.01.01a19.76,19.76,0,0,0-1.92,2.38,9.1,9.1,0,0,1-4.23-5.36,26.422,26.422,0,0,1,3.82,1.6A23.591,23.591,0,0,1,41.84,24.79Z"/><path fill="#cac3d1" d="M41.83,24.8l.01-.01a23.591,23.591,0,0,0-2.34-1.37,26.422,26.422,0,0,0-3.82-1.6,7.17,7.17,0,0,0,1.025,2.36h.005a26.846,26.846,0,0,1,2.79,1.24c.439.229.847.449,1.216.668A14.755,14.755,0,0,1,41.83,24.8Z"/><path fill="#f77261" d="M25.828,35.4a3.138,3.138,0,0,1-2.161-.671.5.5,0,1,1,.766-.642,2.306,2.306,0,0,0,1.388.313h.025a2.744,2.744,0,0,0,1.937-.6.5.5,0,1,1,.774.635,3.8,3.8,0,0,1-2.706.964Z"/><path fill="#f77261" d="M25.5,32.039a2.242,2.242,0,0,1-1.522-.617,1.622,1.622,0,0,1-.59-1.568A.492.492,0,0,1,24,29.528a.509.509,0,0,1,.346.617.811.811,0,0,0,.333.56,1.2,1.2,0,0,0,1.255.249.5.5,0,0,1,.366.932A2.2,2.2,0,0,1,25.5,32.039Z"/><path fill="#edeae8" d="M32.7,23.92a.485.485,0,0,1-.307-.107,4.738,4.738,0,0,0-2.978-.1.5.5,0,1,1-.631-.777c.79-.642,3.483-.487,4.224.094a.5.5,0,0,1-.308.894Z"/><path fill="#edeae8" d="M17.76,24.28a.505.505,0,0,1-.317-.112.5.5,0,0,1-.071-.7c.832-1.021,3.524-1.044,4.3-.439a.5.5,0,1,1-.615.787c-.4-.31-2.459-.262-2.906.283A.5.5,0,0,1,17.76,24.28Z"/><path fill="#f77261" d="M41.731,29.81a.443.443,0,0,1-.1-.011.5.5,0,0,1-.388-.591,2.134,2.134,0,0,1,2.279-1.6.5.5,0,0,1-.12.992,1.143,1.143,0,0,0-1.18.815A.5.5,0,0,1,41.731,29.81Z"/><path fill="#f77261" d="M28.87,35.48a.5.5,0,0,1-.235-.058,1.778,1.778,0,0,1-.953-1.2,1.691,1.691,0,0,1,0-.817.5.5,0,0,1,.967.255.779.779,0,0,0,.01.335.8.8,0,0,0,.45.54.5.5,0,0,1-.235.941Z"/><path fill="#fff" d="M29.55,52.26a.7.7,0,1,1-.69.69A.691.691,0,0,1,29.55,52.26Z"/><path fill="#fff" d="M27.8,57.43a.7.7,0,0,1,.7.7.7.7,0,1,1-.7-.7Z"/><path fill="#edeae8" d="M33.57,28.01c-.18.5-.48,1.14-.63,1.5a.977.977,0,0,1-.91.47H28.57a.948.948,0,0,1-.91-.47s-.4-.88-.63-1.51a3.176,3.176,0,0,1-.13-.43c-.06-.34.23-1.12.75-1.12h4.91c1.14,0,1.2.78,1.13,1.12A4.357,4.357,0,0,1,33.57,28.01Z"/><path fill="#edeae8" d="M22.33,28c-.18.5-.48,1.14-.63,1.51a.977.977,0,0,1-.91.47H17.33a1.253,1.253,0,0,1-.53-.11.708.708,0,0,1-.38-.36,15.7,15.7,0,0,1-.76-1.94,1.116,1.116,0,0,1,.13-.63.773.773,0,0,1,.62-.49h4.91a.757.757,0,0,1,.15.01c1,.06,1.05.79.98,1.11A2.381,2.381,0,0,1,22.33,28Z"/><path fill="#593a4f" d="M32.52,26.45a.93.93,0,0,0-.92-.82h-.33a.93.93,0,0,0-.92.82.41.41,0,0,0-.01.11v.76a.928.928,0,0,0,.93.93h.33a.928.928,0,0,0,.93-.93v-.76A.41.41,0,0,0,32.52,26.45Z"/><path fill="#593a4f" d="M21.47,26.46a.941.941,0,0,0-.89-.63h-.32a.911.911,0,0,0-.87.62.815.815,0,0,0-.06.31v.77a.928.928,0,0,0,.93.93h.32a.937.937,0,0,0,.94-.93v-.77A.993.993,0,0,0,21.47,26.46Z"/><path fill="#593a4f" d="M39.846,26.684l-5.642.738a1.358,1.358,0,0,0-.3-.934,1.669,1.669,0,0,0-1.389-.538H27.65a1.112,1.112,0,0,0-.851.427,1.835,1.835,0,0,0-.4.946,7.438,7.438,0,0,0-3.438,0,1.322,1.322,0,0,0-.264-.8,1.47,1.47,0,0,0-1.134-.555,1.2,1.2,0,0,0-.246-.02H16.393a1.251,1.251,0,0,0-1.05.766,1.578,1.578,0,0,0-.173.952,14.794,14.794,0,0,0,.786,2.028,1.189,1.189,0,0,0,.632.627,1.735,1.735,0,0,0,.742.157h3.46a1.455,1.455,0,0,0,1.374-.783c.031-.077.288-.724.5-1.268a6.462,6.462,0,0,1,4.018,0c.231.6.514,1.268.514,1.268a1.415,1.415,0,0,0,1.376.788h3.46A1.455,1.455,0,0,0,33.4,29.7s.26-.659.479-1.228l6.094-.8a.5.5,0,0,0,.431-.561A.506.506,0,0,0,39.846,26.684Zm-17.889.8c-.016.095-.665,1.7-.714,1.821a.542.542,0,0,1-.453.173H17.33c-.33.018-.442-.147-.456-.178a14.443,14.443,0,0,1-.722-1.822.481.481,0,0,1,0-.335.33.33,0,0,1,.259-.2l5.03.009a.652.652,0,0,1,.464.171A.463.463,0,0,1,21.957,27.486Zm11.24,0c-.012.076-.714,1.821-.714,1.821a.542.542,0,0,1-.453.173H28.57a.519.519,0,0,1-.455-.177c-.225-.464-.707-1.736-.722-1.819a.491.491,0,0,1,.5-.534H32.56a.76.76,0,0,1,.575.17A.462.462,0,0,1,33.2,27.486Z"/></svg>