<svg xmlns="http://www.w3.org/2000/svg"  viewBox="0 0 64 64" width="64px" height="64px"><path fill="#ffbf94" d="M45.02,25.12c-.36-.39.543-4.458-1.52-9.12-3.152-7.125-9.062-8.562-16.64-8.12-6,.351-10.344,3.255-10.344,7.5a5.032,5.032,0,0,0,.114,1.085c-.7,3.38.31,6.27.42,9.41.19,5.48,1.21,9.39,3.37,11.78a7.969,7.969,0,0,0,2.42,1.8,9.211,9.211,0,0,0,2.925.985,11.853,11.853,0,0,0,2.035.035v.01a6.841,6.841,0,0,1-.39,4.35,5.9,5.9,0,0,0,1.55,1.09c2.5-.68,6.56-2.6,8.08-4.85l-.11-.08a15.867,15.867,0,0,1-.77-3.37v-.01a11.737,11.737,0,0,0,2.33-2.35,13.06,13.06,0,0,0,1.85-3.38,3.133,3.133,0,0,0,1.32.71c2.01.45,3.71-1.44,4.17-3.46A4.6,4.6,0,0,0,45.02,25.12Z"/><path fill="#bcbccc" d="M50.62,54.354c-.73-3.124-2.99-5.873-6.05-7.995,0,0-1.71-1.052-6.53.1-2.93.707-5.39,1.475-7.12,2.011a15.519,15.519,0,0,1-2.64.708,14.071,14.071,0,0,1-2.42-.637c-2.06-.657-4.66-1.658-4.92-2.042a21.115,21.115,0,0,0-7.6,8.349c-.77,1.486-.74,2.83.69,3.79,2.16,1.435,7.4,2.891,15.22,2.891.82,0,1.61-.02,2.38-.051,8.8-.374,14.38-2.739,16.15-3.77C49.05,56.961,51,55.971,50.62,54.354Z"/><path fill="#dfdff2" d="M25.86,48.68c-2.06-.65-4.66-1.64-4.92-2.02-1.19-1.7-.27-5.87,1.9-7.21a10.272,10.272,0,0,0,3.03.91,12.542,12.542,0,0,0,1.75.12,1.213,1.213,0,0,0,.18-.01v.01c.51,1.69,8.49-1.9,8.36-2.86v-.01a11.737,11.737,0,0,0,2.33-2.35,8.386,8.386,0,0,1,5.59,3.62c1.2,1.7,2.22,3.92,2.09,5.33-.22,2.18-1.427,2.27-1.427,2.27s-1.883-1-6.7.14c-2.93.7-5.39,1.46-7.12,1.99a15.683,15.683,0,0,1-2.64.7A14.209,14.209,0,0,1,25.86,48.68Z"/><path fill="#bc6e4b" d="M19.02,15.9c-.33-.96-1.22-.66-1.71.12a1.344,1.344,0,0,1-.68.44c-.57.15-1.19-.15-.82-1.92.72-3.42,3.01-10.77,15.45-10.77,8.7,0,13.34,6.13,14.16,9.65.71,3.07,1.24,8.08-.4,11.7a2.692,2.692,0,0,0-1.41-.81,3.509,3.509,0,0,0-2.75.74,4.6,4.6,0,0,0-.95,1.13c-1.61-.58-3.53-4.75-3.63-7.24-.06-1.59-1.01-3.63-2.56-3.96s-1.06,1.74-2.41,1.75c-2.5.04-1.96-2.05-3.1-2.05-1.71,0-.48,2-3.02,1.99-1.66-.01-1.35-2.06-2.45-1.98-.66.05-.86,1.32-1.46,1.77A1.377,1.377,0,0,1,19.02,15.9Z"/><path fill="#ffa07b" d="M36.19,37.82c-.01-.07-.02-.14-.03-.2a9.133,9.133,0,0,1-.79.54A17.077,17.077,0,0,1,28.5,40.4c-.27.04-.51.06-.7.07v.01a6.841,6.841,0,0,1-.39,4.35,5.9,5.9,0,0,0,1.55,1.09c2.49-.68,6.51-2.58,8.05-4.81.01-.01.02-.03.03-.04S36.38,38.88,36.19,37.82Z"/><path fill="#f77261" d="M25.216,33.979a2.579,2.579,0,0,1-1.892-.661.5.5,0,1,1,.772-.636,1.669,1.669,0,0,0,1.12.3h0a2.359,2.359,0,0,0,1.754-.626.5.5,0,1,1,.772.634,3.264,3.264,0,0,1-2.525.992Z"/><path fill="#f77261" d="M24.9,30.634a1.351,1.351,0,0,1-.924-.372,1.006,1.006,0,0,1-.343-1.011.5.5,0,0,1,.972.217.4.4,0,0,0,.159.135.3.3,0,0,0,.246.011.5.5,0,0,1,.36.932A1.3,1.3,0,0,1,24.9,30.634Z"/><path fill="#bc6e4b" d="M34.359,21.71a.5.5,0,0,1-.242-.063c-1.568-.874-5.831-.691-6.393-.094A.5.5,0,0,1,27,20.867c1-1.06,5.764-1.12,7.607-.094a.5.5,0,0,1-.244.937Z"/><path fill="#bc6e4b" d="M21.75,21.71a.49.49,0,0,1-.234-.059,6.58,6.58,0,0,0-4.743-.224.5.5,0,0,1-.447-.894,7.435,7.435,0,0,1,5.658.236.5.5,0,0,1-.234.941Z"/><path fill="#fff" d="M23.12,58.34a.5.5,0,0,1-.5-.5,42.692,42.692,0,0,1,2.788-9.374,3.689,3.689,0,0,1,.689-1.12.5.5,0,1,1,.686.728,2.867,2.867,0,0,0-.468.814A43.335,43.335,0,0,0,23.62,57.84.5.5,0,0,1,23.12,58.34Z"/><path fill="#fff" d="M31.5,59.08a.493.493,0,0,1-.12-.015.5.5,0,0,1-.365-.6,40.366,40.366,0,0,0-.578-9.723,2.758,2.758,0,0,0-.276-.755A.5.5,0,0,1,31,47.438a3.594,3.594,0,0,1,.4,1.047A39.637,39.637,0,0,1,31.985,58.7.5.5,0,0,1,31.5,59.08Z"/><path fill="#f77261" d="M41.73,28.81a.449.449,0,0,1-.1-.011.5.5,0,0,1-.387-.591,2.175,2.175,0,0,1,2.339-1.595.5.5,0,1,1-.12.993,1.194,1.194,0,0,0-1.241.806A.5.5,0,0,1,41.73,28.81Z"/><path fill="#bc6e4b" d="M32.66,24.71v.83a.935.935,0,0,1-.93.93h-.28a.935.935,0,0,1-.93-.93v-.83a.928.928,0,0,1,.93-.93h.28A.928.928,0,0,1,32.66,24.71Z"/><path fill="#bc6e4b" d="M21.59,24.72v.83a.935.935,0,0,1-.93.93h-.28a.935.935,0,0,1-.93-.93v-.83a.928.928,0,0,1,.93-.93h.28A.928.928,0,0,1,21.59,24.72Z"/><path fill="#7f3c3c" d="M29.38,24.292a.52.52,0,0,1-.49-.532,1,1,0,0,1,.684-.912A3.443,3.443,0,0,1,32.8,23.4a.5.5,0,1,1-.686.728,2.354,2.354,0,0,0-1.617-.461,1.084,1.084,0,0,0-.63.163A.464.464,0,0,1,29.38,24.292Z"/><path fill="#7f3c3c" d="M18.2,24.3a.52.52,0,0,1-.49-.533,1,1,0,0,1,.684-.912,3.438,3.438,0,0,1,3.229.548.5.5,0,0,1-.686.728,2.4,2.4,0,0,0-1.617-.461,1.1,1.1,0,0,0-.631.162A.464.464,0,0,1,18.2,24.3Z"/></svg>