<svg xmlns="http://www.w3.org/2000/svg" data-name="Layer 1" viewBox="0 0 512 350"><path fill="#fff" d="M131.61,84.92c19.9-30.14,29.84-45.21,42.18-49.74,32-11.76,49.64,35.44,109.65,42.63,34.37,4.12,39.85-10,93.37-5.87,24.35,1.89,41.93,3.44,61.37,14.52C449,92.6,480.09,113,488.42,151.19c9.61,44.17-18.26,79.72-23.73,86.36-39.29,47.74-113.44,51.48-159.56,42-43.9-9-49-27.18-96.3-30.51-36.69-2.59-43,7.68-84.4,4.65-33.63-2.46-70.91-5.19-90.73-32.94-20.19-28.27-9.5-64.66-7.56-71.3,10.29-35,41.37-64.78,55.27-59.2C94.76,95.64,112,114.7,131.61,84.92Z"/><path fill="#fbb641" d="M235.21 111.21c.9-2.15 1.71-4.78 2.81-7.54.27-.68.55-1.37.85-2 .17-.36.27-.63.48-1.06a2.64 2.64 0 014.11-.68c.22.21.31.32.43.45l.34.38.69.77 1.34 1.56.17.2a2.55 2.55 0 01.24.31 2.89 2.89 0 01.33.74 2.71 2.71 0 01-.05 1.57 2.66 2.66 0 01-.93 1.26 6.18 6.18 0 01-1.15.56c-.68.3-1.37.57-2.06.83C240 109.58 237.37 110.35 235.21 111.21zm0 0c2.81-1.44 5.14-3 7.34-4.24.56-.32 1.11-.63 1.68-.92s.81-.43.92-.78a.86.86 0 000-.45.75.75 0 00-.1-.2l-.07-.1-.18-.19-1.37-1.53-1.28-1.48a.81.81 0 00-1.21.14c-.11.18-.28.54-.43.79-.29.56-.61 1.11-.94 1.66C238.27 106.1 236.69 108.43 235.21 111.21zM235.2 111.21c-1.49-2.78-3.07-5.11-4.35-7.3-.33-.55-.65-1.1-.95-1.66-.14-.25-.32-.61-.43-.79a.73.73 0 00-.36-.29.78.78 0 00-.85.15L227 102.8l-1.38 1.53-.17.19-.08.1a.72.72 0 00-.09.2.77.77 0 000 .45c.1.35.23.45.92.78s1.12.6 1.67.92C230.06 108.22 232.38 109.77 235.2 111.21zm0 0c-2.17-.86-4.82-1.63-7.6-2.7-.69-.26-1.38-.53-2.07-.83a6.14 6.14 0 01-1.14-.56 2.66 2.66 0 01-.93-1.26 2.55 2.55 0 01-.05-1.57 2.89 2.89 0 01.33-.74 2.55 2.55 0 01.24-.31l.16-.2 1.34-1.56.69-.77.35-.38a4.77 4.77 0 01.42-.45 2.67 2.67 0 013-.41 2.57 2.57 0 011.12 1.09c.22.43.32.7.48 1.06.3.68.58 1.37.85 2C233.48 106.43 234.3 109.06 235.2 111.21z"/><path fill="#9dc2db" d="M42,215.08a33.36,33.36,0,0,0-11.12,30.2l10,68.35A1.06,1.06,0,0,0,42,314.69H478a1.06,1.06,0,0,0,1.06-1.06l5.63-36.54a234.14,234.14,0,0,0,.57-67.29,307.05,307.05,0,0,0-6.95-33.9,45.75,45.75,0,0,0-11.52-20.47c-4.95-5.07-9.24-9.38-13.61-12a10.44,10.44,0,0,0-11.69.84l-21,16.2a6.23,6.23,0,0,1-8.78-1.19l-.94-1.26a.31.31,0,0,0-.24-.13.32.32,0,0,0-.29.21.67.67,0,0,1-1.29-.06l-.72-2.43a2.65,2.65,0,0,0-3.26-1.92,1.46,1.46,0,0,0-1.13,1.24,12.84,12.84,0,0,1-1.08,3.91c-4.74,9.66-10.68,13.81-11.16,14.14l-.06,0c-16.77,16.7-39.81,5.07-46.44,1.14a3.38,3.38,0,0,0-3.42-.06c-8.85,5.14-34.85,6.07-36.13,6.12h-.11c-27.35,6.8-38.1-7.65-42-16.66a11,11,0,0,0-10-6.72c-8.33,0-18.95.93-25,4.81-8.1,5.19-20.61-4.85-21.15-5.28l0,0-29-26.47a10.32,10.32,0,0,0-13.24-.66l-2.08,1.55a1.07,1.07,0,0,1-1.37-.07h0a5.57,5.57,0,0,0-7.78.12l-17.35,17.41a1.07,1.07,0,0,1-1.64-.15l-2.49-3.65a4.62,4.62,0,0,0-7.55-.13L101.56,176a5,5,0,0,1-8.51-.58l-3.56-6.58a7.6,7.6,0,0,0-13.26-.2l-11.3,19.47a98.5,98.5,0,0,1-22.24,26.45Z"/><path fill="#86b4ce" d="M477.3,315.87c0,.34-.48.62-1.06.62h-436c-.59,0-1.07-.28-1.07-.62L30.47,256.4c0-.15,1.35-18.17,8.91-28.68l17.74-12.19c3.89-2.67,10.44-3.08,15.13-1l25.4,11.51c2.74,1.24,6.69.93,8.78-.7l.94-.74a.48.48,0,0,1,.24-.07.38.38,0,0,1,.3.12.87.87,0,0,0,1.28,0l.72-1.43a3.15,3.15,0,0,1,3.27-1.12c.77.14,1,.43,1.12.72a5.29,5.29,0,0,0,1.08,2.29,30.74,30.74,0,0,0,11.15,8.29l.1.05c16.77,9.77,39.78,3,46.41.65a5.55,5.55,0,0,1,3.42,0c8.8,3,34.52,3.55,36.11,3.58l.16,0c27.33,4,38.07-4.5,42-9.77,1.79-2.41,5.69-3.95,10-3.95,8.33,0,18.95.55,25,2.83,8.11,3,20.62-2.85,21.15-3.1l0,0L340,208.15a16.17,16.17,0,0,1,13.23-.39l2.08.91a1.71,1.71,0,0,0,1.37,0h0a8.6,8.6,0,0,1,7.78.07l17.36,10.21a1.61,1.61,0,0,0,1.63-.09l2.49-2.14c1.8-1.55,5.67-1.59,7.56-.08l23.17,18.56c2.19,1.75,6.75,1.57,8.51-.34l3.56-3.86c2.83-3.06,31.51-7.52,43.94-.39l10.7,45.27Z"/><path fill="#6da0ba" d="M40.92,314.29c0,.22.48.4,1.07.4H478c.58,0,1.06-.18,1.06-.4l4.47-29.61a28.08,28.08,0,0,0-.52-11c-.75-3-1.48-6.49-2.2-9.51a14.28,14.28,0,0,0-8.3-9.84l-11.45-4.9c-3.89-1.72-10.44-2-15.13-.62l-25.4,7.44c-2.74.81-6.69.61-8.78-.45l-.94-.47a.57.57,0,0,0-.24-.05.46.46,0,0,0-.29.08,1.27,1.27,0,0,1-1.29,0l-.72-.93c-.42-.55-1.87-.89-3.26-.72-.78.09-1.06.28-1.13.47a3.15,3.15,0,0,1-1.08,1.48A34.58,34.58,0,0,1,391.69,261l-.09,0c-16.74,6.32-39.73,1.93-46.4.43a8,8,0,0,0-3.44,0c-8.84,1.94-34.76,2.3-36.13,2.32h-.12c-27.35,2.58-38.09-2.9-42-6.31-1.79-1.56-5.68-2.56-10-2.55-8.33,0-18.95.35-25,1.82-8.1,2-20.61-1.84-21.15-2l0,0-29-10a24.36,24.36,0,0,0-13.24-.25l-2.08.59a2.65,2.65,0,0,1-1.37,0h0a12.91,12.91,0,0,0-7.78,0l-17.35,6.61a2.41,2.41,0,0,1-1.64-.06l-2.49-1.39a10,10,0,0,0-7.55,0l-23.18,12c-2.19,1.13-6.75,1-8.51-.23l-3.56-2.49c-2.82-2-10.28-2-13.26-.07L55.67,272.17a34.59,34.59,0,0,0-15.88,34.26Z"/><circle cx="293.5" cy="114.69" r="4.5" fill="#d6dae5"/><circle cx="211.5" cy="148.69" r="2.5" fill="#d6dae5"/><circle cx="171.28" cy="82.66" r="4" fill="#d6dae5"/><circle cx="346" cy="214.19" r="2" fill="#d6dae5"/><circle cx="311" cy="171.19" r="2" fill="#d6dae5"/><circle cx="346" cy="82.19" r="4" fill="#d6dae5"/><circle cx="436.5" cy="110.69" r="4.5" fill="#d6dae5"/><circle cx="362" cy="143.19" r="4.5" fill="#d6dae5"/><circle cx="464" cy="175.19" r="2" fill="#d6dae5"/><circle cx="411.55" cy="169.19" r="2" fill="#d6dae5"/><circle cx="440.5" cy="231.69" r="4.5" fill="#d6dae5"/><circle cx="452" cy="275.19" r="2" fill="#d6dae5"/><circle cx="196" cy="269.19" r="2" fill="#d6dae5"/><circle cx="183" cy="201.19" r="4" fill="#d6dae5"/><circle cx="239" cy="77.19" r="1" fill="#d6dae5"/><circle cx="89" cy="139.19" r="4" fill="#d6dae5"/><circle cx="152.61" cy="228.14" r="4" fill="#d6dae5"/><circle cx="35" cy="148.19" r="2" fill="#d6dae5"/><circle cx="92.5" cy="211.69" r="2.5" fill="#d6dae5"/><circle cx="48.5" cy="211.69" r="4.5" fill="#d6dae5"/><circle cx="92.5" cy="256.69" r="4.5" fill="#d6dae5"/><circle cx="68.5" cy="178.69" r="1.5" fill="#d6dae5"/><circle cx="129.59" cy="160.97" r="1.5" fill="#d6dae5"/><circle cx="122.32" cy="275.19" r="1.5" fill="#d6dae5"/><circle cx="142" cy="100.19" r="2" fill="#d6dae5"/><circle cx="49" cy="285.19" r="3" fill="#d6dae5"/><circle cx="365" cy="256.19" r="3" fill="#d6dae5"/><circle cx="413.55" cy="290.19" r="3" fill="#d6dae5"/><circle cx="315" cy="293.19" r="3" fill="#d6dae5"/><circle cx="164" cy="296.19" r="3" fill="#d6dae5"/><circle cx="389.05" cy="220.41" r="2" fill="#d6dae5"/><polygon fill="#d89f80" points="314.68 172.88 326.48 175.97 330.57 161.21 324.81 158.02 314.68 172.88"/><path fill="#d89f80" d="M372.6,167.5a5.19,5.19,0,0,1,2.77-1.53,14.44,14.44,0,0,0,2.73-.49c7.5-2.31,8.52-5.75,8.47-7.57a.64.64,0,0,0-1-.43c-2.06,1.58-6.7,2.85-7.84,2.6s.53-2.15,1.17-2.84a.49.49,0,0,0,0-.7,1.9,1.9,0,0,0-1.28-.38,3.6,3.6,0,0,0-3,1.55l-4.21,6.19a3.13,3.13,0,0,1-.51.59,2.21,2.21,0,0,1,1.72.19,2.14,2.14,0,0,1,1.07,2.68S372.62,167.45,372.6,167.5Z"/><path fill="#b5826b" d="M324.81,158l5.76,3.19-1.27,4.58a6.8,6.8,0,0,1-1.35-.48,8,8,0,0,1-4.18-5.77Z"/><path fill="#d89f80" d="M325.58,149.28c-2.94,6.11-1.65,12.82,2.87,15s10.57-1,13.5-7.13.14-9.69-4.38-11.86S328.51,143.16,325.58,149.28Z"/><path fill="#300" d="M330.36,150.74l7.12,6.57a3.31,3.31,0,0,0,4.65-.18l2.21-2.41a4.73,4.73,0,0,0-.63-7l-12-9.07a1.28,1.28,0,0,0-2,1.17h0a14.37,14.37,0,0,1-.67,5.81A5,5,0,0,0,330.36,150.74Z"/><path fill="#300" d="M331.48,148.14,324,155.05,324,154a12.51,12.51,0,0,1,5.87-11.66l2.06-1.28Z"/><path fill="#d89f80" d="M290.53,178.75a5.42,5.42,0,0,0-.1-3.17,14.84,14.84,0,0,1-1-2.59c-1.86-7.63.58-10.26,2.17-11.16a.64.64,0,0,1,.88.65c-.3,2.58,1,7.22,1.79,8.06s1.57-1.55,1.84-2.45a.49.49,0,0,1,.62-.33,1.9,1.9,0,0,1,1,.91,3.6,3.6,0,0,1,.19,3.35l-3.16,6.78a3.12,3.12,0,0,0-.24.73,2.25,2.25,0,0,0-1.05-1.37,2.11,2.11,0,0,0-2.85.46Z"/><path fill="#fecb5c" d="M314.56,219.5l-24.51-12.69,15.43-28.29L296,192.15a4.87,4.87,0,0,1-3.62,2.23l-1.74.19a5,5,0,0,1-2.59-.43h0a4.93,4.93,0,0,1-2.83-4.73l.29-5.29a5.74,5.74,0,0,1,.86-2.73l2.53-4a1.75,1.75,0,0,1,2-.75l5.07,1.53,6.78-9a6,6,0,0,1,3.43-2.21l11.27-2.52a2.59,2.59,0,0,1,2.63,1h0a8.07,8.07,0,0,0,9.6,2.57h0l6.65,2.32a12.82,12.82,0,0,0,4.63.72l10.63-.3a15.47,15.47,0,0,0,7.06-1.91l10.6-5.83a2,2,0,0,1,2.46.42l2.39,2.67a2,2,0,0,1-.13,2.8l-7.58,7A26.61,26.61,0,0,1,349,183l-11,.31a3.65,3.65,0,0,0-3.08,1.84Z"/><path fill="#cccdce" d="M296.65,177.24h0l-.69.92-5.07-1.53a1.76,1.76,0,0,0-1.3.12l-2.37,3.77a5.85,5.85,0,0,0-.86,2.73l-.29,5.29a4.92,4.92,0,0,0,2.78,4.7l.06,0a5,5,0,0,0,2.58.43l1.74-.18a5,5,0,0,0,2.55-1,2.18,2.18,0,0,0,.22-.31l0-2Z"/><path fill="#edeff4" d="M295.8,178.12l.4,13.72-.22.31a4.91,4.91,0,0,1-3.62,2.24l-1.74.18a5,5,0,0,1-2.59-.43l0,0a4.92,4.92,0,0,1-2.78-4.7l.29-5.29a5.74,5.74,0,0,1,.86-2.73l2.53-4a1.76,1.76,0,0,1,2-.74Z"/><path fill="#bf2824" d="M321.42,210H156.7c-5.76,0-22,72.71-16,72.71H339.36C345.42,282.7,327.47,210,321.42,210Z"/><path fill="#932734" d="M140.13,282.39H339.94c3.05-3.68-5.2-40.89-12.11-60.48H150.74C144.39,241.5,137,278.71,140.13,282.39Z"/><polygon fill="#682e2e" points="214.09 243.32 265.87 243.32 268.03 272.26 211.93 272.26 214.09 243.32"/><polygon fill="#609741" points="295.73 90.22 247.88 121.95 232.98 131.83 266.86 148.58 300.75 165.34 299.55 147.51 295.73 90.22"/><polygon fill="#71ad44" points="269.78 142.69 230.17 123.11 266.84 98.78 303.52 74.46 306.45 118.37 309.39 162.28 269.78 142.69"/><polygon fill="#609741" points="303.43 74.64 266.76 98.96 258.41 104.5 282.72 116.52 307.03 128.54 306.37 118.55 303.43 74.64"/><path fill="#71ad44" d="M286.05,109.8,261,97.41a2,2,0,0,1-.23-3.45L284.11,78.3l26.21-17.58,1.93,31.5L314,120.27a2,2,0,0,1-2.88,1.91Z"/><path fill="#703723" d="M269.56 88.06A108.63 108.63 0 00287 90.43a77.56 77.56 0 008.76-.06c1.47-.09 2.92-.22 4.37-.42s2.92-.42 4.3-.71h0c1.26-.27 2.52-.58 3.77-.92s2.48-.76 3.71-1.2a35.8 35.8 0 01-3.6 1.55 37.66 37.66 0 01-3.74 1.17h0a48.14 48.14 0 01-8.78 1.5 61.5 61.5 0 01-8.9.07 66.59 66.59 0 01-8.8-1.13A64.63 64.63 0 01269.56 88.06zM254.35 107.07c2.55 3.34 4.87 6.83 7.63 10l4 4.84c1.38 1.57 2.78 3.12 4.22 4.63 2.88 3 5.93 5.9 9.08 8.63a101.7 101.7 0 009.93 7.62l0 0h0l.05 0c1.52 1 3 2 4.62 2.94s3.17 1.81 4.8 2.63 3.29 1.61 5 2.33 3.4 1.37 5.13 2a65.07 65.07 0 01-10.34-3.8c-1.67-.78-3.31-1.61-4.92-2.51s-3.2-1.83-4.74-2.84l.05 0h0l0 0a101.93 101.93 0 01-10.1-7.58 115.71 115.71 0 01-9.08-8.77c-1.43-1.54-2.85-3.1-4.18-4.73l-3.87-5-1.93-2.48c-.65-.83-1.18-1.74-1.78-2.61z"/><ellipse cx="301.78" cy="96.63" fill="#ef3e3b" rx="4.75" ry="5.11" transform="rotate(-63.68 301.809 96.618)"/><ellipse cx="277.62" cy="96.08" fill="#065b9e" rx="4.75" ry="5.11" transform="rotate(-63.68 277.648 96.073)"/><ellipse cx="271.93" cy="138.87" fill="#065b9e" rx="4.75" ry="5.11" transform="rotate(-63.68 271.955 138.871)"/><ellipse cx="294.52" cy="154.12" fill="#fbb641" rx="4.75" ry="5.11" transform="rotate(-63.68 294.55 154.119)"/><ellipse cx="255.2" cy="120.01" fill="#ef3e3b" rx="4.75" ry="5.11" transform="rotate(-63.68 255.219 120.01)"/><path fill="#fbb641" d="M314.3,74.06l-5.54-7a1.61,1.61,0,0,0-1.37-.6l-8.93.58A1.6,1.6,0,0,1,297,64.53l5-7.44a1.61,1.61,0,0,0,.16-1.49l-3.32-8.31a1.61,1.61,0,0,1,1.93-2.14l8.61,2.42a1.61,1.61,0,0,0,1.46-.31l6.88-5.73a1.61,1.61,0,0,1,2.63,1.17l.36,8.94a1.62,1.62,0,0,0,.75,1.3L329,57.71a1.6,1.6,0,0,1-.3,2.86l-8.39,3.11a1.59,1.59,0,0,0-1,1.11l-2.2,8.67A1.61,1.61,0,0,1,314.3,74.06Z"/><path fill="#4f1e1e" d="M140.71 282.7a.71.71 0 01-.37-.12v20.87a11.24 11.24 0 0011.24 11.24h6.73a11.24 11.24 0 0011.24-11.24V282.7zM339.36 282.7H310.54v18a14 14 0 0014 14h1.22a14 14 0 0014-14V282.56A.72.72 0 01339.36 282.7zM214.09 282.67h51.79a0 0 0 010 0v6.67a2 2 0 01-2 2H216.09a2 2 0 01-2-2v-6.67A0 0 0 01214.09 282.67zM268.56 272.76H211.4l2.22-29.94h52.72zm-56.09-1h55l-2.08-27.94H214.55z"/><rect width="55.65" height="1" x="212.15" y="268.78" fill="#4f1e1e"/><rect width="55.21" height="1" x="212.38" y="265.81" fill="#4f1e1e"/><rect width="54.73" height="1" x="212.62" y="262.59" fill="#4f1e1e"/><rect width="54.21" height="1" x="212.88" y="259.06" fill="#4f1e1e"/><rect width="53.68" height="1" x="213.14" y="255.53" fill="#4f1e1e"/><rect width="53.15" height="1" x="213.4" y="252" fill="#4f1e1e"/><rect width="52.63" height="1" x="213.66" y="248.47" fill="#4f1e1e"/><rect width="52.1" height="1" x="213.93" y="245.25" fill="#4f1e1e"/><path fill="#ef3e3b" d="M344,194H331.59a4,4,0,0,0-4,4v4.57a9.12,9.12,0,0,0-7.11,5.76l-8.85-56.2c-1.12-7.1-8.52-12.41-17.28-12.41H185.49c-8.72,0-16.1,5.26-17.27,12.31l-9.34,56.17a9.09,9.09,0,0,0-7.1-5.81,2.62,2.62,0,0,1-.21,1,3.71,3.71,0,0,0,.22-1.21v-4.58a4,4,0,0,0-4-4H135.41a4,4,0,0,0-4,4,8.26,8.26,0,0,0,8.26,8.27h8.41a3.67,3.67,0,0,0,2-.61l0,0c1.78,1.05,4.47,2.83,5.74,5.15a1.27,1.27,0,0,1,.86-.45H321.42c.5,0,1.08.5,1.72,1.41,1.12-2.76,3.81-4.78,5.8-6l-.21-.19a3.68,3.68,0,0,0,2.56,1h8.41A8.26,8.26,0,0,0,348,198h0A4,4,0,0,0,344,194Z"/><circle cx="313.73" cy="252.74" r="13.88" fill="#ce8d2e"/><path fill="#c4cacc" d="M300.44,205.66H179.53c-5.2,0-9.2-3.75-8.5-7.95l7-42.24c1-6.11,7.41-10.67,15-10.67h94.32c7.59,0,14,4.6,15,10.75L309,197.76C309.61,202,305.61,205.66,300.44,205.66Z"/><path fill="#4f1e1e" d="M239.67,149.42a.5.5,0,0,1-.5-.5v-4.48a.5.5,0,0,1,.5-.5.5.5,0,0,1,.5.5v4.48A.5.5,0,0,1,239.67,149.42Z"/><rect width="16.65" height="5.92" x="231.32" y="148.92" fill="#4f1e1e" rx="2.96"/><path fill="#065b9e" d="M221.39,114.52H249a2,2,0,0,1,2,2v23.22a0,0,0,0,1,0,0H219.39a0,0,0,0,1,0,0V116.52A2,2,0,0,1,221.39,114.52Z" transform="rotate(-180 235.205 127.13)"/><rect width="31.63" height="6.42" x="219.39" y="114.52" fill="#024983"/><rect width="39.43" height="7.34" x="215.49" y="110.4" fill="#065b9e" rx="2" transform="rotate(-180 235.205 114.065)"/><path fill="#ef3e3b" d="M188.41,139.78h29.26a2,2,0,0,0,2-2V119.47H186.41v18.31A2,2,0,0,0,188.41,139.78Z"/><rect width="33.25" height="5.17" x="186.41" y="119.47" fill="#bf2824"/><rect width="41.45" height="5.91" x="182.32" y="116.14" fill="#ef3e3b" rx="2"/><path fill="#065b9e" d="M192.11,97.43h20.27a2,2,0,0,1,2,2v17.34a0,0,0,0,1,0,0H190.11a0,0,0,0,1,0,0V99.43A2,2,0,0,1,192.11,97.43Z" transform="rotate(-180 202.24 107.105)"/><rect width="24.27" height="4.92" x="190.15" y="96.68" fill="#024983"/><rect width="30.24" height="5.63" x="187.92" y="93.52" fill="#065b9e" rx="2" transform="rotate(-180 203.04 96.33)"/><circle cx="165.55" cy="252.74" r="13.88" fill="#ce8d2e"/><circle cx="162.46" cy="253.72" r="7.97" fill="#fbb641"/><circle cx="310.54" cy="253.72" r="7.97" fill="#fbb641"/><path fill="#4f1e1e" d="M257.22 205.29h3.5c3.13-4.17 9.77-7 17.46-7s14.32 2.88 17.46 7h3.49c-2.45-6-10.91-10.37-20.95-10.37S259.68 199.32 257.22 205.29zM201.3 208.24l14.28-23.34.06-.1a1.15 1.15 0 01.3-.32L242.33 166l-24.74 20.66.36-.42-12.28 24.46a2.5 2.5 0 01-4.47-2.25zM246 208.24l14.28-23.34.06-.1a1 1 0 01.3-.32L287 166l-24.74 20.66.35-.42-12.27 24.46a2.5 2.5 0 11-4.47-2.25A1.62 1.62 0 01246 208.24z"/><path fill="#331313" d="M146.77 302.9a.51.51 0 01-.5-.5V286.82a.5.5 0 01.5-.5.5.5 0 01.5.5V302.4A.5.5 0 01146.77 302.9zM152.74 311.76a.5.5 0 01-.5-.5V295.68a.5.5 0 011 0v15.58A.5.5 0 01152.74 311.76zM158 309.59a.51.51 0 01-.5-.5V293.51a.5.5 0 01.5-.5.5.5 0 01.5.5v15.58A.5.5 0 01158 309.59zM163.21 301.8a.5.5 0 01-.5-.5V285.72a.5.5 0 011 0V301.3A.5.5 0 01163.21 301.8zM316 305.24a.5.5 0 01-.5-.5V289.16a.5.5 0 011 0v15.58A.5.5 0 01316 305.24zM321.46 311.84a.5.5 0 01-.5-.5V295.76a.5.5 0 01.5-.5.5.5 0 01.5.5v15.58A.5.5 0 01321.46 311.84zM327.69 300.81a.5.5 0 01-.5-.5V284.73a.5.5 0 01.5-.5.5.5 0 01.5.5v15.58A.5.5 0 01327.69 300.81zM333.84 306.87a.51.51 0 01-.5-.5V290.79a.5.5 0 01.5-.5.5.5 0 01.5.5v15.58A.5.5 0 01333.84 306.87z"/><path fill="#a0a4a5" d="M198.68 168.13a.52.52 0 01-.39-.17.52.52 0 01.06-.71l10-8.5a.52.52 0 01.71.06.51.51 0 01-.06.71L199 168A.5.5 0 01198.68 168.13zM198.11 175.73a.5.5 0 01-.32-.88l17.71-15a.49.49 0 01.7.06.49.49 0 01-.06.7l-17.7 15A.52.52 0 01198.11 175.73zM262.37 168.13A.52.52 0 01262 168a.51.51 0 01.06-.71l10-8.5a.5.5 0 01.65.77l-10 8.5A.51.51 0 01262.37 168.13zM261.81 175.73a.5.5 0 01-.32-.88l17.71-15a.49.49 0 01.7.06.49.49 0 01-.06.7l-17.7 15A.52.52 0 01261.81 175.73z"/><path fill="#e6e6e6" d="M45.77,309.14a36.64,36.64,0,0,1,29.34-4.44c16.78,4.51,29.34,3.4,38.39,1,8.88-2.36,17.27-6.75,34-9a125,125,0,0,1,24-1c19.2,1.23,26.32,7.18,41,11,27.57,7.18,33.42-5.74,83-4a285,285,0,0,1,29,2c9.52,1.22,14.72,2.45,18.55,3.27a4,4,0,0,0,2.57-.32h0c3.73-1.78,8.69-1.75,12.92-1.2a13.37,13.37,0,0,0,7.3-1.11,91.58,91.58,0,0,1,20.64-7.63c8.22-2,12.32-3,18-3,19.43.07,22.83,11.72,39,11,12.37-.55,16-7.62,25-5,8,2.32,12.78,10.09,15.5,16H34Z"/><path fill="#fbb641" d="M203 93.73c.91-2.16 1.72-4.79 2.82-7.55.27-.68.55-1.37.85-2.05.16-.36.27-.63.48-1.06a2.64 2.64 0 014.11-.68c.22.21.31.32.43.45l.34.39.69.76 1.34 1.57.17.19c.07.1.16.21.23.32a2.41 2.41 0 01.33.73 2.66 2.66 0 010 1.58 2.71 2.71 0 01-.94 1.25 6 6 0 01-1.14.57c-.68.29-1.37.56-2.07.82C207.87 92.09 205.21 92.86 203 93.73zm0 0c2.82-1.45 5.15-3 7.35-4.25.56-.32 1.11-.63 1.67-.91s.82-.44.93-.78a1 1 0 000-.46.93.93 0 00-.1-.2L212.8 87l-.17-.2-1.37-1.53L210 83.83a.82.82 0 00-.85-.15.75.75 0 00-.36.3c-.11.18-.29.53-.43.79-.29.55-.61 1.1-.94 1.66C206.11 88.62 204.53 90.94 203 93.73zM203 93.73c-1.49-2.79-3.07-5.11-4.36-7.3-.33-.56-.65-1.11-.94-1.66-.14-.26-.32-.61-.43-.79a.75.75 0 00-.36-.3.82.82 0 00-.85.15l-1.28 1.48-1.37 1.53-.17.2-.08.09a.93.93 0 00-.1.2 1 1 0 000 .46c.11.34.23.44.93.78s1.11.59 1.67.91C197.89 90.73 200.22 92.28 203 93.73zm0 0c-2.17-.87-4.83-1.64-7.6-2.71-.69-.26-1.39-.53-2.07-.82a6 6 0 01-1.14-.57 2.71 2.71 0 01-.94-1.25 2.66 2.66 0 010-1.58 2.41 2.41 0 01.33-.73c.07-.11.16-.22.23-.32l.17-.19L193.32 84l.69-.76.34-.39c.12-.13.21-.24.43-.45a2.64 2.64 0 014.11.68c.21.43.32.7.48 1.06.3.68.58 1.37.85 2.05C201.32 88.94 202.13 91.57 203 93.73z"/><path fill="#71ad44" d="M265.51,284.61a1.65,1.65,0,0,0,.34-1.69c0-.64-.25-.84-.29-1.12v0s0-.09.05-.13c.07-.21.15-.41.22-.61.23-.35.42-.75.81-.91a1.78,1.78,0,0,0,.83-.78,1.51,1.51,0,0,0-.45-2.09l-.2-.08c0-.06,0-.11,0-.17v-.07c0-.17.05-.34.08-.51s.05-.37.07-.55,0-.07,0-.1a.41.41,0,0,0,0-.11c0-.17,0-.35.05-.52s0-.37,0-.56h0c0-.07,0-.14,0-.22s0-.32,0-.48v-.2a1.09,1.09,0,0,0,0-.18v-.88c0-.09,0-.18,0-.27v-.22a.66.66,0,0,0,0-.14l0-.72a.76.76,0,0,1,0-.15.5.5,0,0,0,0-.12,3,3,0,0,0,0-.31L267,270c0-.07,0-.15,0-.22l-.06-.46v0a1.6,1.6,0,0,0,0-.23h.06a1.52,1.52,0,0,0,.71-2,1.68,1.68,0,0,0-.86-.93,1.87,1.87,0,0,1-.93-1.11c0-.06,0-.12-.07-.19l-.06-.16v-.05a2,2,0,0,1,.05-1.29,1.18,1.18,0,0,0-.09-1.12c-.79-1.09-1.23-.89-1.56-1.1l0,0c0-.05-.06-.1-.09-.16h0c-.05-.07-.09-.15-.14-.23l-.1-.17,0-.06h0a2.19,2.19,0,0,1-.19-1.22,1.7,1.7,0,0,0-.05-1.13,1.52,1.52,0,0,0-1.89-1l-.2.11-.06-.08-.06-.06c-.08-.09-.15-.18-.23-.26l0-.05,0,0c-.13-.14-.26-.29-.4-.43l-.06-.06-.14-.15h0l-.18-.19c-.15-.16-.3-.31-.46-.46l-.16-.15-.17-.16-.14-.13-.42-.38-.29-.25-.17-.14-.09-.07-.86-.68-.18-.14-.88-.62,0,0-.26-.17-.27-.17-.05,0-.48-.29-.08-.05-.47-.27-.14-.07-.05,0-.39-.22-.08,0-.4-.2-.1-.05-.16-.08-.31-.15-.19-.09-.35-.15-.24-.11-.07,0-.18-.06,0,0-.69-.27L251,250l-.27-.1-.06,0-.3-.1-.38-.12-.05,0-.21-.06-.08,0-.11,0-.7-.19-.32-.08h0l-.09,0s0,0,0-.05a1.53,1.53,0,0,0-1.58-1.44,1.66,1.66,0,0,0-1.19.43,1.91,1.91,0,0,1-1.37.43h0l-.37,0a2,2,0,0,1-1.2-.56,1.21,1.21,0,0,0-1.07-.34,2.39,2.39,0,0,0-1.61,1h-.09l-.69.09h0a2.11,2.11,0,0,1-1.2-.31A1.81,1.81,0,0,0,237,248a1.52,1.52,0,0,0-1.65,1.35.53.53,0,0,0,0,.22h0l-.09,0-.14,0-.62.22-.14.05-.22.08-.09,0-.3.12-.41.17-.4.16-.13.06h0l-.21.09L232,251l-.33.16h0l-.13.06-.05,0-.06,0-.25.13h0l-.83.47h0L230,252l-.14.08-.13.09-.05,0-.18.12a1.64,1.64,0,0,0-.22.14c-.33.21-.64.42-1,.65l-.26.17-.08.07-.42.32-.26.21-.2.15,0,0-.36.3h0l-.17.15-.19.16-.16.15-.11.1-.33.3-.12.12-.08.07-.07.07-.18.18h0l-.19.2a2.39,2.39,0,0,0-.22.23l-.08.08,0,0-.33.35-.2.22a4.82,4.82,0,0,0-.36.43h0l-.23.28,0,0-.24.3-.18.23-.28.38c-.09.11-.18.23-.26.35l0,0-.05,0a1.52,1.52,0,0,0-1.92.93,1.7,1.7,0,0,0,0,1.27,1.84,1.84,0,0,1-.09,1.38l-.12.26a1,1,0,0,1-.07.15,2,2,0,0,1-1,.91,1.21,1.21,0,0,0-.72.86,2.39,2.39,0,0,0,.34,1.87c0,.11,0,.22-.08.33a.94.94,0,0,0,0,.16.65.65,0,0,0,0,.13,1.36,1.36,0,0,0,0,.17,2.2,2.2,0,0,1-.72,1,1.74,1.74,0,0,0-.76.84,1.52,1.52,0,0,0,.64,2l.21.07a.57.57,0,0,1,0,.13h0v0s0,.09,0,.13h-.06a1.51,1.51,0,0,0-1.14,1.8,1.68,1.68,0,0,0,.63,1.1,1.89,1.89,0,0,1,.65,1.19,2.85,2.85,0,0,0,0,.29l0,.24a17.86,17.86,0,0,0,.78,3.77,0,0,0,0,0,0,0l.06.22.09.29,0,.07a.65.65,0,0,0,0,.13h0a2.22,2.22,0,0,1-.09,1.23A1.75,1.75,0,0,0,219,283a1.52,1.52,0,0,0,1.61,1.4,1.29,1.29,0,0,0,.21-.06,2,2,0,0,1,.11.2l.22.39.09.16a1.74,1.74,0,0,0,.1.19l.11.19.06.11c0,.05.07.1.1.16l.14.22h0c.08.13.15.26.24.39l.13.2.12.18h0l.2.28,0,.05,0,0,.32.46.13.17,0,0,0,0,0,.05.15.2.11.13c.09.12.18.25.28.36s.19.23.28.34l.15.17c.12.14.24.29.37.43l.3.32.14.14.11.13.31.32a2.72,2.72,0,0,1,.8.84c.45.62-.08,1.56.7,2a1.66,1.66,0,0,0,1.25.19,1.9,1.9,0,0,1,1.37.26l.38.25a2,2,0,0,1,.78,1.06,1.26,1.26,0,0,0,.32.53,1.73,1.73,0,0,0,1,.85,1.64,1.64,0,0,0,1.26-.1,1.1,1.1,0,0,1,1.69.55,1.72,1.72,0,0,0,.75.86,1.66,1.66,0,0,0,1.49.13,2.48,2.48,0,0,0,1.67-.55l.32.05.09,0h.06l.29,0h0a2.2,2.2,0,0,1,1.07.61,1.73,1.73,0,0,0,.93.66,1.52,1.52,0,0,0,1.95-.86,2.07,2.07,0,0,0,0-.22l.37,0h.32l.23,0h.1l.12,0H245l.28,0,.79-.1.41-.06.23,0,.46-.08h.05l.18,0,.07,0,.38-.08.7-.16.15,0,.07,0,.28-.07h0l.07,0,.08,0,.6-.18.22-.07.33-.1.08,0,.54-.19.48-.18.19-.07.15-.06.43-.18.56-.25.11-.05.4-.18.1,0,.45-.23.22-.12.06,0,.27-.14.07,0,.08-.05.41-.23.12-.07.25-.15.09-.05.17-.11.17-.1,0,0,.39-.25.33-.23.12-.08.06-.05.62-.44,0,.05a1.53,1.53,0,0,0,2.12-.31,1.69,1.69,0,0,0,.43-1.19,1.85,1.85,0,0,1,.51-1.29l.24-.27,0,0a2,2,0,0,1,.83-.5,1.55,1.55,0,0,0,1.77-.85,1.64,1.64,0,0,0,.16-1.25,1.81,1.81,0,0,1,.14-1.21,2,2,0,0,1,.94-.67A1.75,1.75,0,0,0,265.51,284.61Zm-15.34-5.74-.18.23-.1.12-.4.45-.09.08-.15.15-.26.24-.33.29-.12.09-.11.09c-.18.14-.36.26-.54.38l-.23.15-.17.11-.08,0-.27.15-.36.19h0l-.24.11-.29.12,0,0-.45.17-.28.09-.37.1-.38.1h0l-.42.08-.29.05-.37,0-.22,0h-.23c-.22,0-.44,0-.66,0H242l-.38,0-.6-.09-.12,0-.37-.07-.31-.08c-.25-.06-.49-.14-.73-.22l-.46-.17-.19-.09c-.26-.11-.51-.23-.76-.36l-.06,0c-.18-.09-.34-.2-.51-.3l-.53-.37-.24-.18-.22-.17-.14-.12-.39-.37-.18-.17-.09-.09c-.09-.1-.19-.2-.28-.31l-.11-.13a4.08,4.08,0,0,1-.25-.33,1,1,0,0,1-.13-.16l-.23-.3-.11-.18-.17-.3a7,7,0,0,1-.37-.66s0,0,0-.05-.07-.15-.11-.22l-.17-.42c-.05-.13-.11-.27-.16-.41s-.05-.15-.07-.23l-.09-.31v0s0,0,0-.06a4.21,4.21,0,0,1-.12-.48,1.62,1.62,0,0,1,0-.19l-.06-.35c0-.09,0-.17,0-.26l0-.25c0-.08,0-.15,0-.22s0-.2,0-.3a.28.28,0,0,0,0-.09v-.32a.49.49,0,0,1,0-.12,2.44,2.44,0,0,0,0-.27c0-.19,0-.37,0-.55s0-.12,0-.17v-.08l.06-.36c0-.18.06-.35.1-.52s0-.07,0-.11l0-.11.06-.25a1.21,1.21,0,0,0,0-.18l.12-.36c0-.05,0-.09,0-.14l.06-.15a1,1,0,0,1,0-.1c0-.13.1-.26.16-.4L234,269l.08-.16a1.42,1.42,0,0,1,.08-.18.43.43,0,0,0,0-.07c.09-.16.17-.32.27-.48a.21.21,0,0,1,0-.06,1.4,1.4,0,0,1,.1-.16l.1-.16c.05-.08.11-.15.17-.23s.15-.21.23-.32l.05-.07.09-.1.12-.15.4-.45.18-.18h0l.34-.32.27-.23.21-.17.05,0q.27-.21.54-.39l.27-.17,0,0,.26-.14.2-.12.37-.19h0l.14-.06.41-.18.49-.18.2-.06.44-.13.14,0,.26-.06.43-.08.22,0c.15,0,.31,0,.46-.06h.09l.38,0h1.08l.33,0,.25,0,.53.08.34.07.23.06.21.05.33.1.28.09.27.1.19.07.54.25.14.07h0l.32.16.6.36,0,0,.32.22.32.25.19.15.25.21.13.12.32.32.16.15.24.26c.08.09.15.19.22.28l.3.38.19.26c.07.1.12.2.18.3l.15.24c.11.19.22.37.31.56l.15.33c.07.15.13.3.19.45s.09.23.13.35,0,.09.05.13a1.42,1.42,0,0,0,0,.16h0c0,.06,0,.11,0,.17a1.55,1.55,0,0,1,.07.23c0,.14.07.29.11.44v0l0,.17c0,.11,0,.22,0,.33l0,.2c0,.12,0,.23,0,.34v.15c0,.11,0,.22,0,.33s0,.22,0,.33v.27s0,.09,0,.13v.07c0,.2,0,.4,0,.6h0a2.54,2.54,0,0,1,0,.29h0a2.54,2.54,0,0,1,0,.29l-.09.49a2.86,2.86,0,0,0-.07.28c0,.14-.07.28-.12.42l-.09.29,0,.07c0,.09-.07.17-.1.26a5.49,5.49,0,0,1-.21.51.36.36,0,0,1,0,.09.89.89,0,0,1-.08.17l-.12.24q-.14.27-.3.54l-.13.21c0,.07-.09.13-.13.19a2.43,2.43,0,0,1-.14.2Z"/><polygon fill="#4c0e93" points="240.76 254.24 240.43 252.81 239.06 252.26 240.31 251.52 240.4 250.07 241.51 251.04 242.94 250.69 242.37 252.03 243.16 253.27 241.7 253.12 240.76 254.24"/><polygon fill="#4c0e93" points="260.77 284.32 260.44 282.9 259.07 282.35 260.32 281.61 260.41 280.16 261.52 281.13 262.95 280.78 262.38 282.11 263.17 283.35 261.7 283.21 260.77 284.32"/><polygon fill="#4c0e93" points="232.56 284.36 232.22 282.94 230.85 282.39 232.11 281.65 232.19 280.2 233.31 281.17 234.73 280.82 234.16 282.15 234.95 283.39 233.49 283.25 232.56 284.36"/><path fill="#609741" d="M220.34 268c-.17.11-.31.33-.2.41a5.36 5.36 0 01.41.46 1 1 0 01.16.74 2 2 0 01-.24.66 5.3 5.3 0 00-.58 1c-.08.26.27.6.59.84-.38-.08-.92-.25-1-.87a2.88 2.88 0 01.55-1.21 2.1 2.1 0 00.2-.49.67.67 0 000-.46c-.06-.17-.2-.31-.3-.55a.35.35 0 01.12-.38A.48.48 0 01220.34 268zM231.75 265.32c-.16.11-.3.33-.19.41s.27.26.41.46a1 1 0 01.16.73 2.34 2.34 0 01-.24.67 5.73 5.73 0 00-.59 1c-.07.27.27.61.6.85-.39-.08-.93-.25-1-.88a3.07 3.07 0 01.54-1.21 1.89 1.89 0 00.21-.48.81.81 0 000-.46c-.06-.17-.21-.31-.31-.55a.36.36 0 01.12-.38A.53.53 0 01231.75 265.32zM255.48 286.44c-.17.12-.31.34-.2.41s.28.26.41.46a1 1 0 01.16.74 2 2 0 01-.24.66 5.3 5.3 0 00-.58 1c-.08.26.27.6.59.84-.38-.08-.92-.25-1-.87a2.88 2.88 0 01.55-1.21 2.1 2.1 0 00.2-.49.73.73 0 000-.46c-.06-.17-.2-.3-.3-.55a.36.36 0 01.11-.38A.61.61 0 01255.48 286.44zM255.52 265.28c-.13.12-.26.33-.19.41a4.68 4.68 0 01.34.44 1 1 0 01.07.7 2.67 2.67 0 01-.23.59c-.21.31-.43.64-.59.92s.08.56.4.78a1 1 0 01-.56-.23.68.68 0 01-.2-.67 3.88 3.88 0 01.52-1.06 1.29 1.29 0 00.24-.88c0-.15-.16-.27-.22-.54S255.34 265.33 255.52 265.28zM257.22 278.05c-.13.12-.26.33-.19.41a4.68 4.68 0 01.34.44 1 1 0 01.07.7 2.88 2.88 0 01-.23.59c-.21.31-.44.64-.59.91s.08.57.4.79a1 1 0 01-.56-.23.71.71 0 01-.21-.67 3.89 3.89 0 01.53-1.06 1.34 1.34 0 00.24-.88c0-.16-.16-.27-.22-.54S257 278.1 257.22 278.05zM232.37 286.16c-.13.13-.26.34-.19.41a3.92 3.92 0 01.34.45 1 1 0 01.07.69 2.15 2.15 0 01-.24.59c-.2.32-.43.65-.58.92s.08.56.4.79a1 1 0 01-.56-.23.71.71 0 01-.21-.67 4.11 4.11 0 01.53-1.07 1.3 1.3 0 00.24-.87c0-.16-.16-.28-.23-.54S232.19 286.22 232.37 286.16z"/><ellipse cx="225.19" cy="266.73" fill="#fbb641" rx="2.93" ry="2.52" transform="rotate(-59.65 225.2 266.724)"/><ellipse cx="252.09" cy="282.47" fill="#fbb641" rx="2.93" ry="2.52" transform="rotate(-59.65 252.091 282.476)"/><path fill="#fce6d9" d="M224.8 264.85l.07.42a1 1 0 00-.83.13A3.17 3.17 0 01224.8 264.85zM251.83 280.68l.07.42a1 1 0 00-.83.13S251.62 280.71 251.83 280.68z"/><ellipse cx="237.68" cy="290.53" fill="#fbb641" rx="2.93" ry="2.52" transform="rotate(-59.65 237.682 290.532)"/><path fill="#fce6d9" d="M237.28,288.66l.07.41a1,1,0,0,0-.83.13A2.93,2.93,0,0,1,237.28,288.66Z"/><ellipse cx="259.77" cy="266.36" fill="#fbb641" rx="2.93" ry="2.52" transform="rotate(-59.65 259.778 266.36)"/><path fill="#fce6d9" d="M259.38,264.49l.07.41a1,1,0,0,0-.84.13A3,3,0,0,1,259.38,264.49Z"/><path fill="#d64142" d="M266.86 269.18c-5 2.63-12 2.24-14.89 1.94a9.49 9.49 0 010 3.9c2.65 1.29 7.54 2.85 14.88 2.08A24.48 24.48 0 00266.86 269.18zM257.23 292.78c-5.59-2.42-8.49-7.65-9.91-11.43a9.57 9.57 0 01-4.12 1.23 38.68 38.68 0 00.24 15A24.58 24.58 0 00257.23 292.78zM234.39 277.83c-.11-.19-.22-.38-.32-.58 0 0 0 0 0-.05s-.07-.15-.11-.22l-.17-.42c-.05-.13-.11-.27-.16-.41s-.05-.15-.07-.23l-.09-.31v0s0 0 0-.06a4.21 4.21 0 01-.12-.48 1.62 1.62 0 010-.19l-.06-.35c0-.09 0-.17 0-.26l0-.25c0-.08 0-.15 0-.22s0-.2 0-.3a.28.28 0 000-.09v-.32a.49.49 0 010-.12 2.44 2.44 0 000-.27c0-.19 0-.37 0-.55h0a47.38 47.38 0 00-14.94 3.41.08.08 0 000 0 2.85 2.85 0 000 .29l0 .24c0 .44-1.53 2.88.86 7.34 1.82 3.42 6.28 7.1 6.36 7.18C226.84 284.77 230.81 280.55 234.39 277.83zM245.18 251s9.14-8.36 12.86-3.93c0 0 1.2 1.18.4 4.83s-.66 4.43-3.05 6.13l-.18.11c-2.57 1.34-10.05-3.76-10.05-3.76S246.17 254 245.18 251zM240.78 254.52c-.22.15-7.52 5.08-10.05 3.76l-.18-.11c-2.39-1.7-2.26-2.48-3.05-6.13s.4-4.83.4-4.83c3.26-3.88 10.68 2.06 12.47 3.59v.2C240.46 252.4 240.31 253.75 240.78 254.52z"/><path fill="#d64142" d="M240.78,254.52a1.36,1.36,0,0,0,1.19.65,5.47,5.47,0,0,0,2.32-.35h0c-6.17,8.12-5,14.83-5,14.83-2-.13-3.45-5.87-3.45-5.87a10.28,10.28,0,0,0-4.25,1.3c.12-1.57,3.69-7,4.19-7.74A40.28,40.28,0,0,0,240.78,254.52Z"/><path fill="#bf2824" d="M240.78,254.52a40.28,40.28,0,0,1-5,2.82l-.37.57a33.55,33.55,0,0,0,5.74-3A1.24,1.24,0,0,1,240.78,254.52Z"/><path fill="#d64142" d="M244.29,254.82c-.49.64-.93,1.28-1.33,1.9.86,1.14,2.43,4,3,10.19,0,0,2.26.13,2.4-5.48,0,0,4.65.78,4.11,1.7,0,0,1.37-1.66-2.81-6.15a40.79,40.79,0,0,1-4.49-2.59l-.09.05-.07,0a4.49,4.49,0,0,1-.71.33h0a4.49,4.49,0,0,0,.71-.33l.07,0,.09-.05Z"/><path fill="#d64142" d="M244.29,254.82c-.49.64-.93,1.28-1.33,1.9.86,1.14,2.43,4,3,10.19,0,0,2.26.13,2.4-5.48,0,0,4.65.78,4.11,1.7,0,0,1.37-1.66-2.81-6.15a40.79,40.79,0,0,1-4.49-2.59l-.09.05-.07,0a4.49,4.49,0,0,1-.71.33h0a4.49,4.49,0,0,0,.71-.33l.07,0,.09-.05Z"/><path fill="#d64142" d="M244.29,254.82c-.49.64-.93,1.28-1.33,1.9.86,1.14,2.43,4,3,10.19,0,0,2.26.13,2.4-5.48,0,0,4.65.78,4.11,1.7,0,0,1.37-1.66-2.81-6.15a40.79,40.79,0,0,1-4.49-2.59l-.09.05-.07,0a4.49,4.49,0,0,1-.71.33h0a4.49,4.49,0,0,0,.71-.33l.07,0,.09-.05Z"/><path fill="#d64142" d="M244.29,254.82c-.49.64-.93,1.28-1.33,1.9.86,1.14,2.43,4,3,10.19,0,0,2.26.13,2.4-5.48,0,0,4.65.78,4.11,1.7,0,0,1.37-1.66-2.81-6.15a40.79,40.79,0,0,1-4.49-2.59l-.09.05-.07,0a4.49,4.49,0,0,1-.71.33h0a4.49,4.49,0,0,0,.71-.33l.07,0,.09-.05Z"/><path fill="#bf2824" d="M249.65 257a40.79 40.79 0 01-4.49-2.59l-.57.28a35.18 35.18 0 005.69 3zM248.35 261.43c-.1 4.16-1.37 5.16-2 5.4a1.49 1.49 0 010 .21s2.26.13 2.39-5.48a23.06 23.06 0 012.55.59A21.92 21.92 0 00248.35 261.43z"/><path fill="#bf2824" d="M250,257.11a40.09,40.09,0,0,1-4.48-2.59l-.12,0a39,39,0,0,0,4.21,2.41c3,3.25,3.15,5,3,5.74.24.17.34.35.23.54C252.86,263.26,254.23,261.6,250,257.11Z"/><path fill="#d64142" d="M241.88,249.22a3.82,3.82,0,0,1-.68.05c-.34,0-.92.24-.83,1.73.14,2.08-.26,4,1.6,4.17a5.43,5.43,0,0,0,3.19-.78s1.21-.48-.31-4.29a1.54,1.54,0,0,0-1.24-.95A6.3,6.3,0,0,0,241.88,249.22Z"/><path fill="#bf2824" d="M245.16,254.39a5.43,5.43,0,0,1-3.19.78c-1.86-.13-1.46-2.09-1.6-4.17v-.18a3.22,3.22,0,0,0,0,.44c.14,2.08-.26,4,1.6,4.17a5.43,5.43,0,0,0,3.19-.78s.49-.2.45-1.34C245.58,254.22,245.16,254.39,245.16,254.39Z"/><path fill="#bf2824" d="M240.77 254.51l-.07-.13h0a1.61 1.61 0 01-.12-.33v0c0-.06 0-.11 0-.17h0l0-.19h0a1.1 1.1 0 000-.18v0c0-.06 0-.12 0-.18v0a1.27 1.27 0 010-.2v-.39c0-.35 0-.72 0-1.1h0c0-.08 0-.16 0-.23v0c0-.08 0-.16 0-.24v-.2l-.27-.23c0 .13 0 .27 0 .43.09 1.48-.08 2.9.48 3.64l.19-.12zM245.2 251.05a.56.56 0 000 .12 1.54 1.54 0 000 .17l0 .11a.83.83 0 010 .15l0 .11a1 1 0 010 .14.43.43 0 010 .11.61.61 0 010 .13.36.36 0 010 .1l0 .12s0 .06 0 .09a.51.51 0 010 .13s0 .05 0 .07 0 .09 0 .13v.06c0 .06 0 .12 0 .17v0s0 .07 0 .11v.15s0 0 0 .06v.26s0 0 0 .06v.15l0 0v0s0 0 0 0v0s0 0 0 0v0l0 .05h0l0 .06h0l0 0h0l0 0h0v0l0 0h0v0h-.08l.12.08.14-.08s1.06-.42 0-3.56l-.21.18z"/><path fill="#b8303c" d="M246.35 251.65a4.18 4.18 0 012.06-1.12 3.46 3.46 0 012.33.21 10.37 10.37 0 00-1.14.08 7.9 7.9 0 00-1.08.2C247.8 251.18 247.1 251.41 246.35 251.65zM246.49 252a2.89 2.89 0 01.9-.3 3.77 3.77 0 011 0 2.6 2.6 0 01.94.27 1.26 1.26 0 01.66.72 3.17 3.17 0 00-1.65-.49C247.71 252.13 247.12 252.13 246.49 252zM239.43 251.65c-.75-.24-1.45-.47-2.17-.63a7.9 7.9 0 00-1.08-.2 10.37 10.37 0 00-1.14-.08 3.47 3.47 0 012.33-.21A4.18 4.18 0 01239.43 251.65zM239.29 252c-.63.09-1.22.09-1.8.16a3.17 3.17 0 00-1.65.49 1.29 1.29 0 01.66-.72 2.6 2.6 0 01.94-.27 3.77 3.77 0 01.95 0A2.89 2.89 0 01239.29 252z"/><path fill="#bf2824" d="M244.08 255.11c-5.93 8-4.77 14.54-4.77 14.54a1.83 1.83 0 01-.32-.07 1.48 1.48 0 00.59.2s-1.2-6.71 5-14.83zM235.86 263.78a9.7 9.7 0 00-3.93 1.13 2 2 0 00-.06.3 10.74 10.74 0 014-1.3z"/><path fill="#fce6d9" d="M229 248.08l.27.32a1 1 0 00-.65.54A3.09 3.09 0 01229 248.08zM241.48 250.43l.27.32a1 1 0 00-.65.54A3.09 3.09 0 01241.48 250.43z"/></svg>