<svg xmlns="http://www.w3.org/2000/svg"  viewBox="0 0 128 128" width="64px" height="64px"><path fill="#ff9c31" d="M117.5,18l-5.1-2.438a5.013,5.013,0,0,1-2.84-4.862l.3-4.371a2.753,2.753,0,0,0-3.577-2.619c-4.877,1.543-6.926,5.7-14.087,7.531l7.054,22.223c11.377-.646,17.989-8.132,19.237-10.489C119.488,21.069,119.317,19.155,117.5,18Z"/><path fill="#ff9c31" d="M21.724,3.707a2.753,2.753,0,0,0-3.577,2.619l.3,4.371a5.013,5.013,0,0,1-2.84,4.862L10.5,18c-1.815,1.158-1.986,3.072-.978,4.975,1.248,2.357,7.86,9.843,19.237,10.489l7.054-22.223C28.65,9.409,26.6,5.25,21.724,3.707Z"/><path fill="#ffb339" d="M82.746,7.194c-5.712.1-14.919,8.74-17.2,19.077v14.4s29.2,2.416,30.954,0,2.743-7.206,2.743-7.206C103.151,20.189,91.75,7.032,82.746,7.194Z"/><path fill="#ffb339" d="M45.254,7.194c-9-.162-20.4,13-16.5,26.267,0,0,.93,4.977,3.243,6.727s30.394.777,30.394.777V26.272C60.113,15.935,50.966,7.3,45.254,7.194Z"/><path fill="#f28a2c" d="M70.073,31.285a1.5,1.5,0,0,1-1.288-2.267c.547-.918,1.648-1.359,3.042-1.918,1.42-.57,3.189-1.28,4.075-2.471a1.5,1.5,0,0,1,2.407,1.792c-1.392,1.869-3.689,2.79-5.366,3.463a10.219,10.219,0,0,0-1.631.748A1.5,1.5,0,0,1,70.073,31.285Zm1.215-.632Zm.075-.1h0Z"/><path fill="#f28a2c" d="M57.927,31.285a1.5,1.5,0,0,1-1.24-.653,10.159,10.159,0,0,0-1.63-.748c-1.677-.673-3.974-1.594-5.366-3.463A1.5,1.5,0,0,1,52.1,24.629c.886,1.191,2.655,1.9,4.075,2.471,1.394.559,2.495,1,3.042,1.918a1.5,1.5,0,0,1-1.288,2.267Zm-1.215-.632Zm-.075-.1h0Z"/><path fill="#ff9c31" d="M57.558,33.461H70.477C71.821,23.7,56.148,23.618,57.558,33.461Z"/><rect width="107.057" height="86.829" x="10.471" y="38.593" fill="#f95877" rx="5.309" ry="5.309"/><rect width="26.821" height="61.11" x="50.589" y="64.312" fill="#ffe8e3"/><rect width="120.08" height="31.852" x="3.96" y="32.461" fill="#ff6687" rx="5.309" ry="5.309"/><rect width="32.964" height="31.852" x="47.518" y="32.461" fill="#fff3f0"/></svg>