<svg xmlns="http://www.w3.org/2000/svg" enable-background="new 0 0 6000 4000" viewBox="0 0 6000 4000"><path fill="#fff" d="M5041.4 1245.1h-19.6l7.8-10c2.3-3 1.8-7.2-1.2-9.5-3-2.3-7.2-1.8-9.5 1.2l0 0-14.3 18.3h-44.7l23.9-34.1c2.2-3.1 1.4-7.3-1.7-9.5-3.1-2.2-7.3-1.4-9.5 1.7v0l-29.4 41.9h-74.6l37.9-64 51-1.4c3.7-.1 6.7-3.2 6.6-7-.1-3.7-3.2-6.7-7-6.6l-42.5 1.1 22.3-37.7 32.7 0c3.7 0 6.8-3 6.8-6.8 0-3.7-3-6.8-6.8-6.8l-24.6 0 11.9-20.2c1.9-3.2.8-7.4-2.4-9.3-3.2-1.9-7.4-.8-9.3 2.4l-10.3 17.5-4.7-11.8c-1.4-3.5-5.3-5.2-8.8-3.8-3.5 1.4-5.2 5.3-3.8 8.8l0 0 8.5 21.6-22.8 38.5-17.1-37.9c-1.5-3.4-5.6-4.9-9-3.4-3.4 1.5-4.9 5.6-3.4 9l0 0 21.1 46.6-40.4 68.4-39.4-66.9 24.2-43.6c1.8-3.3.6-7.4-2.6-9.2-3.3-1.8-7.4-.6-9.2 2.6l-20.4 36.6-21.9-37.1 17.1-28.9c1.9-3.2.8-7.4-2.4-9.3-3.2-1.9-7.4-.8-9.3 2.4l-13.2 22.4-20.4-34.6c-1.9-3.2-6.1-4.3-9.3-2.4-3.2 1.9-4.3 6.1-2.4 9.3l17.7 30.1-10.8-1.7c-3.7-.6-7.2 1.9-7.8 5.6-.6 3.7 1.9 7.2 5.6 7.8l0 0 21.9 3.5 23.2 39.4-42-4.6c-3.7-.4-7.1 2.3-7.5 6-.4 3.7 2.3 7.1 6 7.5l0 0 52.1 5.7 36.7 62.2h-68.1l-27.4-46.7c-1.9-3.2-6.1-4.3-9.3-2.4-3.2 1.9-4.3 6.1-2.4 9.3l23.3 39.9h-43.6c-.1-.7-.4-1.4-.7-2l-17.2-31.2c-1.8-3.3-5.9-4.5-9.2-2.7-3.3 1.8-4.5 5.9-2.7 9.2l14.7 26.6h-34.9c-3.7 0-6.8 3-6.8 6.8 0 3.7 3 6.8 6.8 6.8h24.4l-3.8 4.6c-2.4 2.9-2 7.2.9 9.6 2.9 2.4 7.2 2 9.6-.9v0l11-13.3h46.1l-22.6 30.1c-2.3 3-1.6 7.3 1.4 9.5 3 2.2 7.3 1.6 9.5-1.4l0 0 28.7-38.2h76.8l-36.9 62.5-50.2-.2c-3.7 0-6.8 3-6.8 6.8 0 3.7 3 6.8 6.8 6.8l42.3.2-21.9 37.1-34-1c-3.7-.1-6.9 2.8-7 6.6-.1 3.7 2.8 6.9 6.6 7l26.5.8-14.1 23.8c-1.9 3.2-.8 7.4 2.4 9.3 3.2 1.9 7.4.8 9.3-2.4l11.1-18.8 3.5 9.8c1.3 3.5 5.2 5.4 8.7 4.1 3.5-1.3 5.4-5.2 4.1-8.7l0 0-7.3-20.4 23.3-39.5 16 38.6c1.4 3.5 5.4 5.1 8.9 3.7 3.5-1.4 5.1-5.4 3.7-8.9v0l-19.9-48.1 34.8-58.8 36.2 61.5-27 45.2c-1.9 3.2-.9 7.4 2.3 9.3 3.2 1.9 7.4.9 9.3-2.3l23.2-38.8 21.8 37.1c-.7.5-1.3 1.1-1.7 1.8l-19 30.1c-2 3.2-1.1 7.4 2.1 9.4 3.2 2 7.4 1.1 9.4-2.1l16.6-26.2.4.1 12.9 21.8c1.9 3.2 6.1 4.3 9.3 2.4 3.2-1.9 4.3-6.1 2.4-9.3l-6.8-11.5 4.4.8c3.7.7 7.2-1.7 7.9-5.4.7-3.7-1.7-7.2-5.4-7.9l0 0-16.1-3.1-24-40.7 38.2 5.4c3.7.5 7.1-2.1 7.7-5.8.5-3.7-2.1-7.1-5.8-7.7l0 0-48.9-6.9-39.7-67.5h78.9l27.2 43.2c2 3.2 6.2 4.1 9.4 2.1 3.2-2 4.1-6.2 2.1-9.4l-22.6-36h43.8l16.7 28.1c1.9 3.2 6.1 4.3 9.3 2.4 3.2-1.9 4.3-6.1 2.4-9.3l-12.6-21.2h22.7c3.7 0 6.8-3 6.8-6.8C5048.2 1248.1 5045.1 1245.1 5041.4 1245.1zM1423.4 1310.3h-24l9.5-12.3c2.8-3.6 2.2-8.8-1.5-11.7-3.6-2.8-8.8-2.2-11.7 1.5l0 0-17.5 22.5h-54.8l29.3-41.7c2.6-3.8 1.7-8.9-2-11.6-3.8-2.6-8.9-1.7-11.6 2l0 0-36 51.3h-91.3l46.4-78.4 62.5-1.7c4.6-.1 8.2-3.9 8.1-8.5-.1-4.6-3.9-8.2-8.5-8.1l-52 1.4 27.3-46.2 40 0c4.6 0 8.3-3.7 8.3-8.3 0-4.6-3.7-8.3-8.3-8.3l-30.2 0 14.6-24.7c2.3-3.9 1-9-2.9-11.4-3.9-2.3-9-1-11.4 2.9l-12.7 21.4-5.7-14.4c-1.7-4.3-6.5-6.4-10.8-4.7-4.3 1.7-6.4 6.5-4.7 10.8l0 0 10.4 26.5-27.9 47.1-21-46.4c-1.9-4.2-6.8-6-11-4.2-4.2 1.9-6 6.8-4.2 11l0 0 25.8 57.1-49.5 83.7-48.3-81.9 29.7-53.4c2.2-4 .8-9.1-3.2-11.3-4-2.2-9.1-.8-11.3 3.2l-24.9 44.9-26.8-45.5 20.9-35.4c2.3-4 1-9-2.9-11.4-4-2.3-9-1-11.4 2.9l-16.2 27.5-25-42.4c-2.3-4-7.4-5.3-11.4-2.9-4 2.3-5.3 7.4-2.9 11.4l21.7 36.8-13.2-2.1c-4.5-.7-8.8 2.4-9.5 6.9-.7 4.5 2.4 8.8 6.9 9.5l0 0 26.8 4.3 28.4 48.3-51.4-5.7c-4.6-.5-8.7 2.8-9.2 7.3-.5 4.6 2.8 8.7 7.3 9.2l0 0 63.7 7 44.9 76.2H1094l-33.5-57.2c-2.3-4-7.4-5.3-11.4-3-4 2.3-5.3 7.4-3 11.4l28.6 48.8h-53.3c-.2-.8-.4-1.7-.9-2.5l-21-38.2c-2.2-4-7.3-5.5-11.3-3.3-4 2.2-5.5 7.3-3.3 11.3l18 32.6h-42.8c-4.6 0-8.3 3.7-8.3 8.3 0 4.6 3.7 8.3 8.3 8.3H990l-4.7 5.7c-2.9 3.5-2.4 8.8 1.1 11.7 3.5 2.9 8.8 2.4 11.7-1.1l0 0 13.5-16.3h56.5l-27.6 36.8c-2.8 3.7-2 8.9 1.7 11.6 3.7 2.8 8.9 2 11.6-1.7l0 0 35.1-46.8h94l-45.2 76.4-61.5-.3c-4.6 0-8.3 3.7-8.3 8.3 0 4.6 3.7 8.3 8.3 8.3l51.8.2-26.8 45.4-41.6-1.3c-4.6-.1-8.4 3.5-8.6 8.1-.1 4.6 3.5 8.4 8.1 8.6l32.5 1-17.2 29.2c-2.3 3.9-1 9 2.9 11.4 3.9 2.3 9 1 11.4-2.9l13.6-23 4.3 12c1.6 4.3 6.3 6.6 10.6 5 4.3-1.6 6.6-6.3 5-10.6l0 0-9-24.9 28.6-48.3 19.6 47.3c1.8 4.2 6.6 6.2 10.9 4.5 4.2-1.8 6.2-6.6 4.5-10.9l0 0-24.4-58.8 42.5-71.9 44.3 75.3-33 55.3c-2.4 3.9-1.1 9 2.9 11.4 3.9 2.4 9 1.1 11.4-2.9l28.4-47.5 26.7 45.4c-.8.6-1.5 1.3-2.1 2.2l-23.3 36.8c-2.5 3.9-1.3 9 2.6 11.5 3.9 2.5 9 1.3 11.5-2.6l20.3-32 .5.1 15.7 26.7c2.3 4 7.4 5.3 11.4 2.9 4-2.3 5.3-7.4 2.9-11.4l-8.3-14.1 5.4 1c4.5.9 8.9-2.1 9.7-6.6.9-4.5-2.1-8.9-6.6-9.7l0 0-19.7-3.8-29.3-49.8 46.7 6.6c4.5.6 8.7-2.5 9.4-7.1.6-4.5-2.5-8.7-7.1-9.4l0 0-59.8-8.5-48.6-82.6h96.6l33.2 52.9c2.4 3.9 7.6 5.1 11.5 2.6 3.9-2.4 5.1-7.6 2.6-11.5l-27.7-44.1h53.7l20.4 34.4c2.3 3.9 7.4 5.3 11.4 2.9 3.9-2.3 5.3-7.4 2.9-11.4l-15.4-26h27.8c4.6 0 8.3-3.7 8.3-8.3C1431.7 1314 1428 1310.3 1423.4 1310.3zM4879 3090.4h-18.4l7.3-9.4c2.2-2.8 1.7-6.8-1.1-8.9-2.8-2.2-6.8-1.7-8.9 1.1v0l-13.4 17.2h-42l22.5-32c2-2.9 1.3-6.9-1.6-8.9-2.9-2-6.9-1.3-8.9 1.6v0l-27.6 39.3h-70.1l35.6-60.1 47.9-1.3c3.5-.1 6.3-3 6.2-6.5-.1-3.5-3-6.3-6.5-6.2l-39.9 1.1 21-35.4 30.7 0c3.5 0 6.4-2.9 6.4-6.4 0-3.5-2.9-6.4-6.4-6.4l-23.1 0 11.2-18.9c1.8-3 .8-6.9-2.2-8.7-3-1.8-6.9-.8-8.7 2.2l-9.7 16.4-4.4-11.1c-1.3-3.3-5-4.9-8.3-3.6-3.3 1.3-4.9 5-3.6 8.3l0 0 8 20.3-21.4 36.2-16.1-35.6c-1.4-3.2-5.2-4.6-8.4-3.2-3.2 1.4-4.6 5.2-3.2 8.4v0l19.8 43.8-38 64.2-37-62.9 22.8-41c1.7-3.1.6-7-2.5-8.7-3.1-1.7-7-.6-8.7 2.5l-19.1 34.4-20.5-34.9 16-27.2c1.8-3 .8-6.9-2.2-8.7-3-1.8-6.9-.8-8.7 2.2l-12.4 21.1-19.2-32.5c-1.8-3-5.7-4-8.7-2.3-3 1.8-4 5.7-2.3 8.7l16.6 28.3-10.2-1.6c-3.5-.6-6.7 1.8-7.3 5.3-.6 3.5 1.8 6.7 5.3 7.3l0 0 20.5 3.3 21.8 37-39.4-4.3c-3.5-.4-6.6 2.1-7 5.6-.4 3.5 2.1 6.6 5.6 7v0l48.9 5.4 34.4 58.4h-64l-25.7-43.9c-1.8-3-5.7-4.1-8.7-2.3-3 1.8-4.1 5.7-2.3 8.7l21.9 37.4h-40.9c-.1-.6-.3-1.3-.7-1.9l-16.1-29.3c-1.7-3.1-5.6-4.2-8.7-2.5-3.1 1.7-4.2 5.6-2.5 8.7l13.8 25h-32.8c-3.5 0-6.4 2.9-6.4 6.4 0 3.5 2.9 6.4 6.4 6.4h22.9l-3.6 4.3c-2.2 2.7-1.9 6.7.8 9 2.7 2.2 6.7 1.9 9-.8v0l10.3-12.5h43.3l-21.2 28.3c-2.1 2.8-1.5 6.8 1.3 8.9 2.8 2.1 6.8 1.5 8.9-1.3l0 0 26.9-35.9h72.1l-34.7 58.6-47.2-.2c-3.5 0-6.4 2.8-6.4 6.3 0 3.5 2.8 6.4 6.3 6.4l39.7.2-20.6 34.8-31.9-1c-3.5-.1-6.5 2.7-6.6 6.2-.1 3.5 2.7 6.5 6.2 6.6l24.9.8-13.2 22.4c-1.8 3-.8 6.9 2.2 8.7 3 1.8 6.9.8 8.7-2.2l10.4-17.6 3.3 9.2c1.2 3.3 4.8 5 8.2 3.8 3.3-1.2 5-4.8 3.8-8.2l0 0-6.9-19.1 21.9-37.1 15 36.3c1.3 3.3 5.1 4.8 8.3 3.4 3.3-1.3 4.8-5.1 3.4-8.3v0l-18.7-45.1 32.6-55.2 34 57.7-25.3 42.4c-1.8 3-.8 6.9 2.2 8.7 3 1.8 6.9.8 8.7-2.2l21.8-36.4 20.5 34.8c-.6.5-1.2 1-1.6 1.7l-17.9 28.2c-1.9 3-1 6.9 2 8.8 3 1.9 6.9 1 8.8-2l15.6-24.6.4.1 12.1 20.5c1.8 3 5.7 4 8.7 2.3 3-1.8 4-5.7 2.3-8.7l-6.4-10.8 4.1.8c3.5.7 6.8-1.6 7.5-5.1.7-3.5-1.6-6.8-5.1-7.5v0l-15.1-2.9-22.5-38.2 35.8 5.1c3.5.5 6.7-1.9 7.2-5.4s-1.9-6.7-5.4-7.2l0 0-45.9-6.5-37.3-63.4h74.1l25.5 40.6c1.9 3 5.8 3.9 8.8 2s3.9-5.8 2-8.8l-21.2-33.8h41.2l15.6 26.4c1.8 3 5.7 4 8.7 2.2 3-1.8 4-5.7 2.2-8.7l-11.8-19.9h21.3c3.5 0 6.4-2.9 6.4-6.4C4885.3 3093.2 4882.5 3090.4 4879 3090.4zM2284.6 495.6h-17.2l6.8-8.8c2-2.6 1.5-6.3-1-8.4-2.6-2-6.3-1.5-8.4 1l0 0-12.5 16.1h-39.2l21-29.9c1.9-2.7 1.2-6.4-1.4-8.3-2.7-1.9-6.4-1.2-8.3 1.4l0 0-25.8 36.7h-65.4l33.2-56.2 44.7-1.2c3.3-.1 5.9-2.8 5.8-6.1-.1-3.3-2.8-5.9-6.1-5.8l-37.3 1 19.6-33.1 28.7 0c3.3 0 5.9-2.7 5.9-6 0-3.3-2.7-5.9-6-5.9l-21.6 0 10.5-17.7c1.7-2.8.7-6.5-2.1-8.2-2.8-1.7-6.5-.7-8.2 2.1l-9.1 15.3-4.1-10.3c-1.2-3.1-4.7-4.6-7.7-3.3-3.1 1.2-4.6 4.7-3.3 7.7l0 0 7.5 18.9-20 33.8-15-33.3c-1.4-3-4.9-4.3-7.9-3-3 1.4-4.3 4.9-3 7.9l0 0 18.5 40.9-35.4 59.9-34.6-58.7 21.2-38.2c1.6-2.9.6-6.5-2.3-8.1-2.9-1.6-6.5-.6-8.1 2.3l-17.8 32.1L2060 390l15-25.4c1.7-2.8.7-6.5-2.1-8.1-2.8-1.7-6.5-.7-8.1 2.1l-11.6 19.7-17.9-30.4c-1.7-2.8-5.3-3.8-8.1-2.1-2.8 1.7-3.8 5.3-2.1 8.1l15.5 26.4-9.5-1.5c-3.2-.5-6.3 1.7-6.8 4.9-.5 3.2 1.7 6.3 4.9 6.8l0 0 19.2 3.1 20.4 34.6-36.8-4.1c-3.3-.4-6.2 2-6.6 5.3-.4 3.3 2 6.2 5.3 6.6l0 0 45.7 5 32.1 54.6h-59.7l-24-41c-1.7-2.8-5.3-3.8-8.1-2.1-2.8 1.7-3.8 5.3-2.1 8.1l20.5 35h-38.2c-.1-.6-.3-1.2-.6-1.8l-15.1-27.3c-1.6-2.9-5.2-3.9-8.1-2.3-2.9 1.6-3.9 5.2-2.3 8.1l12.9 23.4h-30.6c-3.3 0-6 2.7-6 6 0 3.3 2.7 6 6 6h21.4l-3.4 4c-2.1 2.5-1.7 6.3.8 8.4 2.5 2.1 6.3 1.7 8.4-.8l0 0 9.6-11.6h40.4l-19.8 26.4c-2 2.6-1.4 6.4 1.2 8.3 2.6 2 6.4 1.4 8.3-1.2l0 0 25.2-33.5h67.4l-32.4 54.8-44.1-.2c-3.3 0-6 2.6-6 5.9 0 3.3 2.6 6 5.9 6l37.1.2-19.2 32.5-29.8-.9c-3.3-.1-6 2.5-6.1 5.8-.1 3.3 2.5 6 5.8 6.1l23.3.7-12.4 20.9c-1.7 2.8-.7 6.5 2.1 8.2s6.5.7 8.2-2.1l9.7-16.4 3.1 8.6c1.1 3.1 4.5 4.7 7.6 3.6 3.1-1.1 4.7-4.5 3.6-7.6l0 0-6.4-17.8 20.5-34.6 14 33.9c1.3 3 4.7 4.5 7.8 3.2 3-1.3 4.5-4.7 3.2-7.8l0 0-17.5-42.1 30.5-51.5 31.8 53.9-23.6 39.6c-1.7 2.8-.8 6.5 2.1 8.2 2.8 1.7 6.5.8 8.2-2.1l20.3-34 19.1 32.5c-.6.4-1.1 1-1.5 1.6l-16.7 26.4c-1.8 2.8-.9 6.5 1.8 8.2 2.8 1.8 6.5.9 8.2-1.8l14.5-23 .4.1 11.3 19.1c1.7 2.8 5.3 3.8 8.1 2.1 2.8-1.7 3.8-5.3 2.1-8.1l-6-10.1 3.8.7c3.2.6 6.3-1.5 7-4.7.6-3.2-1.5-6.3-4.7-7l0 0-14.1-2.7-21-35.7 33.5 4.7c3.3.5 6.3-1.8 6.7-5.1.5-3.3-1.8-6.3-5.1-6.7l0 0-42.9-6.1-34.8-59.1h69.2l23.8 37.9c1.7 2.8 5.4 3.6 8.2 1.9 2.8-1.7 3.6-5.4 1.9-8.2l-19.8-31.6h38.4l14.6 24.7c1.7 2.8 5.3 3.8 8.2 2.1 2.8-1.7 3.8-5.3 2.1-8.2l-11-18.6h19.9c3.3 0 6-2.7 6-6C2290.6 498.3 2287.9 495.6 2284.6 495.6z"/><path fill="#d1e5db" d="M4549.7,3086.9c0,159.2-21.7,313.2-62.2,459.5l-3322.6-45.4c-118.9-452.6-41.3-931.7,216.2-1341.6
			c5.5-5.5,11.1-11.1,16.6-19.4c30.5-49.8,63.7-94.2,99.7-141.2c44.3-49.8,83.1-94.2,130.2-138.5c27.7-24.9,52.6-49.8,80.3-74.8
			c11.1-8.3,22.2-16.6,33.2-27.7c37.8-30.2,75.6-58.2,114.1-84.6c26.2-17.9,52.6-35.2,79.6-51.8c20.4-12.7,41.2-25,62.3-37.2
			c723.2-321.2,1306.5-302.3,1763.8,22.5c52.9,37.6,104.1,79.2,153.6,125c57.5,53,112.8,111.5,165.8,175.3
			C4371.2,2214.7,4549.7,2629.9,4549.7,3086.9z"/><path fill="#f2f6f4" d="M3918.4,1727.7c-287.7,60-1224.9,154.1-1823.5,1.6c-91.4-23.3-169.3-43.1-235.8-60.1
		c26.2-17.9,52.6-35.2,79.6-51.8c36.1,8.3,74.9,16.6,116.7,25c522.5,105.3,1235.1,89.6,1709.4-39.7
		C3817.7,1640.4,3868.9,1682,3918.4,1727.7z"/><path fill="#16623e" d="M3924,2997c-130.2-52.6-257.5-108-376.6-196.6c-105.2-77.5-235.4-138.5-360-94.2
		c-63.7,22.2-116.3,77.5-185.5,96.9c-91.4,24.9-185.5,13.8-274.2-13.8c-16.6-8.3-44.3,0-55.4-11.1c-19.4-16.6-38.8-11.1-55.4-24.9
		c-8.3-2.8-16.6,2.8-24.9,0c-88.6-30.5-185.5-2.8-276.9-13.8c-5.5-2.8-8.3-8.3-13.8-11.1c-27.7-8.3-49.8-11.1-77.5-27.7
		c-23.8-13-47.9-24.9-72.1-36c-10.7,1.3-21.7,2.7-33.1,4.4c-373.1,53.3-645.5-82.9-645.5-82.9s1160.8,663.3,2043.2,923.9
		c882.4,260.6,941.7,5.9,941.7,5.9s-112.5-242.8-219.1-408.6c-27-42-52.1-70.7-75.9-92.3c-61-1.8-122.1-4.3-183.4-6.9
		C3960,3008.1,3940.7,3002.5,3924,2997z"/><path fill="#fff" d="M3287.1,2642.5c102.5,2.8,202.2-11.1,307.4,5.5c13.8,2.8,22.2,27.7,36,33.2c63.7,30.5,135.7,47.1,185.5,102.5
		c30.5,27.7,83.1,36,121.8,22.2c0.4-0.1,0.8-0.3,1.3-0.4c-95.8-143.3-261.8-367.4-422.9-367.4c-87.8,0-221.9,81-365.1,161.5
		C3204.9,2590,3260.4,2596.2,3287.1,2642.5z"/><path fill="#369141" d="M3966.4,2846.7c-8.3-12.7-17.4-26.5-27.2-41.3c-0.4,0.1-0.8,0.3-1.3,0.4c-38.8,13.8-91.4,5.5-121.8-22.2
		c-49.8-55.4-121.8-72-185.5-102.5c-13.8-5.5-22.2-30.5-36-33.2c-105.2-16.6-204.9-2.8-307.4-5.5c-26.7-46.4-82.2-52.5-136-42.9
		c-146.6,82.4-302.7,164.3-428.5,158.3c-241.2-11.5-231.8-134.3-571-93.2c24.2,11.1,48.3,22.9,72.1,36
		c27.7,16.6,49.8,19.4,77.5,27.7c5.5,2.8,8.3,8.3,13.8,11.1c91.4,11.1,188.3-16.6,276.9,13.8c8.3,2.8,16.6-2.8,24.9,0
		c16.6,13.8,36,8.3,55.4,24.9c11.1,11.1,38.8,2.8,55.4,11.1c88.6,27.7,182.8,38.8,274.2,13.8c69.2-19.4,121.8-74.8,185.5-96.9
		c124.6-44.3,254.8,16.6,360,94.2c119.1,88.6,246.5,144,376.6,196.6c16.6,5.5,36,11.1,55.4,11.1c61.3,2.6,122.4,5.2,183.4,6.9
		C4092.4,2951.1,4032.7,2948.5,3966.4,2846.7z"/><path fill="#fff" d="M3200.6,3210.1c-734.4-210.1-1645.3-565.9-1918-818c-36.2-42.6-66.8-89.9-79.7-137.5
		c-42.1-155.3-156.6-35.4-71.1,153.4c-90.8-3.3-118.4,95.4-38.2,209.9c34.2,129,54.7,163.2,20.8,242.2
		c-33.9,79-203.7,589.3,116.1,675c647.5,0,3212-1.3,3239.3-1.3C4469.8,3533.7,3998.3,3438.3,3200.6,3210.1z"/><path fill="#f33" stroke="#1a1a1a" stroke-miterlimit="10" stroke-width="2" d="M4341.8,1822.3c0,0,0,0-228.1-16.4c-228.1-16.4-297.6-149.3-297.6-149.3l-11.5-64.3l-60.2-337.1
		c100.2,17.9,244.6,200.6,386.7,270.7c142.1,70.1,192.8,67.3,192.8,67.3l13,167.5L4341.8,1822.3z"/><path fill="#d71a1a" d="M4341.8,1822.3c0,0,0,0-228.1-16.4c-228.1-16.4-297.6-149.3-297.6-149.3l-11.5-64.3l33.1-95.7
		c0,0,16,164.1,205.4,219.6c107.5,31.5,214,42.5,293.9,44.5L4341.8,1822.3z"/><path fill="#f33" d="M3783.1,1287.6c-27.4-24.7-62.9-45.1-102.9-61.2c-80-32.3-178.1-47.6-265.5-47.6
			c-74.7,0-141.7,11.2-182.8,32.1c-19.4,9.8-45.1,29-74.6,54.8c-29.6,25.7-63.1,58-98.4,93.8c-163.8,166.4-366.5,411.1-399.9,451.6
			l0,0c-1.4,1.7-2.4,3-3.2,4c0.6,0.8,1.3,1.8,2.5,3.4l0,0c7.1,9.8,27.6,38,86.2,118.4c5.5,7.5,15.1,15.7,28.4,24
			c13.3,8.4,30.1,17,50,25.8c39.7,17.5,91.3,35.7,150.4,53.7c315.7,96.5,843.7,192.1,908.4,203.6c0.9,0.2,1.7,0.3,2.4,0.4
			c-4.5-31.5-33-232.9-37.6-359c-0.3-7.8-0.4-15.7-0.4-23.7c0-77.1,11.9-166,13.6-262.7l0,0l3.1,0.1l-21.8-225.1l-3,0.7
			C3829.9,1341.3,3810.5,1312.3,3783.1,1287.6z"/><path fill="#1a1a1a" d="M3890.7,2247.8c0,0-0.5-3.5-1.4-10c-6.4-45.1-32.3-233.2-36.7-352.5c-0.3-7.7-0.4-15.5-0.4-23.5
			c0-76.5,11.9-165.5,13.6-262.6l-3.1-0.1l-3.1-0.1l0,0c-1.7,96.6-13.6,185.5-13.6,262.7c0,8,0.1,15.9,0.4,23.7
			c4.6,126,33.1,327.5,37.6,359c-0.7-0.1-1.5-0.3-2.4-0.4c-64.7-11.5-592.8-107.1-908.4-203.6c-59.1-18.1-110.7-36.2-150.4-53.7
			c-19.8-8.8-36.7-17.4-50-25.8c-13.3-8.4-22.9-16.5-28.4-24c-58.6-80.4-79.1-108.6-86.2-118.4l0,0c-1.1-1.5-1.9-2.6-2.5-3.4
			c0.8-1,1.9-2.3,3.2-4l0,0c33.4-40.5,236.1-285.2,399.9-451.6c35.3-35.9,68.8-68.1,98.4-93.8c29.6-25.7,55.2-45,74.6-54.8
			c41.1-20.9,108.1-32.1,182.8-32.1c87.4,0,185.5,15.3,265.5,47.6c40,16.1,75.5,36.5,102.9,61.2c27.4,24.7,46.8,53.7,54.8,87.2
			l3-0.7l3-0.7c-8.4-34.9-28.6-65-56.7-90.3c-42.2-38-102.3-65.5-168.3-83.6c-66-18.1-138.1-26.7-204.2-26.7
			c-75.3,0-142.9,11.2-185.6,32.8c-20.2,10.3-46.1,29.7-75.9,55.6c-29.8,25.9-63.3,58.2-98.7,94.2
			c-164.1,166.7-366.8,411.4-400.2,452l0,0c-3.1,3.8-4.7,5.8-4.7,5.8l-1.5,1.8l1.4,1.9c0,0,0,0,3.9,5.3l0,0
			c7.1,9.8,27.6,38,86.2,118.4c6.2,8.5,16.4,17,30.1,25.6c20.4,12.9,48.7,26.1,82.9,39.6c34.2,13.4,74.5,27,118.9,40.6
			c337.4,103.1,915.7,204.9,915.7,205l4.2,0.7L3890.7,2247.8z"/><path fill="#d71a1a" d="M2924.3,1946.6c21.9,31.6,40.4,68.3,48,96.8c-118.3-36.2-206.9-72.5-230.3-104.7
		c-58.6-80.4-79.1-108.6-86.2-118.4c0.3-3.6,0.6-7.3,0.9-11.1c33.4-40.5,236.1-285.2,400.1-451.8l24.3-6.3
		c0,1.9-80.3,166.5-126.3,261.2C2908.5,1707.1,2873.8,1873.8,2924.3,1946.6z"/><path fill="#f33" d="M3217.2,1198.6c-32.3-0.7-76.9-1.3-125.9-1.3c-65,0-137.6,1.1-199.5,4.9c-44.3,2.7-88.4,3.7-128.7,3.7
			c-90.1,0-161.7-4.9-176.5-6l-20.6,143.2l-11.3,78.5c18,4.8,124.1,33.1,180.1,51.1c14.1,4.5,36.9,10.2,63.5,16.2
			c26.6,6,57,12.3,86.5,18.2c58.9,11.8,114,21.9,127.1,24.2l0,0c1.9,0.3,3,0.5,3,0.5l0,0l-0.6,3l253.4-335.2
			c-2.3-0.1-6.3-0.2-11.9-0.3C3246.5,1199.2,3233.4,1198.9,3217.2,1198.6z"/><path fill="#1a1a1a" d="M3091.3,1191.1c-65,0-137.8,1.1-199.9,5c-44.2,2.7-88.1,3.7-128.3,3.7c-50.6,0-95.3-1.5-127.4-3.1
			c-16-0.8-28.9-1.5-37.8-2.1c-4.4-0.3-7.9-0.5-10.2-0.7c-2.3-0.2-3.5-0.3-3.5-0.3l-2.9-0.2l-21.5,148.9l-12.1,83.9l2.6,0.7
			c0,0,1.9,0.5,5.3,1.4c24,6.4,123.7,33.1,177.1,50.3c14.4,4.7,37.3,10.3,64,16.3c80,18,194.2,38.9,213.8,42.5l0,0
			c0.9,0.2,1.7,0.3,2.2,0.4c0.5,0.1,0.7,0.1,0.7,0.1l0.6-3l0.6-3l0,0c0,0-1.1-0.2-3-0.5l0,0c-13.1-2.4-68.1-12.5-127.1-24.2
			c-29.5-5.9-59.9-12.2-86.5-18.2c-26.6-6-49.4-11.7-63.5-16.2c-56-18.1-162.1-46.4-180.1-51.1l11.3-78.5l20.6-143.2
			c14.8,1.1,86.4,6,176.5,6c40.3,0,84.4-1,128.7-3.7c61.9-3.8,134.6-4.9,199.5-4.9c49,0,93.5,0.7,125.9,1.3
			c16.2,0.3,29.3,0.7,38.4,0.9c5.6,0.2,9.6,0.3,11.9,0.3c1.4,0,2.2,0.1,2.2,0.1l0.2-6.1C3269.8,1193.7,3189.3,1191.1,3091.3,1191.1z
			"/><path fill="#d71a1a" d="M3011.2,1534.5c-26.1-4.8-220.4-40.3-277.4-58.7c-61.2-19.7-182.6-51.8-182.6-51.8l11.7-81.2
		c84.7,37.3,241.6,100.6,332.4,102.4C2991.6,1447.2,3010.2,1504.8,3011.2,1534.5z"/><path fill="#2e241b" d="M4472.1,1607.4c0,0,69.1-31.4,103.1-54.1s86.9-38.7,95.5-14.3c8.7,24.4-59,46-60,68.4
		c-1,22.4,38.5,29.3,97.2,26.9c58.7-2.5,81.9,53.3,71.6,117.5s-200.7,72-231.6,60.7s-65.8,2.7-65.8,2.7L4472.1,1607.4z"/><path fill="#fff" stroke="#000" stroke-miterlimit="10" stroke-width="2" d="M4497.8,1826.6c-3.2,21.3-7.5,36.9-12.3,42c-22.1,23.7-161.8-13.3-197.9-26.7c-36.2-13.4-2.1-141.2-10-192.5
		c-7.9-51.3,7.9-84.9,7.9-84.9c2.7-5.9,16.4-8.6,35.6-8.9c45.7-0.7,122.4,12.1,153,26.8C4508,1598.9,4509.4,1750.1,4497.8,1826.6z"/><path fill="#fff" stroke="#1a1a1a" stroke-linecap="round" stroke-linejoin="round" stroke-miterlimit="10" stroke-width="2" d="M3874.2,1280c0,0,48,43.8,32.3,93.1c-1.1,3.3-2.4,6.4-3.9,9.1c-4.6,8.3-11.2,14.5-18.8,18.9c0,0,0,0,0,0
		c-27.6,16.3-67.7,10.4-67.7,10.4s63.7,60.2-7.5,96.8c-21,10.8-40.6,12-57.7,8.3c0,0,0,0-0.1,0c-39.8-8.6-66.3-43.8-67.4-45.3
		c0.4,1.1,6.8,18.3-5.3,34.8c-7.6,10.4-22.4,20.5-50.5,26.2c-74.5,15.1-128.6-39.5-128.6-39.5s-17.1,38.2-76.3,39.5
		c-59.2,1.3-83.8-68.5-83.8-68.5s-33.6,41.5-85.3,0c-51.1-41-1.1-127.7,0-129.5c-1.9,0.9-67.2,32.6-104.3-48.7
		c-37.6-82.4,27.6-127.2,27.6-127.2s-51.2,8.3-53.1-91.4c-1.4-78.1,76.4-102.5,110-109.4c9.3-1.9,15.2-2.5,15.2-2.5l289.6-53.5
		l272.9,65.7l4.5,1.1c0,0,98.3,15.7,104.2,87.5c5.9,71.8-30.2,87.7-30.2,87.7s49,7.3,35.1,76.6
		C3911.4,1289.6,3874.2,1280,3874.2,1280z"/><path fill="#f4e9be" d="M3874.2,1280c0,0,48,43.8,32.3,93.1c-1.1,3.3-2.4,6.4-3.9,9.1c-1.5-62.4-68.6-116.9-68.6-116.9
		s80,10.9,82.9-64.2c2.9-75-59.2-50.3-60.2-54.3c-1-4,29.6-10.9,42.5-77c11.1-57.3-66.6-93.8-87.6-102.6l4.5,1.1
		c0,0,98.3,15.7,104.2,87.5c5.9,71.8-30.2,87.7-30.2,87.7s49,7.3,35.1,76.6C3911.4,1289.6,3874.2,1280,3874.2,1280z"/><path fill="#f4a989" stroke="#1a1a1a" stroke-miterlimit="10" stroke-width="2" d="M3803.4,1135.2c-5.5,34-17.7,57.7-31.4,74c-26.9,32-59.8,36.2-59.8,36.2s-37.7-18.4-119.6-28.7
		c-81.9-10.3-148.7,38.9-148.7,38.9s-4.1,3.1-11.3,5.7c-12.3,4.4-33.7,7.5-59.3-8.6c-40.6-25.5-27.8-75.4-27.8-75.4
		s-26.3,4.6-52.6-50c-26.3-54.6-17.4-140.4-17.4-140.4c40.4-16.7,81.1-28.1,120.9-35.4c161.1-29.9,307.7,5.8,363.7,22.8
		c15.5,4.7,24.1,7.9,24.1,7.9S3819.6,1034.6,3803.4,1135.2z"/><path fill="#d67f61" d="M3803.4 1135.2c-5.5 34-17.7 57.7-31.4 74 5.4-19.2 24.6-62.9 26.6-99.8 2.5-47.4-5.9-42-16.3-80.4-7-26.1-16.8-45.1-22.3-54.7 15.5 4.7 24.1 7.9 24.1 7.9S3819.6 1034.6 3803.4 1135.2zM3432.5 1261.4c-12.3 4.4-33.7 7.5-59.3-8.6-40.6-25.5-27.8-75.4-27.8-75.4s-26.3 4.6-52.6-50c-26.3-54.6-17.4-140.4-17.4-140.4 40.4-16.7 81.1-28.1 120.9-35.4-9.9 6.8-65.8 48.1-57.7 106.6 8.9 64.2 24.7 94.8 40.5 98.7C3368 1191.6 3386.9 1243.2 3432.5 1261.4z"/><path fill="#f33" stroke="#1a1a1a" stroke-miterlimit="10" stroke-width="2" d="M3800.8,2991.4c0,0-96,54.4-198.1,54c-33.7-0.2-68-6.3-99.7-22.3c-17.6-88.2-185.5-225.8-234.7-306
		c-49.2-80.2-200.4-163.3-200.4-163.3l79.1-206.2l10.2-26.5l30.8,2.4l40.7,3.2l490.5,38.7l50.5,4c0,0,14.8,112.2,16.4,197.5
		c0.3,17.1,0.1,33.1-0.8,47C3779.6,2696.8,3800.8,2991.4,3800.8,2991.4z"/><path fill="#d71a1a" d="M3786.1 2566.9c-9 11.1-18.1 16.6-19.1 11.3-2-9.9-11.9-47.4-17.8-59.2-5.9-11.9-53.3-41.5-104.6-43.5-51.3-2-122.4-69.1-122.4-69.1l108.6-35.5 88.5-5.5 50.5 4C3769.7 2369.4 3784.5 2481.6 3786.1 2566.9zM3602.7 3045.4c-33.7-.2-68-6.3-99.7-22.3-17.6-88.2-185.5-225.8-234.7-306-49.2-80.2-200.4-163.3-200.4-163.3l79.1-206.2c17.7-10.1 32.1-18.5 41-24.1 4.1-2.6 7-4.6 8.4-5.9 6.9-6.1 19.5-.3 32.3 9.1 20.1 14.7 40.7 38.3 40.7 38.3s-67.1 140.2-47.4 191.5c19.7 51.3 120.4 69.1 185.6 157.9C3456.6 2781.2 3555.6 2955.8 3602.7 3045.4z"/><path fill="#f33" stroke="#1a1a1a" stroke-miterlimit="10" stroke-width="2" d="M3261.6,2337.5c0,0-29.3,104.6-70.8,166.7c-41.5,62.1-124.4,82.1-269.3,134.7c-108.6,48.3-229.4,50.8-338,29.1
		c-120.7-24.1-226.4-78.1-283.3-132.6c-108.2-103.6-269.7-313.5-269.7-313.5s1.9-12.2,6.7-30.2c13.1-49.9,47.7-144.8,121.9-149.3
		c2.8-0.2,5.6-0.2,8.6-0.1c107.9,15.3,222.3,115.8,271.1,121.5c14.5-101.4,151.3-202.7,151.3-202.7l55.2,30.9L3261.6,2337.5z"/><path fill="#d71a1a" d="M2585.8 2667.7c-.7.1-1.5.2-2.3.2-120.7-24.1-226.4-78.1-283.3-132.6-108.2-103.6-269.7-313.5-269.7-313.5s1.9-12.2 6.7-30.2l45.9-30.6c0 0 127.7 225.1 201.4 296.1C2358.1 2528.2 2479.2 2649.3 2585.8 2667.7zM2373.2 2165.6c-102.7-25.7-227-77-227-82.9 0-3.3 6.8-23.4 12.8-40.3 2.8-.2 5.6-.2 8.6-.1 107.9 15.3 222.3 115.8 271.1 121.5 14.5-101.4 151.3-202.7 151.3-202.7l55.2 30.9c47.3 60 103.1 132.2 103.1 132.2s-240.8 29.6-242.8 75C2454.2 2232.8 2475.9 2191.3 2373.2 2165.6z"/><path fill="#fff" stroke="#000" stroke-miterlimit="10" stroke-width="2" d="M3945.9,2372.3c-7.7,32.5-23.2,59.1-49,67.8c-77.7,26.3-606.3,1-821.3-79c-214.9-79.9-477.2-159-536.7-378.3
		c-59.5-219.2,99.6-236.1,138.5-225.7c0,0,1.9,3.2,5.8,9c29.2,43.6,169.8,234.2,439.4,312.3c305.5,88.4,737.3,134,795.2,123.5
		C3945.2,2217.8,3961.3,2306.9,3945.9,2372.3z"/><path fill="#fff" stroke="#1a1a1a" stroke-linecap="round" stroke-linejoin="round" stroke-miterlimit="10" stroke-width="2" d="M3094.6,857.2c0,56.9-46.1,103-103,103c-56.9,0-103-46.1-103-103c0-1.1,0-2.2,0.1-3.4
		c1.8-55.3,63.3-87.8,119.1-87.8c36,0,51.5,6.6,69.9,34.5C3088.4,816.8,3094.6,836.3,3094.6,857.2z"/><path fill="#f33" stroke="#1a1a1a" stroke-miterlimit="10" stroke-width="2" d="M3771.2,795c0,0-226.7,26.5-382.2,41.9c-66.3,6.6-119.7,11.1-137,10.7c-52.6-85.6-198.7-24.5-198.7-24.5
		s-20.6,1.4-35.9-26.5c-3.6-6.6-7-15-9.6-25.4c41.3-192.3,249.5-236.8,348.7-229.8c34.7-4.9,127.7,22.8,127.7,22.8
		s169.3,28.2,228,96.6C3770.9,729.2,3771.2,795,3771.2,795z"/><path fill="#d71a1a" d="M3389,836.9c-66.3,6.6-119.7,11.1-137,10.7c-52.6-85.6-198.7-24.5-198.7-24.5s-20.6,1.4-35.9-26.5
		c28.7-12.5,73.5-30.8,138.5-54.2c131.6-47.4,196.8,39.9,224.1,69.3C3386.9,819.1,3389.3,827.9,3389,836.9z"/><path fill="#fff" stroke="#1a1a1a" stroke-linecap="round" stroke-linejoin="round" stroke-miterlimit="10" stroke-width="2" d="M3803.4,997.5c-164.6-76.6-450.7-39.9-523.7,24.7c-50.3-1.5-86.8-88.3-87.8-133.8
		c-0.7-32.4,34.9-47.1,55.4-52.9c8.3-2.3,14.2-3.2,14.2-3.2s367.1-71.4,498.9-45.1c59.3-0.7,92.5,45.7,99.4,95.4
		C3866.3,931.2,3847.7,983.2,3803.4,997.5z"/><circle cx="3670.1" cy="1106.8" r="18" fill="#1a1a1a"/><circle cx="3487.5" cy="1122" r="19.5" fill="#1a1a1a"/><path fill="#2e241b" d="M2432.1,1188.9c0,0-111.2-25.3-154-54.6c-42.8-29.3-100-8.9-103.6,18.7c-3.6,27.6,77.3,35.9,83.9,66
		c6.6,30.1-68.6,14.2-100,27.4c-31.4,13.2-92.1,38.2-69.1,108c23,69.8,110.7,103.3,183.8,71.1c73-32.2,132.1-30.9,173.6-34.2
		C2488,1387.9,2432.1,1188.9,2432.1,1188.9z"/><path fill="#fff" stroke="#000" stroke-miterlimit="10" stroke-width="2" d="M2568.1,1446.1c-34,28.1-126.6,20.8-149.7-17.2c-5.2-8.5-8.9-25.4-11.5-46.7c-9.1-74.6-3.9-203.6,5.1-217.3
		c11.6-17.6,139.2-15.8,139.2-15.8s37.4-1.3,56.4,20.2c4.3,4.9,7.7,11,9.4,18.7C2626.2,1228.7,2602.1,1418,2568.1,1446.1z"/><circle cx="3595.4" cy="1796.5" r="27.6" fill="#2e241b"/><circle cx="3574.5" cy="1997.7" r="27.6" fill="#2e241b"/><path d="M4224.8,3178c-14-28.8-31-48.2-49-60.4c-18-12.2-37-17.2-54.6-17.1c-18.8,0-36,5.6-49,13.7c-6.5,4.1-12.1,8.8-16.3,13.9
			c-4.2,5.1-7.2,10.6-8.2,16.4c-0.8,4.4-1.2,9.2-1.2,14.1c0,18,4.9,38.7,14.8,55.5c4.9,8.4,11.2,15.8,18.8,21.3
			c7.6,5.4,16.8,8.8,27,8.7c2.5,0,5-0.2,7.6-0.6c11.1-1.7,19.6-6.3,25.3-12.8c5.7-6.4,8.3-14.5,8.3-22.4c0-9.7-3.9-19.5-10.9-26.9
			c-7-7.4-17.5-12.4-29.9-12.3c-0.9,0-1.9,0-2.8,0.1l0.7,11.1c0.7,0,1.5-0.1,2.2-0.1c9.6,0,16.8,3.6,21.9,8.9
			c5.1,5.3,7.9,12.4,7.8,19.2c0,5.6-1.8,10.8-5.5,15.1c-3.8,4.3-9.7,7.7-18.7,9.1c-2.1,0.3-4,0.5-6,0.5c-7.8,0-14.5-2.4-20.6-6.7
			c-9.1-6.4-16.4-17.2-21.4-29.6c-5-12.4-7.5-26.2-7.5-38.1c0-4.4,0.3-8.5,1-12.2c0.6-3.3,2.5-7.3,5.9-11.3c5-6,12.9-12,22.8-16.4
			c9.8-4.4,21.5-7.2,34-7.2c15.5,0,32.2,4.3,48.3,15.2c16.2,11,32,28.8,45.3,56.1c17.1,35.1,24.8,65.1,24.7,90.5
			c0,14.3-2.4,27.2-7,38.8c-6.9,17.4-18.7,32.1-34.9,44.5c-16.2,12.4-36.9,22.5-61.3,30.4c-11.5,3.7-28.6,7.5-49.7,11.1
			c-40.2,6.9-94.5,13.3-152.2,19l1.2,4.5l-10.7,2.9l-1.8-6.4c-9.3,0.9-18.7,1.8-28.1,2.6l1,4.8l-10.8,2.3l-1.3-6.1
			c-32.2,2.9-64.5,5.5-95.2,7.9c-15,1.1-29.5,2.2-43.5,3.2l0.5,5.4l-11,1l-0.5-5.6c-7.2,0.5-14.3,1-21.1,1.5l0.6,5.2l-11,1.4
			l-0.7-5.8c-16.7,1.1-32,2.1-45.3,3c-17,1.1-30.7,1.9-40.2,2.5c-4.8,0.3-8.4,0.5-10.9,0.6c-2.5,0.1-3.8,0.2-3.8,0.2l0.6,11.1
			c0.1,0,110.2-6.1,232.3-16.2c61.1-5,125.1-11,180-17.6c27.4-3.3,52.5-6.8,73.8-10.5c21.3-3.7,38.8-7.4,51.2-11.4
			c33.7-10.9,61.3-26,80.7-46.6c9.7-10.3,17.3-21.9,22.4-34.9c5.1-13,7.8-27.3,7.8-42.9C4250.6,3245.8,4242.3,3214.2,4224.8,3178z"/><polygon points="3602.4 3453.4 3602.4 3453.4 3602.4 3453.4"/><polygon points="3713.8 3440.5 3713.1 3435.3 3704 3361.4 3693 3362.8 3702 3436 3702.8 3441.8"/><polygon points="3896.1 3425.7 3895.1 3420.9 3876.1 3332.6 3865.3 3334.9 3884 3421.9 3885.3 3428"/><polygon points="3745.8 3438.4 3745.3 3433 3737.8 3353.4 3726.8 3354.4 3734.2 3433.8 3734.7 3439.4"/><polygon points="3935.6 3421.7 3934.4 3417.2 3911 3332.4 3900.3 3335.4 3923.2 3418.3 3925 3424.6"/><path fill="#59422e" stroke="#1a1a1a" stroke-miterlimit="10" stroke-width="2" d="M4082.1,3286.8c-0.2,7.3-1.7,14.5-4.1,21.5c-14.5,42-330.2,44.2-411.4,55.4c-81.2,11.2-90.7-23.3-87.9-70.6
		c2.9-47.4-25.7-156-25.7-156s18.7-2.7,46.4-6.5c77.2-10.6,224.7-29.8,234.4-23c13.2,9.2,31.6,79,31.6,79s35.5-2.7,120.4,14.4
		C4056.4,3215.1,4083.4,3250.9,4082.1,3286.8z"/><path fill="#16100b" d="M4082.1,3286.8c-0.2,7.3-1.7,14.5-4.1,21.5c-14.5,42-330.2,44.2-411.4,55.4c-81.2,11.2-90.7-23.3-87.9-70.6
		c2.9-47.4-25.7-156-25.7-156s18.7-2.7,46.4-6.5l14.3,4.5c0,0,23.7,63.2,25,118.4c1.3,55.3,32.9,57.9,61.9,52.6
		c28.9-5.3,269.8,21.1,314.5-2.6C4036.6,3292,4061.8,3287.9,4082.1,3286.8z"/><path fill="#fff" stroke="#000" stroke-miterlimit="10" d="M3503,3012.7c0,0-19,23.7-15.6,80.9c3.5,57.3,51.8,67.5,147.3,74.1s258.1-31.1,260.5-52.6
		c2.3-21.5-54.7-142.3-81.5-158.9C3787,2939.6,3503,3012.7,3503,3012.7z"/><path d="M1845.8,2397.2c-2.5-7-6.2-12.9-11.2-17c-7.8-6.2-18-11.5-29.2-15.3c-11.2-3.8-23.5-6-35.4-6.1c-11.5,0-22.8,2.1-32.5,7.3
			c-4.8,2.6-9.3,6-13,10.3c-3.7,4.3-6.8,9.4-8.9,15.3c-2,5.6-3,11-3,16c0,5.3,1.1,10.3,3.1,14.6c3,6.5,7.9,11.6,13.7,15.1
			c5.8,3.4,12.6,5.2,19.5,5.2c7.1,0,14.3-1.9,20.8-5.9c6.5-4,12.1-10.2,16-18.4l-10-4.7c-3,6.4-7.2,10.8-11.8,13.7
			c-4.6,2.9-9.8,4.2-15,4.2c-6.6,0-13-2.3-17.6-6.4c-2.3-2-4.2-4.5-5.5-7.4c-1.3-2.9-2.1-6.2-2.1-10.1c0-3.6,0.7-7.7,2.3-12.3
			c1.7-4.7,4-8.6,6.8-11.8c4.2-4.8,9.6-8.2,16-10.5c6.3-2.3,13.6-3.3,21.2-3.3c10.5,0,21.7,2,31.9,5.5c10.2,3.4,19.3,8.2,25.8,13.4
			c2.9,2.3,5.7,6.5,7.7,12.1c2,5.6,3.2,12.5,3.2,20.1c0,18.4-6.8,40.4-23.5,57.6c-8.4,8.6-19.2,16.2-33.2,21.6
			c-13.9,5.4-31,8.7-51.6,8.7c-3,0-6.1-0.1-9.3-0.2c-26.8-1.2-49.3-5.2-68-11.4c-28.1-9.4-47.4-23.9-60-42.6
			c-12.5-18.7-18.4-41.8-18.4-68.8c0-13.6,1.5-28.2,4.4-43.6c2.2-11.8,7.1-28.7,14-48.9c13.1-38.6,33.4-89.4,56-142.8l-4.5-1.1
			l2.5-10.8l6.4,1.5c3.7-8.6,7.4-17.3,11.1-26l-4.7-1.4l3.1-10.6l6,1.8c12.8-29.7,26-59.3,38.5-87.4c6.1-13.7,12.1-27,17.9-39.8
			l-5-2.1l4.4-10.2l5.2,2.2c3-6.6,5.9-13,8.8-19.2l-4.9-1.9l4.1-10.3l5.4,2.1c7-15.3,13.4-29.2,19-41.3c7.1-15.4,13-27.9,17-36.5
			c2-4.3,3.6-7.7,4.7-9.9c1.1-2.3,1.6-3.5,1.6-3.5l-10-4.7l0,0c0,0-47.2,99.8-96.7,211.9c-24.8,56.1-50.1,115.2-70.4,166.6
			c-10.2,25.7-19.1,49.4-26,69.9c-7,20.5-12,37.6-14.4,50.4c-3,16-4.6,31.2-4.6,45.7c0,19.1,2.8,36.7,8.8,52.6
			c9,23.8,25.5,43.5,50,57.4c24.5,13.9,56.9,22.1,98.2,23.9c3.3,0.2,6.6,0.2,9.8,0.2c21.8,0,40.2-3.5,55.6-9.4
			c23.1-8.9,39.1-23.5,49.3-39.7c10.2-16.2,14.5-34,14.5-49.8C1849.6,2412.3,1848.3,2404.2,1845.8,2397.2z"/><polygon points="1733.8 1945.5 1738.7 1947.4 1807.9 1974.7 1811.9 1964.3 1743.3 1937.3 1737.8 1935.2"/><polygon points="1659.7 2112.8 1664.4 2114.1 1751.1 2139.7 1754.2 2129 1668.8 2103.9 1662.8 2102.1"/><polygon points="1720.3 1974.6 1725.3 1976.7 1798.8 2008.2 1803.2 1998 1729.9 1966.6 1724.7 1964.4"/><polygon points="1644.4 2149.4 1648.9 2150.5 1734.6 2170.3 1737.1 2159.5 1653.3 2140.1 1646.9 2138.6"/><path fill="#59422e" stroke="#1a1a1a" stroke-miterlimit="10" stroke-width="2" d="M2067.9,1973.4c0,0-6.5,17.5-15.6,42c-21.4,57.4-57.3,153.4-59.1,154.6c-2.6,1.7-111.2-25.9-111.2-25.9
		s-36.9,28.1-52.6,53.8c-15.6,25.4-17.8,112.8-74,109.3c-0.6,0-1.1-0.1-1.7-0.1c-57.9-5.3-49.3-58.5-41.4-99.8
		c7.9-41.3,68.4-211.4,88-249.9s43.3-64.1,64.3-59.1C1885.6,1903.3,2067.9,1973.4,2067.9,1973.4z"/><path fill="#16100b" d="M2067.9,1973.4c0,0-6.5,17.5-15.6,42c-66.1-29.6-177.9-75.7-203.2-62c-36.5,19.7-79.9,132.3-95.7,202.4
		c-10.1,44.7-2,110.4,2,151.5c-0.6,0-1.1-0.1-1.7-0.1c-57.9-5.3-49.3-58.5-41.4-99.8c7.9-41.3,68.4-211.4,88-249.9
		s43.3-64.1,64.3-59.1C1885.6,1903.3,2067.9,1973.4,2067.9,1973.4z"/><path fill="#fff" stroke="#000" stroke-miterlimit="10" d="M2239.4,2054.8c-72.2-38.8-143.5,210.6-166,266.3c-94.8-22.8-129.4-65.2-126.4-92.5
		c27.2-67.2,104-285.6,126.4-287.6C2095.8,1939,2237,2010.1,2239.4,2054.8z"/><path fill="none" stroke="#1a1a1a" stroke-linecap="round" stroke-linejoin="round" stroke-miterlimit="10" stroke-width="3" d="M3533.1,1275.7c0,0,82.4,11.5,114.7-8.6c-2.6,80.3-46.1,89.2-75,81.9
		C3543.9,1341.9,3529,1306.3,3533.1,1275.7z"/><path fill="#1a1a1a" d="M3606.5 1141.2c-3.9-4.4-6.9-7-7-7.1-1.9-1.7-4.8-1.4-6.5.5-1.7 1.9-1.4 4.8.5 6.5l0 0 0 0c.5.4 5.4 4.8 10.2 11.2 2.4 3.2 4.7 6.8 6.3 10.6 1.7 3.8 2.7 7.7 2.7 11.5 0 2.5-.4 5-1.5 7.4-1 2.5-2.6 4.9-5.2 7.4-4.4 4.4-8.9 7.2-13.3 8.9-4.3 1.7-8.6 2.3-12.5 2.3-5.7 0-10.7-1.3-14.3-2.6-1.8-.7-3.2-1.3-4.2-1.8-.5-.2-.8-.4-1.1-.6l-.2-.1 0 0v0c-2.2-1.3-5-.6-6.3 1.5-1.3 2.2-.6 5 1.5 6.3.4.2 10.6 6.5 24.7 6.5 4.9 0 10.3-.8 15.9-2.9 5.5-2.1 11.1-5.7 16.4-10.9 3.3-3.3 5.7-6.8 7.2-10.4 1.5-3.6 2.2-7.4 2.2-11 0-5.6-1.5-10.9-3.7-15.6C3615.1 1151.6 3610.4 1145.5 3606.5 1141.2zM3721.3 1051.7c-2.8-4.3-6.8-8.8-12.7-12.1-5.8-3.3-13.4-5.4-22.7-5.4-2.2 0-4.4.1-6.8.3-10.8 1-19.5 4-26.3 7.8-10.3 5.8-16.2 13.7-19.6 20.1-3.3 6.4-4.1 11.4-4.2 11.7-.4 2.5 1.3 4.9 3.8 5.2 2.5.4 4.9-1.3 5.2-3.8l0 0 0 0c.1-.5 1.5-7.7 7.3-15.1 2.9-3.7 6.9-7.4 12.5-10.5 5.6-3.1 12.8-5.5 22.1-6.4 2.1-.2 4.1-.3 5.9-.3 8.1 0 13.9 1.7 18.2 4.2 3.3 1.8 5.7 4.1 7.7 6.5 2.9 3.6 4.5 7.6 5.4 10.7.4 1.5.7 2.8.8 3.7.1.4.1.8.1 1l0 .2 0 0 0 0c.2 2.5 2.4 4.4 4.9 4.3 2.5-.2 4.5-2.4 4.3-4.9C3727.3 1068.7 3726.8 1060.4 3721.3 1051.7zM3527.5 1075.6c-7-10.7-19-23-38.2-29-4.7-1.5-9-2.1-13.1-2.1-7.6 0-14 2.3-19.1 5.8-7.7 5.2-12.6 12.7-15.6 18.7-3 6.1-4.3 10.9-4.3 11.1-.6 2.5.9 5 3.3 5.6 2.5.6 5-.9 5.6-3.3l0 0v0c0-.2 2.1-7.8 7-15 2.4-3.6 5.6-7.1 9.3-9.6 3.8-2.5 8.2-4.1 13.8-4.1 3.1 0 6.5.5 10.4 1.7 16.7 5.2 27 15.8 33.3 25.3 3.1 4.7 5.2 9.1 6.5 12.3.6 1.6 1.1 2.9 1.4 3.8.1.4.2.8.3 1l.1.2 0 0v0c.6 2.5 3.1 4 5.6 3.3 2.5-.6 4-3.1 3.3-5.6C3536.8 1095.4 3534.5 1086.3 3527.5 1075.6z"/><path fill="#f4e9be" d="M3945.9 2372.3c-7.7 32.5-23.2 59.1-49 67.8-77.7 26.3-606.3 1-821.3-79-214.9-79.9-477.2-159-536.7-378.3-59.5-219.2 99.6-236.1 138.5-225.7 0 0 1.9 3.2 5.8 9-34.8 29.5-93.2 98.3-61 211 44.4 155.9 227 149.7 321.8 239.2 94.7 89.5 388.2 132.2 521.2 153 132.9 20.8 188.2 53.7 286.9 26C3820.4 2376.3 3897.4 2373.8 3945.9 2372.3zM3803.4 997.5c-164.6-76.6-450.7-39.9-523.7 24.7-50.3-1.5-86.8-88.3-87.8-133.8-.7-32.4 34.9-47.1 55.4-52.9-9.1 31.2-18.2 92.9 39.4 122.3 79 40.3 116.5-89 275.4-54.4 158.9 34.6 208 64.2 245.6 42.5 28.6-16.5 42.9-31.8 52-63.2C3866.3 931.2 3847.7 983.2 3803.4 997.5zM3094.6 857.2c0 56.9-46.1 103-103 103-56.9 0-103-46.1-103-103 0-1.1 0-2.2.1-3.4 19.9 27.2 52.3 60.7 90.9 61.3 65.1 1 70.1 1 86.8-35.5 12.5-27.2 2.5-62.8 11.2-79C3088.4 816.8 3094.6 836.3 3094.6 857.2zM2568.1 1446.1c-34 28.1-126.6 20.8-149.7-17.2-5.2-8.5-8.9-25.4-11.5-46.7 2 .6 4 2.4 6.1 5.8 15.8 25.7 113.5 17.8 153-43.4 29-44.9 37.8-130.4 41.6-175.3 4.3 4.9 7.7 11 9.4 18.7C2626.2 1228.7 2602.1 1418 2568.1 1446.1zM4497.8 1826.6c-3.2 21.3-7.5 36.9-12.3 42-22.1 23.7-161.8-13.3-197.9-26.7-36.2-13.4-2.1-141.2-10-192.5-7.9-51.3 7.9-84.9 7.9-84.9 2.7-5.9 16.4-8.6 35.6-8.9 5.8 11.9 8.5 26 2.9 41.4-15.8 43.4-36.5 61.2-20.7 103.6 15.8 42.5 43.4 75 92.8 106.6C4422.5 1824.4 4464.5 1827.4 4497.8 1826.6z"/><path fill="#1a1a1a" d="M3599.9 1574.5c-.5-2.5-3-4.1-5.4-3.6-2.5.5-4.1 3-3.6 5.4l0 0c0 0 0 .2.1.7 1.5 7.1 13.2 66.6 13.2 119.8 0 17.1-1.2 33.6-4.3 47.3-.6 2.5 1 4.9 3.5 5.5 2.5.6 4.9-1 5.5-3.5 3.3-14.7 4.5-31.8 4.5-49.3C3613.4 1638.8 3599.9 1574.7 3599.9 1574.5zM3596.9 1829.2c-.2-2.5-2.4-4.5-4.9-4.3-2.5.2-4.5 2.4-4.3 4.9l0 0c0 0 0 .2 0 .6.2 2.7.8 14.9.8 31.6 0 25.1-1.5 60.7-8.3 90.6-.6 2.5 1 4.9 3.5 5.5 2.5.6 4.9-1 5.5-3.5 7-31.1 8.5-67.1 8.5-92.6C3597.8 1842.5 3596.9 1829.3 3596.9 1829.2zM3559.1 2037.4c-2.5-.6-5 .9-5.6 3.3-6.7 26.6-19.3 46.6-30.2 60-5.5 6.7-10.5 11.7-14.1 15-1.8 1.7-3.3 2.9-4.3 3.7-.5.4-.9.7-1.1.9l-.3.2-.1 0 0 0c-2.1 1.5-2.5 4.4-1 6.4 1.5 2.1 4.4 2.5 6.4 1l0 0c.2-.2 10-7.3 21.6-21.5 11.6-14.2 24.9-35.3 32-63.5C3563.1 2040.5 3561.6 2038 3559.1 2037.4z"/><path fill="#d9e2e2" d="M1378.6,2650.4c0,0,272.4,142.5,610,281.5s316.9,305.3,607.1,345s385,88.8,385,88.8s-97.7-19.4-305-25.4
		c-207.3-5.9-328.7-55.1-565.6-279.3C1873.1,2837,1440.7,2798.5,1378.6,2650.4z"/><path fill="#fff" d="M1581.9,2527c-14.8-5.3-29-11-42.5-17.2c-317.1-144.8-291.1-523.5-291.1-523.5c-1.1-64.2,57.2-38.4,52,31.4
		c-5.3,69.8,2.6,96.1,78.3,55.3c8.8-4.7,15.7-5.9,21.2-4.2c41.8,13.3-1.2,198,36.1,291.1c42.1,105.3,107.9,93.4,146.1,143.4
		C1620,2553.3,1601.6,2545.4,1581.9,2527z"/><path fill="#d9e2e2" d="M1296.3 2885c0 0 275.1-15.8 388.3 123.1 113.2 138.8 163.2 227 223.7 249.4-152.7-13.2-186.9-179-260.6-242.2C1574 2952.1 1296.3 2885 1296.3 2885zM3487 3396.4c0 0-77-77.7-238.9-95.5C3331 3377.9 3487 3396.4 3487 3396.4zM2746.6 3127.2c0 0 272.4 47.4 363.2 173.7 90.8 126.3 181.6 127.1 181.6 127.1s-111.8 24.3-240.8-127.1C2957.4 3191.4 2746.6 3127.2 2746.6 3127.2z"/><path fill="#fff" d="M3261.6 3144.9c0 0-258.3-246.8-319.5-219.1-61.2 27.6 124.4 191.5 240.8 219.1C3299.4 3172.6 3261.6 3144.9 3261.6 3144.9zM3344.2 3207.4c0 0-73.7-129.7-5.3-107C3407.3 3123.2 3374.4 3227.2 3344.2 3207.4zM3261.6 3097.8c0 0-75.4-83.8-38.5-95.7S3261.6 3097.8 3261.6 3097.8z"/><path fill="#fff" d="M3040.6,3108.6c-13.3-13.5-304-99.1-330.3-212.3c-26.3-113.2,221.1,130.8,275.1,156.2
		c54,25.4,71.1,70.2,142.1,84.6C3198.6,3151.6,3095.9,3164.6,3040.6,3108.6z"/><path fill="#d9e2e2" d="M1193.3,2929.7c0,0,114.5,104.6,371.1,179.6c-86.9,49.4-189.5-32.7-246.8-53.3
		C1260.4,3035.5,1185.4,2953.4,1193.3,2929.7z"/><path fill="#8db7b4" d="M4504.3,3496.2H1142.5c64.9,52.7,219.5,139.7,531.4,137c446.5-3.9,710.5,97.8,955.1,82.2
		s531.9-125.2,788.2-113.5c256.3,11.7,593.1,76.5,857.1,29.6C4538.3,3584.5,4504.3,3496.2,4504.3,3496.2z"/><path fill="#f4e9be" d="M3808.6 1508.4c-21 10.8-40.6 12-57.7 8.3 19.1 1.3 39-4.3 49.6-28.2 24.7-55.3-28.6-96.7-28.6-96.7s40.5 12.8 50.3 12.8c9.9 0 1-3-2-14.8-2.9-11.8 11.9 11.9 19.7 11.9 3.7 0 23.6-.2 43.8-.4-27.6 16.3-67.7 10.4-67.7 10.4S3879.8 1471.8 3808.6 1508.4zM3281.3 1167.7c0 0-29.1-4.9-39.5-10.9-10.4-5.9-5.9 15.3 1 18.3C3249.7 1178.1 3281.3 1167.7 3281.3 1167.7zM3507 1404.3c0 0-11.8 17.1-10.5 30.3s7.9-5.3 10.5 13.2c2.6 18.4 9.2 26.3 9.2 13.2S3507 1404.3 3507 1404.3z"/><path fill="#f4e9be" d="M3682.1 1476c0 0-25-37.5-22.4-54.6 2.6-17.1 2 .7 9.9 13.8 7.9 13.2 17.1 20.4 9.9-8.6s-18.4-49.4-9.2-44.7c9.2 4.6 15.1 63.2 30.3 76.3 15.1 13.2 21.1-2 23-7.2s2.6 24.3 20.4 44.1c17.8 19.7 2.6 23.7 2.6 23.7S3695.2 1500.3 3682.1 1476zM3780.8 1255.6c0 0 58.2 5.4 74.5 20.7 26.7 41 25.7 43.9 25.7 43.9s-36-21.7-61.7-21.7c30.6-6.9 33.1-4.9 30.6-6.9-2.5-2-50.3-14.3-53.3-14.3s20.2-9.9 20.2-9.9L3780.8 1255.6zM3876.5 1141.1c0 0-11.8 16.8-45.4 14.3 24.7-14.8 48.4-42.4 48.4-42.4s-15.3 7.4-24.2 7.4c41.5-35 45.4-78.5 45.4-78.5l12.3 48.4L3876.5 1141.1zM3499.4 1454.4c-39 35-71.2 35.8-109.3 13.3-3.7-15.8-7.7-41.5-3.7-58.7 5.9-25.7-3.1-44.9-3.1-44.9s19.4-65.6 1.6-30.1c-8.9 26.2-10.4 48.4-10.4 49.8 0 1.5 0-1.5-6.9-21.2-3 23.7-18.8 65.1-18.8 65.1s-.5-18.3 0-25.2c-10.4 21.8-22.2 27.7-31.2 28.5-32.1-19.7-29.5-68.4-36.8-105.7-93.4-25-85.5-75-73.7-154.1-71.2-95.7-15.6-173.8 26.6-213.6-33.7 6.9-111.4 31.3-110 109.4 1.8 99.7 53.1 91.4 53.1 91.4s-65.2 44.8-27.6 127.2c37.1 81.3 102.5 49.6 104.3 48.7-1 1.8-51.1 88.5 0 129.5 51.7 41.5 85.4 0 85.4 0s24.6 69.8 83.8 68.5c59.2-1.3 76.3-39.5 76.3-39.5s54.1 54.7 128.6 39.5c28.1-5.7 42.9-15.8 50.5-26.2C3554.5 1533.8 3545.5 1476.8 3499.4 1454.4z"/><path fill="#f4e9be" d="M3231.5,1309.8c0,0,31.3,7.6,49.1-1.7c-3.5,7.6,0.5,5.7,0.5,5.7s19.5-18.5,25.2-28.4
		c5.7-9.9-0.2,13.3-7.2,22.5c-6.9,9.1,0.7,6.7,10.9,6.7c10.1,0-19.7,5.4-20,26.2s-11.6,21.2-11.6,21.2s-7.4-25.7-9.4-29.6
		c-2-3.9-30.1-14.6-30.1-14.6L3231.5,1309.8z"/><g><circle cx="1811.1" cy="1646.8" r="20.8" fill="#fff"/><circle cx="1852" cy="679.1" r="41.7" fill="#fff"/><circle cx="2582.6" cy="908.3" r="20.8" fill="#fff"/><circle cx="1524.2" cy="1538.3" r="50.9" fill="#fff"/><circle cx="1656.6" cy="1176.6" r="50.9" fill="#fff"/><circle cx="2950.5" cy="440.4" r="20.8" fill="#fff"/><circle cx="2458.1" cy="694.9" r="50.9" fill="#fff"/><circle cx="2299.3" cy="1053.4" r="20.6" fill="#fff"/><circle cx="2240.1" cy="846.1" r="20.8" fill="#fff"/><circle cx="4067.3" cy="1440" r="41.7" fill="#fff"/><circle cx="4916.9" cy="2204.8" r="41.7" fill="#fff"/><circle cx="4415.3" cy="1646.8" r="20.8" fill="#fff"/><circle cx="4544.4" cy="1031.7" r="20.8" fill="#fff"/><circle cx="4393.6" cy="2861.1" r="50.9" fill="#fff"/><circle cx="3913.6" cy="1909.8" r="41.7" fill="#fff"/><circle cx="4175.6" cy="3012.3" r="20.8" fill="#fff"/><circle cx="3591.2" cy="2665.7" r="32.3" fill="#fff"/><circle cx="3776" cy="434.6" r="41.7" fill="#fff"/><circle cx="4154.8" cy="625.9" r="20.8" fill="#fff"/><circle cx="4243.6" cy="2397.2" r="41.7" fill="#fff"/><circle cx="4613.1" cy="2188.5" r="20.8" fill="#fff"/></g><path fill="#fff" d="M3871.6 3172.5c0 0-54.3 18.8-35.5 30.6 18.8 11.8 29.6 1 47.4 3.9 17.8 3 40.5 18.8 66.1 11.8 25.7-6.9 44.4-10.9 23.7-25.7C3952.5 3178.4 3871.6 3172.5 3871.6 3172.5zM1929 1900.1c0 0-11.8 29.6 6.9 35.5 18.8 5.9 49.4 33.6 58.2 27.6 8.9-5.9 14.8-17.8 8.9-25.7C1997.1 1929.7 1945.8 1885.3 1929 1900.1zM4533.9 1575.6l-3.1-1.5c-25.9-13-28.2 9.9-30.5 15.3-2.3 5.3 3.1 19.1 7.6 24.4 4.6 5.3 3.1-1.5 16-1.5s15.3-.8 17.5-9.9C4543.8 1593.1 4533.9 1575.6 4533.9 1575.6z"/></svg>